<?xml version="1.0" encoding="iso-8859-1"?>
<!-- Generator: Adobe Illustrator 19.0.0, SVG Export Plug-In . SVG Version: 6.00 Build 0)  -->
<svg version="1.1" id="Capa_1" xmlns="http://www.w3.org/2000/svg" xmlns:xlink="http://www.w3.org/1999/xlink" x="0px" y="0px"
	 viewBox="0 0 512 512" style="enable-background:new 0 0 512 512;" xml:space="preserve">
<path style="fill:#7FE4F4;" d="M283.854,239.451c36.995-13.27,60.893-43.896,60.893-78.057V28.863H153.344v132.531
	c0,34.2,23.952,64.858,61.023,78.105c1.288,0.46,2.106,1.597,2.136,2.967c0.029,1.369-0.743,2.539-2.049,3.068l-0.098,0.04
	c-31.224,12.649-53.44,39.361-59.428,71.455l-1.818,9.743v15.52h17.213H340.51c2.34,0,4.237-1.897,4.237-4.237v-3.996
	c0-38.74-23.945-73.47-61.01-88.485l-0.148-0.06c-1.32-0.535-2.099-1.787-1.993-3.235
	C281.69,240.979,282.627,239.891,283.854,239.451z"/>
<path style="fill:#65E0C8;" d="M226.166,317.029c5.928-31.772,27.765-58.259,58.495-71.061c-0.31-0.129-0.612-0.268-0.924-0.394
	l-0.148-0.06c-1.32-0.536-2.099-1.787-1.993-3.235c0.095-1.301,1.031-2.388,2.259-2.83c0.273-0.098,0.538-0.206,0.81-0.306
	c-36.531-13.428-60.083-43.843-60.083-77.752V28.863h-71.238v132.531c0,34.2,23.952,64.858,61.023,78.105
	c1.288,0.46,2.106,1.597,2.136,2.967c0.029,1.369-0.743,2.539-2.049,3.068l-0.098,0.04c-31.224,12.649-53.44,39.361-59.428,71.455
	l-1.818,9.743v15.52h17.213h54.025v-15.52L226.166,317.029z"/>
<path style="fill:#086987;" d="M161.577,34.522c-9.362,0-16.979-7.617-16.979-16.979s7.617-16.979,16.979-16.979h174.938
	c9.362,0,16.979,7.617,16.979,16.979s-7.617,16.979-16.979,16.979H161.577z"/>
<path style="fill:#066075;" d="M215.573,17.543c0-9.362,7.617-16.979,16.979-16.979h-70.975c-9.362,0-16.979,7.617-16.979,16.979
	s7.617,16.979,16.979,16.979h70.975C223.19,34.522,215.573,26.905,215.573,17.543z"/>
<path style="fill:#25D887;" d="M191.381,353.2c-1.914,0.176-3.565-1.331-3.565-3.253v-15.888c0-26.749,15.658-50.702,39.89-61.021
	l8.475-3.609v-54.247l-9.652-3.624c-23.518-8.832-38.713-28.523-38.713-50.164V69.238c0-3.544,2.873-6.417,6.417-6.417h109.623
	c3.544,0,6.417,2.873,6.417,6.417v92.155c0,21.641-15.196,41.332-38.713,50.164l-9.652,3.624v54.247l8.474,3.609
	c24.233,10.319,39.891,34.272,39.891,61.021v4.432c0,2.153-1.64,3.951-3.784,4.147L191.381,353.2z"/>
<path style="fill:#15CC5E;" d="M224.349,326.772l1.818-9.743c4.331-23.213,17.162-43.599,35.742-57.893v-31.624
	c-23.252-15.804-37.327-39.915-37.327-66.118V62.821h-30.348c-3.544,0-6.417,2.873-6.417,6.417v92.155
	c0,21.641,15.196,41.332,38.713,50.164l9.652,3.624v54.247l-8.475,3.609c-24.232,10.319-39.89,34.272-39.89,61.021v8.232h36.531
	L224.349,326.772L224.349,326.772z"/>
<g>
	<path style="fill:#25D887;" d="M399.794,485.378v-34.224c0-1.635,1.325-2.962,2.962-2.962h34.224c1.635,0,2.962,1.325,2.962,2.962
		v34.224c0,1.635-1.325,2.962-2.962,2.962h-34.224C401.12,488.338,399.794,487.013,399.794,485.378z"/>
	<path style="fill:#25D887;" d="M276.101,493.938v-32.822c0-1.568,1.272-2.84,2.84-2.84h32.822c1.568,0,2.84,1.272,2.84,2.84v32.822
		c0,1.568-1.272,2.84-2.84,2.84h-32.822C277.372,496.777,276.101,495.506,276.101,493.938z"/>
	<path style="fill:#25D887;" d="M136.365,358.073V327.37c0-1.467,1.19-2.657,2.657-2.657h30.704c1.467,0,2.657,1.19,2.657,2.657
		v30.704c0,1.467-1.19,2.657-2.657,2.657h-30.704C137.554,360.73,136.365,359.541,136.365,358.073z"/>
</g>
<path style="fill:#00BA61;" d="M146.387,332.697h-10.023v25.377c0,1.467,1.19,2.657,2.657,2.657h21.261v-14.139
	C160.282,338.929,154.049,332.697,146.387,332.697z"/>
<g>
	<path style="fill:#25D887;" d="M101.127,388.247v-41.656c0-1.99,1.614-3.604,3.604-3.604h41.656c1.99,0,3.604,1.614,3.604,3.604
		v41.656c0,1.99-1.614,3.604-3.604,3.604h-41.656C102.741,391.851,101.127,390.237,101.127,388.247z"/>
	<path style="fill:#25D887;" d="M16.996,411.584V380.88c0-1.467,1.19-2.657,2.657-2.657h30.704c1.467,0,2.657,1.19,2.657,2.657
		v30.704c0,1.467-1.19,2.657-2.657,2.657H19.652C18.184,414.241,16.996,413.051,16.996,411.584z"/>
	<path style="fill:#25D887;" d="M75.651,486.704V456c0-1.467,1.19-2.657,2.657-2.657h30.704c1.467,0,2.657,1.19,2.657,2.657v30.704
		c0,1.467-1.19,2.657-2.657,2.657H78.307C76.84,489.361,75.651,488.171,75.651,486.704z"/>
	<path style="fill:#25D887;" d="M152.83,509.343v-30.704c0-1.467,1.19-2.657,2.657-2.657h30.704c1.467,0,2.657,1.19,2.657,2.657
		v30.704c0,1.467-1.19,2.657-2.657,2.657h-30.704C154.018,512,152.83,510.81,152.83,509.343z"/>
	<path style="fill:#25D887;" d="M207.369,454.956v-28.949c0-1.383,1.122-2.505,2.505-2.505h28.949c1.383,0,2.505,1.122,2.505,2.505
		v28.949c0,1.383-1.122,2.505-2.505,2.505h-28.949C208.49,457.461,207.369,456.339,207.369,454.956z"/>
</g>
<path style="fill:#00BA61;" d="M209.874,423.502c-1.383,0-2.505,1.122-2.505,2.505v19.105h9.659c7.725,0,14.009-6.284,14.009-14.009
	v-7.601H209.874z"/>
<path style="fill:#25D887;" d="M311.296,431.471v-44.75c0-2.138,1.734-3.872,3.872-3.872h44.75c2.138,0,3.872,1.734,3.872,3.872
	v44.75c0,2.138-1.734,3.872-3.872,3.872h-44.75C313.03,435.342,311.296,433.609,311.296,431.471z"/>
<path style="fill:#00BA61;" d="M315.168,382.848c-2.138,0-3.872,1.734-3.872,3.872v34.736h20.838
	c7.809,0,14.163-6.353,14.163-14.163v-24.446H315.168z"/>
<path style="fill:#25D887;" d="M406.07,379.147v-35.806c0-1.711,1.387-3.097,3.097-3.097h35.806c1.711,0,3.097,1.387,3.097,3.097
	v35.806c0,1.711-1.387,3.097-3.097,3.097h-35.806C407.457,382.245,406.07,380.858,406.07,379.147z"/>
<path style="fill:#00BA61;" d="M430.73,350.44c-7.976,0-14.465,6.489-14.465,14.465v17.34h28.707c1.711,0,3.097-1.387,3.097-3.097
	v-28.707H430.73V350.44z"/>
<g>
	<polygon style="fill:#F6B545;" points="23.13,245.526 7.654,218.722 23.13,191.917 54.081,191.917 69.556,218.722 54.081,245.526 	
		"/>
	<polygon style="fill:#F6B545;" points="23.13,191.917 7.654,165.113 23.13,138.308 54.081,138.308 69.556,165.113 54.081,191.917 	
		"/>
	<polygon style="fill:#F6B545;" points="67.743,218.722 52.267,191.917 67.743,165.113 98.694,165.113 114.17,191.917 
		98.694,218.722 	"/>
</g>
<g>
	<polygon style="fill:#F19920;" points="40.042,191.917 23.13,191.917 7.654,218.722 23.13,245.526 40.042,245.526 24.566,218.722 	
		"/>
	<polygon style="fill:#F19920;" points="40.042,138.308 23.13,138.308 7.654,165.113 23.13,191.917 40.042,191.917 24.566,165.113 	
		"/>
	<polygon style="fill:#F19920;" points="84.656,165.113 67.743,165.113 52.267,191.917 67.743,218.722 84.656,218.722 
		69.18,191.917 	"/>
</g>
<g>
	<polygon style="fill:#F6B545;" points="413.306,107.217 397.83,80.414 413.306,53.609 444.257,53.609 459.733,80.414 
		444.257,107.217 	"/>
	<polygon style="fill:#F6B545;" points="413.306,53.609 397.83,26.805 413.306,0 444.257,0 459.733,26.805 444.257,53.609 	"/>
	<polygon style="fill:#F6B545;" points="457.919,80.414 442.444,53.609 457.919,26.805 488.87,26.805 504.346,53.609 488.87,80.414 
			"/>
</g>
<g>
	<polygon style="fill:#F19920;" points="430.219,53.609 413.306,53.609 397.83,80.414 413.306,107.217 430.219,107.217 
		414.743,80.414 	"/>
	<polygon style="fill:#F19920;" points="430.219,0 413.306,0 397.83,26.805 413.306,53.609 430.219,53.609 414.743,26.805 	"/>
	<polygon style="fill:#F19920;" points="474.832,26.805 457.919,26.805 442.444,53.609 457.919,80.414 474.832,80.414 
		459.356,53.609 	"/>
</g>
<g>
	<path style="fill:#25D887;" d="M170.324,431.103v-42.985c0-2.054,1.665-3.719,3.719-3.719h42.985c2.054,0,3.719,1.665,3.719,3.719
		v42.985c0,2.054-1.665,3.719-3.719,3.719h-42.985C171.989,434.822,170.324,433.156,170.324,431.103z"/>
	<path style="fill:#25D887;" d="M283.512,407.295v-44.751c0-2.138,1.734-3.872,3.872-3.872h44.75c2.138,0,3.872,1.734,3.872,3.872
		v44.75c0,2.138-1.734,3.872-3.872,3.872h-44.75C285.246,411.166,283.512,409.433,283.512,407.295z"/>
	<path style="fill:#25D887;" d="M426.556,413.153v-48.249c0-2.305,1.869-4.175,4.175-4.175h48.249c2.305,0,4.175,1.869,4.175,4.175
		v48.249c0,2.305-1.869,4.175-4.175,4.175h-48.249C428.425,417.328,426.556,415.459,426.556,413.153z"/>
</g>
<g>
</g>
<g>
</g>
<g>
</g>
<g>
</g>
<g>
</g>
<g>
</g>
<g>
</g>
<g>
</g>
<g>
</g>
<g>
</g>
<g>
</g>
<g>
</g>
<g>
</g>
<g>
</g>
<g>
</g>
</svg>
