<?xml version="1.0" encoding="iso-8859-1"?>
<!-- Generator: Adobe Illustrator 19.0.0, SVG Export Plug-In . SVG Version: 6.00 Build 0)  -->
<svg version="1.1" id="Capa_1" xmlns="http://www.w3.org/2000/svg" xmlns:xlink="http://www.w3.org/1999/xlink" x="0px" y="0px"
	 viewBox="0 0 512 512" style="enable-background:new 0 0 512 512;" xml:space="preserve">
<g>
	<polygon style="fill:#F6B545;" points="420.201,51.748 405.941,27.048 421.448,0.188 452.465,0.188 467.601,26.404 452.97,51.748 	
		"/>
	<polygon style="fill:#F6B545;" points="421.448,102.982 405.941,76.121 420.201,51.422 453.713,51.422 467.972,76.121 
		452.465,102.982 	"/>
	<polygon style="fill:#F6B545;" points="465.475,77.861 450.341,51.644 466.219,24.14 496.492,24.14 512,51 496.492,77.861 	"/>
</g>
<g>
	<polygon style="fill:#EFA02E;" points="435.752,0.188 421.448,0.188 405.941,27.048 420.201,51.748 434.504,51.748 420.245,27.048 
			"/>
	<polygon style="fill:#EFA02E;" points="434.504,51.422 420.201,51.422 405.941,76.121 421.448,102.982 435.752,102.982 
		420.245,76.121 	"/>
	<polygon style="fill:#EFA02E;" points="480.523,24.14 466.219,24.14 450.341,51.644 465.475,77.861 479.779,77.861 464.643,51.644 
			"/>
</g>
<g>
	<polygon style="fill:#F6B545;" points="14.299,460.252 0.039,435.552 15.546,408.693 46.563,408.693 61.699,434.908 
		47.067,460.252 	"/>
	<polygon style="fill:#F6B545;" points="15.507,511.812 0,484.952 14.259,460.252 47.771,460.252 62.031,484.952 46.524,511.812 	
		"/>
	<polygon style="fill:#F6B545;" points="59.025,487.112 43.89,460.897 59.768,433.392 90.041,433.392 105.549,460.252 
		90.041,487.112 	"/>
</g>
<g>
	<polygon style="fill:#EFA02E;" points="32.221,408.693 15.546,408.693 0.039,435.552 14.299,460.252 30.973,460.252 
		16.714,435.552 	"/>
	<polygon style="fill:#EFA02E;" points="30.934,460.252 14.259,460.252 0,484.952 15.507,511.812 32.182,511.812 16.674,484.952 	
		"/>
	<polygon style="fill:#EFA02E;" points="76.443,433.392 59.768,433.392 43.89,460.897 59.025,487.112 75.699,487.112 
		60.563,460.897 	"/>
</g>
<g>
	<path style="fill:#25D887;" d="M140.384,42.522V16.73c0-2.047,1.659-3.707,3.707-3.707h25.792c2.047,0,3.707,1.659,3.707,3.707
		v25.792c0,2.047-1.659,3.707-3.707,3.707h-25.792C142.043,46.23,140.384,44.569,140.384,42.522z"/>
	<path style="fill:#25D887;" d="M191.944,96.145V70.352c0-2.047,1.659-3.707,3.707-3.707h25.792c2.047,0,3.707,1.659,3.707,3.707
		v25.792c0,2.047-1.659,3.707-3.707,3.707h-25.792C193.603,99.852,191.944,98.192,191.944,96.145z"/>
	<path style="fill:#25D887;" d="M302.738,56.715V25.224c0-2.5,2.026-4.526,4.526-4.526h31.491c2.5,0,4.526,2.026,4.526,4.526v31.491
		c0,2.5-2.026,4.526-4.526,4.526h-31.491C304.764,61.241,302.738,59.214,302.738,56.715z"/>
	<path style="fill:#25D887;" d="M443.076,167.372v-23.879c0-1.895,1.536-3.432,3.432-3.432h23.879c1.895,0,3.432,1.536,3.432,3.432
		v23.879c0,1.895-1.536,3.432-3.432,3.432h-23.879C444.612,170.803,443.076,169.267,443.076,167.372z"/>
	<path style="fill:#25D887;" d="M301.882,484.075v-20.006c0-1.588,1.287-2.875,2.875-2.875h20.006c1.588,0,2.875,1.287,2.875,2.875
		v20.006c0,1.588-1.287,2.875-2.875,2.875h-20.006C303.169,486.951,301.882,485.663,301.882,484.075z"/>
	<path style="fill:#25D887;" d="M155.067,463.158v-31.817c0-2.525,2.047-4.572,4.572-4.572h31.817c2.525,0,4.572,2.047,4.572,4.572
		v31.817c0,2.525-2.047,4.572-4.572,4.572H159.64C157.114,467.731,155.067,465.684,155.067,463.158z"/>
	<path style="fill:#25D887;" d="M23.611,344.284v-22.972c0-1.823,1.478-3.301,3.301-3.301h22.972c1.823,0,3.301,1.478,3.301,3.301
		v22.972c0,1.823-1.478,3.301-3.301,3.301H26.913C25.09,347.586,23.611,346.107,23.611,344.284z"/>
	<path style="fill:#25D887;" d="M423.839,461.055v-27.588c0-2.189,1.775-3.965,3.965-3.965h27.588c2.189,0,3.965,1.775,3.965,3.965
		v27.588c0,2.189-1.775,3.965-3.965,3.965h-27.588C425.613,465.02,423.839,463.245,423.839,461.055z"/>
</g>
<path style="fill:#05A54A;" d="M427.804,429.502c-2.189,0-3.965,1.776-3.965,3.965v18.434h6.907c9.68,0,17.554-7.875,17.554-17.554
	v-4.845H427.804z"/>
<path style="fill:#25D887;" d="M37.429,95.896V62.35c0-2.663,2.158-4.821,4.821-4.821h33.546c2.663,0,4.821,2.158,4.821,4.821
	v33.546c0,2.663-2.158,4.821-4.821,4.821H42.25C39.588,100.718,37.429,98.559,37.429,95.896z"/>
<path style="fill:#00BA61;" d="M64.839,66.234c-10.314,0-18.706,8.392-18.706,18.706v15.778h29.663c2.663,0,4.821-2.158,4.821-4.821
	V66.234H64.839z"/>
<path style="fill:#E0E0E3;" d="M258.044,395.702c-93.43,0-173.256-94.948-195.496-124.048c-5.431-7.108-5.431-17.034,0-24.14
	c22.24-29.1,102.065-124.048,195.496-124.048c93.43,0,173.256,94.948,195.495,124.048c5.431,7.108,5.431,17.034,0,24.14
	C431.299,300.754,351.476,395.702,258.044,395.702z"/>
<path style="fill:#D4D4D8;" d="M335.899,329.189c-93.43,0-173.256-94.948-195.495-124.048c-5.431-7.108-5.431-17.034,0-24.14
	c4.937-6.46,12.718-16.169,22.85-27.36c-49.269,30.409-86.589,75.402-100.706,93.872c-5.431,7.107-5.431,17.033,0,24.14
	c22.24,29.1,102.067,124.048,195.496,124.048c72.69,0,137.138-57.468,172.645-96.688
	C402.336,316.514,370.028,329.189,335.899,329.189z"/>
<path style="fill:#7FE4F4;" d="M258.044,365.281c-58.282,0-105.698-47.415-105.698-105.698s47.416-105.698,105.698-105.698
	s105.698,47.415,105.698,105.698S316.326,365.281,258.044,365.281z"/>
<path style="fill:#4DD4E2;" d="M250.31,241.888c0-33.563,15.727-63.52,40.196-82.896c-10.234-3.31-21.141-5.106-32.462-5.106
	c-58.282,0-105.698,47.415-105.698,105.698s47.416,105.698,105.698,105.698c24.719,0,47.48-8.532,65.502-22.802
	C281.097,328.748,250.31,288.849,250.31,241.888z"/>
<g>
	<path style="fill:#C7C5CC;" d="M265.778,232.555v-31.75c0-4.272-3.462-7.734-7.734-7.734c-4.272,0-7.734,3.462-7.734,7.734v31.75
		H265.778z"/>
	<path style="fill:#C7C5CC;" d="M238.967,232.555v-31.75c0-4.272-3.462-7.734-7.734-7.734s-7.734,3.462-7.734,7.734v31.75H238.967z"
		/>
	<path style="fill:#C7C5CC;" d="M292.589,232.555v-31.75c0-4.272-3.462-7.734-7.734-7.734s-7.734,3.462-7.734,7.734v31.75H292.589z"
		/>
	<path style="fill:#C7C5CC;" d="M314.76,249.787h-31.333v15.468h31.333c4.272,0,7.734-3.462,7.734-7.734
		C322.494,253.249,319.032,249.787,314.76,249.787z"/>
	<path style="fill:#C7C5CC;" d="M314.76,222.976h-31.333v15.468h31.333c4.272,0,7.734-3.462,7.734-7.734
		C322.494,226.438,319.032,222.976,314.76,222.976z"/>
	<path style="fill:#C7C5CC;" d="M314.76,276.598h-31.333l0.111,15.468h31.221c4.272,0,7.734-3.462,7.734-7.734
		S319.032,276.598,314.76,276.598z"/>
	<path style="fill:#C7C5CC;" d="M251.667,295.428c-0.855,1.245-1.357,2.749-1.357,4.372v14.437c0,4.272,3.462,7.734,7.734,7.734
		c4.272,0,7.734-3.462,7.734-7.734V299.8c0-1.623-0.502-3.129-1.357-4.372H251.667z"/>
	<path style="fill:#C7C5CC;" d="M278.478,295.428c-0.855,1.245-1.357,2.749-1.357,4.372v14.437c0,4.272,3.462,7.734,7.734,7.734
		s7.734-3.462,7.734-7.734V299.8c0-1.623-0.502-3.129-1.357-4.372H278.478z"/>
	<path style="fill:#C7C5CC;" d="M224.856,295.428c-0.855,1.245-1.357,2.749-1.357,4.372v14.437c0,4.272,3.462,7.734,7.734,7.734
		s7.734-3.462,7.734-7.734V299.8c0-1.623-0.502-3.129-1.357-4.372H224.856z"/>
	<path style="fill:#C7C5CC;" d="M231.37,249.885c-0.382-0.059-15.207-0.098-15.605-0.098h-14.437c-4.272,0-7.734,3.462-7.734,7.734
		c0,4.272,3.462,7.734,7.734,7.734h14.437c0.398,0,15.224-0.039,15.605-0.098V249.885z"/>
	<path style="fill:#C7C5CC;" d="M231.37,276.696c-0.382-0.059-15.207-0.098-15.605-0.098h-14.437c-4.272,0-7.734,3.462-7.734,7.734
		s3.462,7.734,7.734,7.734h14.437c0.398,0,15.224-0.039,15.605-0.098V276.696z"/>
	<path style="fill:#C7C5CC;" d="M231.37,223.074c-0.382-0.059-15.207-0.098-15.605-0.098h-14.437c-4.272,0-7.734,3.462-7.734,7.734
		c0,4.272,3.462,7.734,7.734,7.734h14.437c0.398,0,15.224-0.039,15.605-0.098V223.074z"/>
</g>
<path style="fill:#25D887;" d="M232.706,300.316c-9.626,0-17.457-7.831-17.457-17.457v-50.676c0-9.626,7.831-17.457,17.457-17.457
	h50.676c9.626,0,17.457,7.831,17.457,17.457v50.676c0,9.626-7.831,17.457-17.457,17.457L232.706,300.316L232.706,300.316z"/>
<path style="fill:#1AC473;" d="M258.044,282.859v-50.676c0-9.626,7.831-17.457,17.457-17.457h-42.795
	c-9.626,0-17.457,7.831-17.457,17.457v50.676c0,9.626,7.831,17.457,17.457,17.457h42.795
	C265.875,300.316,258.044,292.485,258.044,282.859z"/>
<path style="fill:#05A54A;" d="M237.935,271.92v-28.798c0-3.153,2.556-5.71,5.71-5.71h28.798c3.153,0,5.71,2.556,5.71,5.71v28.798
	c0,3.153-2.556,5.71-5.71,5.71h-28.798C240.492,277.629,237.935,275.073,237.935,271.92z"/>
<g>
	<path style="fill:#25D887;" d="M58.507,128.993V84.939c0-3.497,2.835-6.332,6.332-6.332h44.054c3.497,0,6.332,2.835,6.332,6.332
		v44.054c0,3.497-2.835,6.332-6.332,6.332H64.839C61.342,135.324,58.507,132.489,58.507,128.993z"/>
	<path style="fill:#25D887;" d="M389.522,434.348v-36.043c0-2.861,2.319-5.18,5.18-5.18h36.043c2.861,0,5.18,2.319,5.18,5.18v36.043
		c0,2.861-2.319,5.18-5.18,5.18h-36.043C391.841,439.527,389.522,437.208,389.522,434.348z"/>
</g>
<g>
</g>
<g>
</g>
<g>
</g>
<g>
</g>
<g>
</g>
<g>
</g>
<g>
</g>
<g>
</g>
<g>
</g>
<g>
</g>
<g>
</g>
<g>
</g>
<g>
</g>
<g>
</g>
<g>
</g>
</svg>
