<?xml version="1.0" encoding="utf-8"?>
<!-- Generator: Adobe Illustrator 22.0.0, SVG Export Plug-In . SVG Version: 6.00 Build 0)  -->
<svg version="1.1" id="Layer_1" xmlns="http://www.w3.org/2000/svg" xmlns:xlink="http://www.w3.org/1999/xlink" x="0px" y="0px"
	 viewBox="0 0 450 450" style="enable-background:new 0 0 450 450;" xml:space="preserve">
<style type="text/css">
	.st0{display:none;}
	.st1{display:inline;}
	.st2{clip-path:url(#SVGID_2_);fill:url(#SVGID_3_);}
	.st3{clip-path:url(#SVGID_2_);}
	.st4{display:inline;opacity:0.15;fill:#FFFFFF;}
	.st5{clip-path:url(#SVGID_2_);fill:url(#SVGID_4_);}
	.st6{clip-path:url(#SVGID_2_);fill:#A0E0EF;}
	.st7{clip-path:url(#SVGID_2_);fill:#BAEAF2;}
	.st8{clip-path:url(#SVGID_2_);fill:#FFDF6E;}
	.st9{clip-path:url(#SVGID_2_);fill:#FEFEC9;}
	.st10{clip-path:url(#SVGID_2_);fill:url(#SVGID_5_);}
	.st11{fill:#591F2A;}
	.st12{fill:#EB4764;}
	.st13{fill:#BE2843;}
	.st14{fill:url(#SVGID_6_);}
	.st15{fill:url(#SVGID_7_);}
	.st16{fill:#F8EBC4;}
	.st17{fill:#8C1E31;}
	.st18{fill:#541823;}
	.st19{fill:#FFB261;}
	.st20{opacity:0.25;fill:#FFFCA0;}
	.st21{fill:#A1E0FF;}
	.st22{opacity:0.65;}
	.st23{fill:#66CCFF;}
	.st24{fill:#FFFFFF;}
	.st25{fill:#CC8B96;}
</style>
<g class="st0">
	<defs>
		<rect id="SVGID_1_" x="0" width="450" height="450"/>
	</defs>
	<clipPath id="SVGID_2_" class="st1">
		<use xlink:href="#SVGID_1_"  style="display:none;overflow:visible;"/>
	</clipPath>
	<linearGradient id="SVGID_3_" gradientUnits="userSpaceOnUse" x1="34.8375" y1="-11.7922" x2="426.3179" y2="475.6825">
		<stop  offset="0.2484" style="stop-color:#00A2A9"/>
		<stop  offset="0.5144" style="stop-color:#00858A"/>
		<stop  offset="0.8007" style="stop-color:#028489"/>
		<stop  offset="0.9037" style="stop-color:#097F85"/>
		<stop  offset="0.9769" style="stop-color:#14787D"/>
		<stop  offset="1" style="stop-color:#1A747A"/>
	</linearGradient>
	<rect x="0" class="st2" width="450" height="450"/>
	<g class="st3">
		<circle class="st4" cx="147.7" cy="60.9" r="252.2"/>
		<circle class="st4" cx="113.9" cy="14.2" r="252.2"/>
		
			<ellipse transform="matrix(0.7071 -0.7071 0.7071 0.7071 45.1872 52.4394)" class="st4" cx="85.9" cy="-28.3" rx="252.2" ry="252.2"/>
	</g>
	<linearGradient id="SVGID_4_" gradientUnits="userSpaceOnUse" x1="346.4012" y1="312.9183" x2="484.5233" y2="431.9575">
		<stop  offset="0" style="stop-color:#7CE1EE"/>
		<stop  offset="0.2999" style="stop-color:#A6E0EE"/>
		<stop  offset="0.4734" style="stop-color:#BADFEE"/>
		<stop  offset="0.8424" style="stop-color:#D4EFFA"/>
	</linearGradient>
	<path class="st5" d="M432.8,195.9c-10.4,14.1-7.5,34,6.6,44.5c0.3,0.2,0.6,0.4,0.9,0.7c-1.7,1.1-3.3,2.5-4.6,4.2
		c-3.4,4.6-4.1,10.5-2.4,15.6c-10-4-21.9-1-28.6,8.1c-3.1,4.2-4.6,9-4.8,13.8c-15-3.5-31.4,2-41.1,15.2
		c-13.1,17.7-9.4,42.7,8.3,55.9c1.6,1.2,3.3,2.3,5,3.2c-8-0.1-15.9,3.5-21.1,10.5c-4.7,6.4-6.1,14.2-4.4,21.3
		c-13.8-6.2-30.5-2.2-39.9,10.4c-10.8,14.6-7.7,35.1,6.9,45.9c0.6,0.5,1.3,0.9,1.9,1.3c-5.3,0.7-10.2,3.5-13.6,8.1
		c-4.4,5.9-5.1,13.4-2.6,19.7c-10-1.3-20.4,2.8-26.8,11.5c-3.3,4.5,185.3,18.9,214.6-42.5c38.8-81.3,4-243.4-10.1-253.9
		C463.1,178.8,443.2,181.7,432.8,195.9z"/>
	<path class="st6" d="M413.8,436.6c12.5-20.2,6.2-46.7-14-59.1c-20.2-12.5-46.7-6.2-59.1,14c-1.9,3-3.3,6.2-4.4,9.5
		c-22.2-13.6-42.1-8.1-54.1,7.7c2.5-7.4-0.3-15.8-7.2-20.1c-8-5-18.6-2.5-23.6,5.6c-1.4,2.3-2.2,4.8-2.4,7.3
		c-10.3-4.6-21.8-3.9-31.3,1.3c-1-6.9-5-13.4-11.4-17.4c-9.4-5.8-21-4.5-29,2.3c-1.3-2.8-3.4-5.2-6.2-6.9c-4.2-2.6-9.2-3-13.5-1.6
		c0.9-9-3.2-18.1-11.4-23.2c-4.8-3-10.2-4-15.4-3.4c3.4-11.9-1.4-25.1-12.4-31.9c-10.2-6.3-22.9-5.3-32,1.5
		c-1-7.1-5.1-13.7-11.7-17.8c-9.2-5.7-20.6-4.7-28.7,1.5c0.3-6.7-2.9-13.4-9.1-17.2c-0.7-0.4-1.4-0.8-2.1-1.1c0,0,0.1-0.1,0.1-0.1
		c8.8-14.3,4.4-33.1-9.9-41.9c-8.8-5.4-19.3-5.8-28.2-2c2.6-8.1,0.5-17-5.4-23.1c2.4-1.4,4.5-3.3,6-5.8c4.9-8,2.4-18.4-5.5-23.4
		c-8-4.9-18.4-2.4-23.4,5.5c-3.5,5.7-3.2,12.5,0,17.8c-5.2,1.6-9.8,4.9-12.8,9.8c-5.2,8.4-14.8,32.6-19.7,40.5
		c-9.1,14.7-4.5,33.9,10.2,43c4.4,2.7,9.2,4.2,14.1,4.6c1.7,3,4.1,5.6,7.2,7.5c5.5,3.4,11.9,3.9,17.5,1.9c0.8,5.5,3.9,10.5,8.9,13.6
		c5.2,3.2,11.3,3.6,16.7,1.7c0.3,5.4,3.1,10.6,8.1,13.7c3.1,1.9,6.6,2.7,9.9,2.5c0.7,7,4.5,13.6,11,17.6c7.2,4.4,15.9,4.5,22.9,0.9
		c1.6,2.3,3.6,4.3,6.2,5.9c4.7,2.9,10,3.6,15,2.6c1.2,4.9,4.2,9.3,8.8,12.1c4.8,2.9,10.4,3.6,15.8,2.1c6.6-1.8,5.7-1.5,6.8,4.2
		c1.2,6.5,2.9,11.9,8.9,15.6c7.7,4.7,16.6,0.9,23.4-4.2c-3.5,10.6-3.2,22.7,7.6,29.3c7.4,4.5,16.5,4,23.1-0.7
		c0.2,7.4,4.1,14.6,10.9,18.8c6.4,3.9,11.6,2.3,18.4,2.8c10.1,0.8,12.9,13.3,20.8,18.2c4.7,2.9,10.1,4,15.2,3.5
		c2.7,3.3,6.1,6.3,9.9,8.7c3.7,2.3,7.6,3.9,11.6,4.8c4.9,7.5,11.4,14,19.5,19c29.5,18.2,68.2,9,86.5-20.5c7.1-11.5,10-24.4,9.2-36.9
		C393.3,456.1,406.2,449,413.8,436.6z"/>
	<path class="st7" d="M434.7,311.6c-17.6,0-31.8,14.2-31.8,31.8c0,0.4,0,0.8,0,1.2c-1.9-0.7-4-1.2-6.1-1.2c-5.8,0-10.9,2.9-13.9,7.3
		c-2.7-10.5-12.2-18.2-23.5-18.2c-5.2,0-10,1.6-13.9,4.4c-6.1-14.1-20.2-24-36.7-24c-22.1,0-39.9,17.9-39.9,39.9c0,2,0.2,4,0.4,5.9
		c-4.7-6.5-12.3-10.7-21-10.7c-7.9,0-15,3.6-19.8,9.2c-3.2-14.8-16.3-25.9-32.1-25.9c-18.1,0-32.8,14.7-32.8,32.8
		c0,0.8,0,1.6,0.1,2.3c-3.7-3.8-8.9-6.1-14.6-6.1c-7.3,0-13.8,3.9-17.4,9.7c-4.9-8.8-14.4-14.8-25.2-14.8c-5.6,0-10.8,1.6-15.2,4.3
		C88.8,335.1,68,316,42.8,316c-6.6,0-12.8,1.3-18.6,3.7c0-0.4,0.1-0.7,0.1-1.1c0-11.3-9.2-20.5-20.5-20.5
		c-11.3,0-20.5,9.2-20.5,20.5c0,4.9,1.7,9.4,4.6,12.9c-2.9,3.5-4.6,8-4.6,12.9c0,7.8-11.7,160.2,15.2,160.2
		c13.8,0,422.7-3.2,454.7-3.2c17.6,0,13.2-140.3,13.2-157.9C466.5,325.8,452.2,311.6,434.7,311.6z"/>
	<circle class="st8" cx="111.5" cy="57.7" r="21"/>
	<polygon class="st9" points="368.2,126.8 374.4,129.1 368.2,131.4 365.9,137.6 363.5,131.4 357.4,129.1 363.5,126.8 365.9,120.6 	
		"/>
	<polygon class="st9" points="30.9,101.2 37,103.5 30.9,105.8 28.5,112 26.2,105.8 20,103.5 26.2,101.2 28.5,95 	"/>
	<polygon class="st9" points="325.8,208.4 328.7,209 325.8,209.6 325.2,214.5 324.6,209.6 321.9,209 324.6,208.4 325.2,202.4 	"/>
	<polygon class="st9" points="304.8,33.1 307.7,33.7 304.8,34.2 304.2,39.1 303.6,34.2 300.9,33.7 303.6,33.1 304.2,27 	"/>
	<polygon class="st9" points="112.3,337.5 116.5,338.4 112.3,339.3 111.4,346.4 110.6,339.3 106.6,338.4 110.6,337.5 111.4,328.8 	
		"/>
	<polygon class="st9" points="112,147.3 114.9,147.9 112,148.5 111.4,153.4 110.8,148.5 108.1,147.9 110.8,147.3 111.4,141.3 	"/>
	<polygon class="st9" points="179.7,57.7 182.5,58.2 179.7,58.8 179.1,63.7 178.5,58.8 175.8,58.2 178.5,57.7 179.1,51.6 	"/>
	<polygon class="st9" points="419.4,69 423.3,70.4 419.4,71.9 418,75.7 416.6,71.9 412.7,70.4 416.6,69 418,65.1 	"/>
	<polygon class="st9" points="143.8,377.8 147.4,379.1 143.8,380.5 142.4,384.2 141.1,380.5 137.4,379.1 141.1,377.8 142.4,374.1 	
		"/>
	<polygon class="st9" points="149.9,251.7 155,253.6 149.9,255.5 148,260.6 146.1,255.5 141,253.6 146.1,251.7 148,246.7 	"/>
	<polygon class="st9" points="291.1,369 292.9,369.7 291.1,370.4 290.5,372.2 289.8,370.4 288,369.7 289.8,369 290.5,367.3 	"/>
	<polygon class="st9" points="63.6,122.2 65.4,122.8 63.6,123.5 62.9,125.3 62.3,123.5 60.5,122.8 62.3,122.2 62.9,120.4 	"/>
	<polygon class="st9" points="66.1,251.3 67.9,252 66.1,252.6 65.4,254.4 64.7,252.6 62.9,252 64.7,251.3 65.4,249.5 	"/>
	<polygon class="st9" points="162.2,328.1 164,328.8 162.2,329.4 161.6,331.2 160.9,329.4 159.1,328.8 160.9,328.1 161.6,326.3 	"/>
	<polygon class="st9" points="293.6,281.9 295.4,282.6 293.6,283.2 292.9,285 292.2,283.2 290.5,282.6 292.2,281.9 292.9,280.1 	"/>
	<polygon class="st9" points="386.4,36 388.2,36.7 386.4,37.4 385.8,39.1 385.1,37.4 383.3,36.7 385.1,36 385.8,34.2 	"/>
	<polygon class="st9" points="344.5,293.7 347.7,294.9 344.5,296.1 343.3,299.4 342.1,296.1 338.9,294.9 342.1,293.7 343.3,290.5 	
		"/>
	<path class="st9" d="M114.7,208.4c0,1.2-1,2.1-2.1,2.1s-2.1-1-2.1-2.1s1-2.1,2.1-2.1S114.7,207.2,114.7,208.4z"/>
	<path class="st9" d="M379.3,214.4c0,2.4-1.9,4.3-4.3,4.3c-2.4,0-4.3-1.9-4.3-4.3c0-2.4,1.9-4.3,4.3-4.3
		C377.3,210.1,379.3,212,379.3,214.4z"/>
	<path class="st9" d="M345.3,81c0,1.1-0.9,2-2,2c-1.1,0-2-0.9-2-2c0-1.1,0.9-2,2-2C344.4,79,345.3,79.9,345.3,81z"/>
	<path class="st9" d="M39,39.1c0,1.1-0.9,2-2,2s-2-0.9-2-2c0-1.1,0.9-2,2-2S39,38,39,39.1z"/>
	<path class="st9" d="M290,141.3c0,1.1-0.9,2-2,2c-1.1,0-2-0.9-2-2c0-1.1,0.9-2,2-2C289.1,139.3,290,140.2,290,141.3z"/>
	<circle class="st9" cx="39" cy="184.8" r="4.3"/>
	<radialGradient id="SVGID_5_" cx="230.9687" cy="403.3769" r="289.0335" gradientUnits="userSpaceOnUse">
		<stop  offset="0" style="stop-color:#FFFFFF"/>
		<stop  offset="6.145435e-02" style="stop-color:#FFFFE0"/>
		<stop  offset="9.813840e-02" style="stop-color:#FFFFCC"/>
		<stop  offset="0.1744" style="stop-color:#F7FDD8"/>
		<stop  offset="0.3422" style="stop-color:#EAF8EC"/>
		<stop  offset="0.5099" style="stop-color:#E3F6F8"/>
		<stop  offset="0.6764" style="stop-color:#E0F5FC"/>
		<stop  offset="0.8227" style="stop-color:#E2F6FC"/>
		<stop  offset="0.8819" style="stop-color:#E9F8FB"/>
		<stop  offset="0.9163" style="stop-color:#F2FBFA"/>
		<stop  offset="1" style="stop-color:#F2FBFC"/>
	</radialGradient>
	<path class="st10" d="M486.4,344.6c0-23.7-19.2-43-43-43c-23.7,0-43,19.2-43,43c0,3.6,0.4,7,1.3,10.3c-26,0.1-40.1,15.2-42,34.9
		c-1.7-7.6-8.5-13.3-16.7-13.3c-9.5,0-17.1,7.7-17.1,17.1c0,2.7,0.6,5.2,1.7,7.5c-11.1,1.5-20.6,8.1-26,17.5
		c-4.5-5.4-11.3-8.8-18.9-8.8c-11,0-20.3,7.2-23.5,17.1c-2.5-1.7-5.6-2.7-8.9-2.7c-5,0-9.4,2.2-12.4,5.8
		c-3.9-8.1-12.2-13.8-21.9-13.8c-5.6,0-10.8,1.9-14.9,5.2c-3.4-11.9-14.3-20.6-27.3-20.6c-12,0-22.3,7.5-26.4,18
		c-4.6-5.5-11.6-9-19.3-9c-10.8,0-20,6.8-23.6,16.3c-3.3-5.9-9.5-9.9-16.7-9.9c-0.8,0-1.6,0.1-2.4,0.2c0-0.1,0-0.1,0-0.2
		c0-16.8-13.6-30.4-30.4-30.4c-10.4,0-19.5,5.2-25,13.1c-2-8.3-8.5-14.8-16.7-16.8c1.3-2.4,2.1-5.2,2.1-8.1c0-9.4-7.6-17-17-17
		c-9.4,0-17,7.6-17,17c0,6.6,3.8,12.4,9.4,15.2c-3.6,4-5.8,9.3-5.8,15.1c0,9.9,4.5,35.5,4.5,44.8c0,17.3,14,31.2,31.2,31.2
		c5.2,0,10.1-1.3,14.4-3.5c3,1.7,6.4,2.6,10,2.6c6.4,0,12.2-3,15.9-7.6c3.5,4.2,8.8,6.9,14.8,6.9c6.1,0,11.5-2.9,15-7.3
		c3.1,4.5,8.2,7.4,14.1,7.4c3.6,0,7-1.1,9.8-3.1c4.3,5.6,11,9.2,18.6,9.2c8.5,0,15.9-4.5,20-11.3c2.5,1.1,5.4,1.8,8.3,1.8
		c5.5,0,10.5-2.2,14.1-5.7c3.6,3.5,8.4,5.7,13.8,5.7c5.6,0,10.8-2.4,14.6-6.5c4.7-5,4.1-4.3,7.9,0c4.4,4.9,8.7,8.6,15.8,8.6
		c9,0,14.6-8,17.7-15.9c2.6,10.8,9.2,21,21.9,21c8.7,0,16.1-5.3,19.3-12.8c4.1,6.2,11.1,10.3,19.1,10.3c7.5,0,11.1-4.1,17.1-7.2
		c9.1-4.6,17.9,4.6,27.3,4.6c5.6,0,10.7-1.9,14.8-5.1c4.1,1.4,8.5,2.2,13,2.2c4.3,0,8.5-0.7,12.4-2c8.1,3.8,17.1,5.9,26.6,5.9
		c34.7,0,62.8-28.1,62.8-62.8c0-13.5-4.3-26-11.5-36.2C479.2,371.9,486.4,359.1,486.4,344.6z"/>
	<polygon class="st9" points="424.1,282.5 428.3,283.4 424.1,284.2 423.2,291.4 422.3,284.2 418.4,283.4 422.3,282.5 423.2,273.7 	
		"/>
	<polygon class="st9" points="29.3,367.2 33.5,368.1 29.3,368.9 28.4,376.1 27.6,368.9 23.6,368.1 27.6,367.2 28.4,358.4 	"/>
</g>
<g>
	<g>
		<path class="st11" d="M223.8,221.5l-1.7-7.8l-0.4-1.7c-22.5,6.6-20.6,29-19.7,34.8c0.1-5,1-12.6,5-18.2
			C210.2,224.2,215.4,221,223.8,221.5z"/>
		<path class="st11" d="M234.9,221.5l1.7-7.8l0.4-1.7c22.5,6.6,20.6,29,19.7,34.8c-0.1-5-1-12.6-5-18.2
			C248.5,224.2,243.3,221,234.9,221.5z"/>
		<g>
			<path class="st12" d="M217.2,190.9L217.2,190.9c-1.2-5.6-6.2-7.8-11.1-4.8c0,0-10,6.1-15.3,20.2
				C196.8,196.9,207.7,183.5,217.2,190.9z"/>
			<path class="st13" d="M217.2,190.9c-9.5-7.5-20.4,6-26.4,15.4c-3.5,9.4-5,22.3-0.2,39.4c1.5,5.1,3.5,10.6,6.2,16.5
				c3.6,0,6-4.6,5.3-10.3c0,0-0.2-2-0.2-5c-0.9-5.8-2.8-28.3,19.7-34.8l-0.3-1.3L217.2,190.9z"/>
			<path class="st12" d="M268.1,206.8c-5.3-14.5-15.5-20.7-15.5-20.7c-4.6-2.8-9.3-1.1-10.8,3.8
				C251.1,184.8,262.1,197.9,268.1,206.8z"/>
			<path class="st13" d="M241.8,189.9c-0.1,0.3-0.2,0.6-0.3,1l-4.3,19.8l-0.3,1.3c22.5,6.6,20.6,29,19.7,34.8c0.1,3-0.2,5-0.2,5
				c-0.6,5.7,1.8,10.3,5.3,10.3c2.7-5.9,4.7-11.4,6.2-16.5c4.8-16.8,3.4-29.5,0-38.9C262.1,197.9,251.1,184.8,241.8,189.9z"/>
		</g>
	</g>
	<g>
		<linearGradient id="SVGID_6_" gradientUnits="userSpaceOnUse" x1="229.6678" y1="213.6557" x2="229.6678" y2="460.0092">
			<stop  offset="0" style="stop-color:#420A0A"/>
			<stop  offset="3.022895e-02" style="stop-color:#5F0E0E"/>
			<stop  offset="9.013335e-02" style="stop-color:#911616"/>
			<stop  offset="0.1465" style="stop-color:#B91D1C"/>
			<stop  offset="0.1978" style="stop-color:#D62120"/>
			<stop  offset="0.2422" style="stop-color:#E82423"/>
			<stop  offset="0.2747" style="stop-color:#EE2524"/>
			<stop  offset="0.3499" style="stop-color:#F13E31"/>
			<stop  offset="0.5087" style="stop-color:#F87E52"/>
			<stop  offset="0.6617" style="stop-color:#FFC175"/>
			<stop  offset="0.6771" style="stop-color:#FFC77C"/>
			<stop  offset="0.7532" style="stop-color:#FFE29A"/>
			<stop  offset="0.8184" style="stop-color:#FFF3AC"/>
			<stop  offset="0.8647" style="stop-color:#FFF9B3"/>
		</linearGradient>
		<polygon class="st14" points="239.9,227.4 229.7,225 219.5,227.4 193.2,450 229.7,450 266.1,450 		"/>
		<linearGradient id="SVGID_7_" gradientUnits="userSpaceOnUse" x1="229.6675" y1="220.4627" x2="229.6675" y2="461.7155">
			<stop  offset="0.297" style="stop-color:#FF6633"/>
			<stop  offset="0.5212" style="stop-color:#FFFF99"/>
			<stop  offset="1" style="stop-color:#FFFFE6"/>
		</linearGradient>
		<polygon class="st15" points="239.5,450 219.8,450 226.1,228.7 233.3,228.7 		"/>
	</g>
	<path class="st16" d="M250.9,162c1.4-22.1,0.9-39-0.8-51.7c-5.6-4.4-12.7-7.1-20.5-7.1c-7.7,0-14.8,2.7-20.5,7.1
		c-1.7,12.7-2.2,29.5-0.8,51.7c0.2,2.6,0.4,5.2,0.6,7.9h41.2C250.6,167.2,250.7,164.5,250.9,162z"/>
	<g>
		<path class="st17" d="M250.3,169.9h-41.2c0.2,2.4,0.4,4.8,0.7,7.3h39.9C249.9,174.7,250.1,172.3,250.3,169.9z"/>
		<path class="st18" d="M209.7,177.2c0.1,0.6,0.1,1.2,0.2,1.8c8.8,4.4,22.3,5.9,39.5,0.4c0.1-0.8,0.1-1.5,0.2-2.2H209.7z"/>
	</g>
	<path class="st19" d="M209.9,179c0.6,6,1.3,12.4,2.2,19.2l35.1,0.6c0.9-6.8,1.6-13.2,2.2-19.3L209.9,179z"/>
	<path class="st16" d="M212.1,198.2c1.3,10.3,3,21.4,5.1,33.4c0.1,0.7,0.2,1.4,0.4,2.2h12.1h12.1c0.1-0.7,0.2-1.4,0.4-2.1
		c2-11.8,3.7-22.8,5-33C231.1,191.7,218.8,195,212.1,198.2z"/>
	<g>
		<path class="st13" d="M247.9,97.7c-1.3-5.3-2.7-9.6-4.3-13c-4.2-2-8.9-3.1-13.9-3.1c-5,0-9.7,1.1-13.9,3.1
			c-1.6,3.5-3.1,7.7-4.3,13c-0.9,3.7-1.7,7.9-2.3,12.6c5.6-4.4,12.7-7.1,20.5-7.1c7.7,0,14.8,2.7,20.5,7.1
			C249.5,105.5,248.8,101.4,247.9,97.7z"/>
		<path class="st19" d="M229.7,70.3c0,0-7.6,0.5-13.9,14.3c4.2-2,8.9-3.1,13.9-3.1c5,0,9.7,1.1,13.9,3.1
			C237.3,70.8,229.7,70.3,229.7,70.3z"/>
	</g>
	<path class="st20" d="M228.3,72.4c-2.9,0-9.7,7.9-13.9,23c-8.4,29.8-5.2,68.9-1.3,98.3c0.9,7.2,5.7,37.4,5.7,37.4h8
		C226.7,231.1,237.4,72.4,228.3,72.4z"/>
	<path class="st13" d="M231.7,258.1c0,2.3-0.2,4.1-2,4.1l0,0c-1.5,0-2-1.8-2-4.1l-4.2-71c0-2.3,3.9-4.1,6.2-4.1l0,0
		c2.3,0,6.2,1.8,6.2,4.1L231.7,258.1z"/>
	<g>
		<path class="st18" d="M236.8,156.8c0,3.8-3,6.8-6.8,6.8c-3.8,0-6.8-3-6.8-6.8c0-3.8,3-6.8,6.8-6.8
			C233.8,150,236.8,153,236.8,156.8z"/>
		<path class="st13" d="M236.5,156.2c0,3.8-3,6.8-6.8,6.8c-3.8,0-6.8-3-6.8-6.8c0-3.8,3-6.8,6.8-6.8
			C233.5,149.4,236.5,152.4,236.5,156.2z"/>
		<path class="st21" d="M234.6,156.2c0,2.7-2.2,4.9-4.9,4.9c-2.7,0-4.9-2.2-4.9-4.9c0-2.7,2.2-4.9,4.9-4.9
			C232.4,151.3,234.6,153.5,234.6,156.2z"/>
		<g class="st22">
			<path class="st23" d="M233.3,152.9c-0.9-1-2.2-1.6-3.6-1.6c-2.7,0-4.9,2.2-4.9,4.9c0,0.5,0.1,1,0.2,1.4
				C225.6,155.9,227.5,152.5,233.3,152.9z"/>
		</g>
		<path class="st24" d="M228.2,156.5c0,0.4-0.4,0.8-0.8,0.8c-0.4,0-0.8-0.4-0.8-0.8c0-0.4,0.4-0.8,0.8-0.8
			C227.8,155.7,228.2,156,228.2,156.5z"/>
	</g>
	<g>
		<path class="st18" d="M245.6,128c0,8.4-6.8,15.2-15.2,15.2c-8.4,0-15.2-6.8-15.2-15.2c0-8.4,6.8-15.2,15.2-15.2
			C238.8,112.8,245.6,119.6,245.6,128z"/>
		<path class="st13" d="M244.9,126.7c0,8.4-6.8,15.2-15.2,15.2c-8.4,0-15.2-6.8-15.2-15.2c0-8.4,6.8-15.2,15.2-15.2
			C238.1,111.5,244.9,118.3,244.9,126.7z"/>
		<path class="st21" d="M240.6,126.7c0,6-4.9,10.9-10.9,10.9c-6,0-10.9-4.9-10.9-10.9c0-6,4.9-10.9,10.9-10.9
			C235.7,115.7,240.6,120.6,240.6,126.7z"/>
		<g class="st22">
			<path class="st23" d="M237.8,119.4c-2-2.2-4.9-3.7-8.1-3.7c-6,0-10.9,4.9-10.9,10.9c0,1.1,0.2,2.2,0.5,3.2
				C220.6,126,224.8,118.4,237.8,119.4z"/>
		</g>
		<path class="st24" d="M228.6,122.8c0,1.2-0.9,2.1-2.1,2.1c-1.2,0-2.1-0.9-2.1-2.1c0-1.2,0.9-2.1,2.1-2.1
			C227.7,120.7,228.6,121.7,228.6,122.8z"/>
		<path class="st24" d="M225.4,127.8c0,0.7-0.6,1.3-1.3,1.3c-0.7,0-1.3-0.6-1.3-1.3c0-0.7,0.6-1.3,1.3-1.3
			C224.8,126.5,225.4,127.1,225.4,127.8z"/>
	</g>
	<g>
		<path class="st25" d="M230.7,100.4c0,0.5-0.4,0.9-0.9,0.9c-0.5,0-0.9-0.4-0.9-0.9c0-0.5,0.4-0.9,0.9-0.9
			C230.2,99.5,230.7,99.9,230.7,100.4z"/>
		<path class="st19" d="M230.5,100.4c0,0.4-0.3,0.8-0.8,0.8c-0.4,0-0.8-0.3-0.8-0.8c0-0.4,0.3-0.8,0.8-0.8
			C230.1,99.6,230.5,100,230.5,100.4z"/>
	</g>
	<g>
		<path class="st25" d="M236.2,101c0,0.5-0.4,0.9-1,0.9c-0.5,0-0.9-0.4-0.9-0.9c0-0.5,0.4-0.9,0.9-0.9
			C235.8,100,236.2,100.5,236.2,101z"/>
		<path class="st19" d="M236,101c0,0.4-0.3,0.8-0.8,0.8c-0.4,0-0.8-0.3-0.8-0.8c0-0.4,0.3-0.8,0.8-0.8
			C235.7,100.2,236,100.6,236,101z"/>
	</g>
	<g>
		<path class="st25" d="M241.5,102.2c0,0.5-0.4,0.9-0.9,0.9c-0.5,0-1-0.4-1-0.9c0-0.5,0.4-0.9,1-0.9
			C241.1,101.2,241.5,101.6,241.5,102.2z"/>
		<path class="st19" d="M241.3,102.2c0,0.4-0.3,0.8-0.8,0.8c-0.4,0-0.8-0.3-0.8-0.8s0.3-0.8,0.8-0.8
			C241,101.4,241.3,101.7,241.3,102.2z"/>
	</g>
	<g>
		<path class="st25" d="M246.5,104.3c0,0.5-0.4,0.9-0.9,0.9c-0.5,0-0.9-0.4-0.9-0.9c0-0.5,0.4-0.9,0.9-0.9
			C246.1,103.3,246.5,103.7,246.5,104.3z"/>
		<path class="st19" d="M246.3,104.3c0,0.4-0.3,0.8-0.8,0.8c-0.4,0-0.8-0.3-0.8-0.8c0-0.4,0.3-0.8,0.8-0.8
			C246,103.5,246.3,103.8,246.3,104.3z"/>
	</g>
	<g>
		<path class="st25" d="M222.9,101c0,0.5,0.4,0.9,0.9,0.9c0.5,0,0.9-0.4,0.9-0.9c0-0.5-0.4-0.9-0.9-0.9
			C223.3,100,222.9,100.5,222.9,101z"/>
		<path class="st19" d="M223.1,101c0,0.4,0.3,0.8,0.8,0.8c0.4,0,0.8-0.3,0.8-0.8c0-0.4-0.3-0.8-0.8-0.8
			C223.4,100.2,223.1,100.6,223.1,101z"/>
	</g>
	<g>
		<path class="st25" d="M217.6,102.2c0,0.5,0.4,0.9,0.9,0.9c0.5,0,0.9-0.4,0.9-0.9c0-0.5-0.4-0.9-0.9-0.9
			C218,101.2,217.6,101.6,217.6,102.2z"/>
		<path class="st19" d="M217.8,102.2c0,0.4,0.3,0.8,0.8,0.8c0.4,0,0.8-0.3,0.8-0.8s-0.3-0.8-0.8-0.8
			C218.1,101.4,217.8,101.7,217.8,102.2z"/>
	</g>
	<g>
		<path class="st25" d="M212.6,104.3c0,0.5,0.4,0.9,0.9,0.9c0.5,0,0.9-0.4,0.9-0.9c0-0.5-0.4-0.9-0.9-0.9
			C213.1,103.3,212.6,103.7,212.6,104.3z"/>
		<path class="st19" d="M212.8,104.3c0,0.4,0.3,0.8,0.8,0.8c0.4,0,0.8-0.3,0.8-0.8c0-0.4-0.3-0.8-0.8-0.8
			C213.2,103.5,212.8,103.8,212.8,104.3z"/>
	</g>
	<g>
		<path class="st25" d="M213,171.7c0,0.5-0.4,0.9-0.9,0.9c-0.5,0-0.9-0.4-0.9-0.9c0-0.5,0.4-0.9,0.9-0.9
			C212.6,170.8,213,171.2,213,171.7z"/>
		<path class="st19" d="M212.8,171.7c0,0.4-0.3,0.8-0.8,0.8c-0.4,0-0.8-0.3-0.8-0.8c0-0.4,0.3-0.8,0.8-0.8
			C212.5,171,212.8,171.3,212.8,171.7z"/>
	</g>
	<g>
		<path class="st25" d="M216.9,171.7c0,0.5-0.4,0.9-0.9,0.9c-0.5,0-0.9-0.4-0.9-0.9c0-0.5,0.4-0.9,0.9-0.9
			C216.5,170.8,216.9,171.2,216.9,171.7z"/>
		<path class="st19" d="M216.8,171.7c0,0.4-0.3,0.8-0.8,0.8c-0.4,0-0.8-0.3-0.8-0.8c0-0.4,0.3-0.8,0.8-0.8
			C216.4,171,216.8,171.3,216.8,171.7z"/>
	</g>
	<g>
		<path class="st25" d="M220.8,171.7c0,0.5-0.4,0.9-0.9,0.9c-0.5,0-0.9-0.4-0.9-0.9c0-0.5,0.4-0.9,0.9-0.9
			C220.4,170.8,220.8,171.2,220.8,171.7z"/>
		<path class="st19" d="M220.7,171.7c0,0.4-0.3,0.8-0.8,0.8c-0.4,0-0.8-0.3-0.8-0.8c0-0.4,0.3-0.8,0.8-0.8
			C220.3,171,220.7,171.3,220.7,171.7z"/>
	</g>
	<g>
		<path class="st25" d="M224.7,171.7c0,0.5-0.4,0.9-0.9,0.9c-0.5,0-0.9-0.4-0.9-0.9c0-0.5,0.4-0.9,0.9-0.9
			C224.3,170.8,224.7,171.2,224.7,171.7z"/>
		<path class="st19" d="M224.6,171.7c0,0.4-0.3,0.8-0.8,0.8c-0.4,0-0.8-0.3-0.8-0.8c0-0.4,0.3-0.8,0.8-0.8
			C224.2,171,224.6,171.3,224.6,171.7z"/>
	</g>
	<g>
		<path class="st25" d="M228.6,171.7c0,0.5-0.4,0.9-0.9,0.9c-0.5,0-0.9-0.4-0.9-0.9c0-0.5,0.4-0.9,0.9-0.9
			C228.2,170.8,228.6,171.2,228.6,171.7z"/>
		<path class="st19" d="M228.5,171.7c0,0.4-0.3,0.8-0.8,0.8c-0.4,0-0.8-0.3-0.8-0.8c0-0.4,0.3-0.8,0.8-0.8
			C228.1,171,228.5,171.3,228.5,171.7z"/>
	</g>
	<g>
		<path class="st25" d="M232.5,171.7c0,0.5-0.4,0.9-0.9,0.9c-0.5,0-0.9-0.4-0.9-0.9c0-0.5,0.4-0.9,0.9-0.9
			C232.1,170.8,232.5,171.2,232.5,171.7z"/>
		<path class="st19" d="M232.4,171.7c0,0.4-0.3,0.8-0.8,0.8c-0.4,0-0.8-0.3-0.8-0.8c0-0.4,0.3-0.8,0.8-0.8
			C232,171,232.4,171.3,232.4,171.7z"/>
	</g>
	<g>
		<path class="st25" d="M236.5,171.7c0,0.5-0.4,0.9-0.9,0.9c-0.5,0-0.9-0.4-0.9-0.9c0-0.5,0.4-0.9,0.9-0.9
			C236,170.8,236.5,171.2,236.5,171.7z"/>
		<path class="st19" d="M236.3,171.7c0,0.4-0.3,0.8-0.8,0.8c-0.4,0-0.8-0.3-0.8-0.8c0-0.4,0.3-0.8,0.8-0.8
			C235.9,171,236.3,171.3,236.3,171.7z"/>
	</g>
	<g>
		<path class="st25" d="M240.4,171.7c0,0.5-0.4,0.9-0.9,0.9c-0.5,0-0.9-0.4-0.9-0.9c0-0.5,0.4-0.9,0.9-0.9
			C239.9,170.8,240.4,171.2,240.4,171.7z"/>
		<path class="st19" d="M240.2,171.7c0,0.4-0.3,0.8-0.8,0.8c-0.4,0-0.8-0.3-0.8-0.8c0-0.4,0.3-0.8,0.8-0.8
			C239.8,171,240.2,171.3,240.2,171.7z"/>
	</g>
	<g>
		<path class="st25" d="M244.3,171.7c0,0.5-0.4,0.9-0.9,0.9c-0.5,0-0.9-0.4-0.9-0.9c0-0.5,0.4-0.9,0.9-0.9
			C243.8,170.8,244.3,171.2,244.3,171.7z"/>
		<path class="st19" d="M244.1,171.7c0,0.4-0.3,0.8-0.8,0.8c-0.4,0-0.8-0.3-0.8-0.8c0-0.4,0.3-0.8,0.8-0.8
			C243.7,171,244.1,171.3,244.1,171.7z"/>
	</g>
	<g>
		<path class="st25" d="M248.2,171.7c0,0.5-0.4,0.9-0.9,0.9c-0.5,0-0.9-0.4-0.9-0.9c0-0.5,0.4-0.9,0.9-0.9
			C247.7,170.8,248.2,171.2,248.2,171.7z"/>
		<path class="st19" d="M248,171.7c0,0.4-0.3,0.8-0.8,0.8c-0.4,0-0.8-0.3-0.8-0.8c0-0.4,0.3-0.8,0.8-0.8
			C247.6,171,248,171.3,248,171.7z"/>
	</g>
	<path class="st12" d="M234.1,187.4c0,1.4-2,16-4.4,16c-2.4,0-4.4-14.6-4.4-16c0-1.4,2-3.3,4.4-3.3
		C232.1,184,234.1,185.9,234.1,187.4z"/>
</g>
</svg>
