<?xml version="1.0" encoding="utf-8"?>
<!-- Generator: Adobe Illustrator 22.0.0, SVG Export Plug-In . SVG Version: 6.00 Build 0)  -->
<svg version="1.1" id="Layer_1" xmlns="http://www.w3.org/2000/svg" xmlns:xlink="http://www.w3.org/1999/xlink" x="0px" y="0px"
	 viewBox="0 0 104 388" style="enable-background:new 0 0 104 388;" xml:space="preserve">
<style type="text/css">
	.st0{display:none;}
	.st1{display:inline;}
	.st2{clip-path:url(#SVGID_2_);fill:url(#SVGID_3_);}
	.st3{clip-path:url(#SVGID_5_);}
	.st4{opacity:0.15;fill:#FFFFFF;enable-background:new    ;}
	.st5{clip-path:url(#SVGID_7_);fill:url(#SVGID_8_);}
	.st6{clip-path:url(#SVGID_10_);fill:#A0E0EF;}
	.st7{clip-path:url(#SVGID_12_);fill:#BAEAF2;}
	.st8{clip-path:url(#SVGID_14_);fill:#FFDF6E;}
	.st9{clip-path:url(#SVGID_16_);fill:#FEFEC9;}
	.st10{clip-path:url(#SVGID_18_);fill:#FEFEC9;}
	.st11{clip-path:url(#SVGID_20_);fill:#FEFEC9;}
	.st12{clip-path:url(#SVGID_22_);fill:#FEFEC9;}
	.st13{clip-path:url(#SVGID_24_);fill:#FEFEC9;}
	.st14{clip-path:url(#SVGID_26_);fill:#FEFEC9;}
	.st15{clip-path:url(#SVGID_28_);fill:#FEFEC9;}
	.st16{clip-path:url(#SVGID_30_);fill:#FEFEC9;}
	.st17{clip-path:url(#SVGID_32_);fill:#FEFEC9;}
	.st18{clip-path:url(#SVGID_34_);fill:#FEFEC9;}
	.st19{clip-path:url(#SVGID_36_);fill:#FEFEC9;}
	.st20{clip-path:url(#SVGID_38_);fill:#FEFEC9;}
	.st21{clip-path:url(#SVGID_40_);fill:#FEFEC9;}
	.st22{clip-path:url(#SVGID_42_);fill:#FEFEC9;}
	.st23{clip-path:url(#SVGID_44_);fill:#FEFEC9;}
	.st24{clip-path:url(#SVGID_46_);fill:#FEFEC9;}
	.st25{clip-path:url(#SVGID_48_);fill:#FEFEC9;}
	.st26{clip-path:url(#SVGID_50_);fill:#FEFEC9;}
	.st27{clip-path:url(#SVGID_52_);fill:#FEFEC9;}
	.st28{clip-path:url(#SVGID_54_);fill:#FEFEC9;}
	.st29{clip-path:url(#SVGID_56_);fill:#FEFEC9;}
	.st30{clip-path:url(#SVGID_58_);fill:#FEFEC9;}
	.st31{clip-path:url(#SVGID_60_);fill:#FEFEC9;}
	.st32{clip-path:url(#SVGID_62_);fill:url(#SVGID_63_);}
	.st33{clip-path:url(#SVGID_65_);fill:#FEFEC9;}
	.st34{clip-path:url(#SVGID_67_);fill:#FEFEC9;}
	.st35{fill:#591F2A;}
	.st36{fill:#EB4764;}
	.st37{fill:#BE2843;}
	.st38{fill:url(#SVGID_68_);}
	.st39{fill:url(#SVGID_69_);}
	.st40{fill:#F8EBC4;}
	.st41{fill:#8C1E31;}
	.st42{fill:#541823;}
	.st43{fill:#FFB261;}
	.st44{opacity:0.25;fill:#FFFCA0;enable-background:new    ;}
	.st45{fill:#A1E0FF;}
	.st46{opacity:0.65;}
	.st47{fill:#66CCFF;}
	.st48{fill:#FFFFFF;}
	.st49{fill:#CC8B96;}
</style>
<g class="st0">
	<g class="st1">
		<defs>
			<rect id="SVGID_1_" x="-178" y="-62" width="450" height="450"/>
		</defs>
		<clipPath id="SVGID_2_">
			<use xlink:href="#SVGID_1_"  style="overflow:visible;"/>
		</clipPath>
		
			<linearGradient id="SVGID_3_" gradientUnits="userSpaceOnUse" x1="-143.1626" y1="401.7921" x2="248.3178" y2="-85.6826" gradientTransform="matrix(1 0 0 -1 0 328)">
			<stop  offset="0.2484" style="stop-color:#00A2A9"/>
			<stop  offset="0.5144" style="stop-color:#00858A"/>
			<stop  offset="0.8007" style="stop-color:#028489"/>
			<stop  offset="0.9037" style="stop-color:#097F85"/>
			<stop  offset="0.9769" style="stop-color:#14787D"/>
			<stop  offset="1" style="stop-color:#1A747A"/>
		</linearGradient>
		<rect x="-178" y="-62" class="st2" width="450" height="450"/>
	</g>
	<g class="st1">
		<defs>
			<rect id="SVGID_4_" x="-178" y="-62" width="450" height="450"/>
		</defs>
		<clipPath id="SVGID_5_">
			<use xlink:href="#SVGID_4_"  style="overflow:visible;"/>
		</clipPath>
		<g class="st3">
			<circle class="st4" cx="-30.3" cy="-1.1" r="252.2"/>
			<circle class="st4" cx="-64.1" cy="-47.8" r="252.2"/>
			<ellipse class="st4" cx="-92.1" cy="-90.3" rx="252.2" ry="252.2"/>
		</g>
	</g>
	<g class="st1">
		<defs>
			<rect id="SVGID_6_" x="-178" y="-62" width="450" height="450"/>
		</defs>
		<clipPath id="SVGID_7_">
			<use xlink:href="#SVGID_6_"  style="overflow:visible;"/>
		</clipPath>
		
			<linearGradient id="SVGID_8_" gradientUnits="userSpaceOnUse" x1="168.2165" y1="76.8674" x2="306.3386" y2="-42.1718" gradientTransform="matrix(1 0 0 -1 0 328)">
			<stop  offset="0" style="stop-color:#7CE1EE"/>
			<stop  offset="0.2999" style="stop-color:#A6E0EE"/>
			<stop  offset="0.4734" style="stop-color:#BADFEE"/>
			<stop  offset="0.8424" style="stop-color:#D4EFFA"/>
		</linearGradient>
		<path class="st5" d="M254.8,133.9c-10.4,14.1-7.5,34,6.6,44.5c0.3,0.2,0.6,0.4,0.9,0.7c-1.7,1.1-3.3,2.5-4.6,4.2
			c-3.4,4.6-4.1,10.5-2.4,15.6c-10-4-21.9-1-28.6,8.1c-3.1,4.2-4.6,9-4.8,13.8c-15-3.5-31.4,2-41.1,15.2
			c-13.1,17.7-9.4,42.7,8.3,55.9c1.6,1.2,3.3,2.3,5,3.2c-8-0.1-15.9,3.5-21.1,10.5c-4.7,6.4-6.1,14.2-4.4,21.3
			c-13.8-6.2-30.5-2.2-39.9,10.4c-10.8,14.6-7.7,35.1,6.9,45.9c0.6,0.5,1.3,0.9,1.9,1.3c-5.3,0.7-10.2,3.5-13.6,8.1
			c-4.4,5.9-5.1,13.4-2.6,19.7c-10-1.3-20.4,2.8-26.8,11.5c-3.3,4.5,185.3,18.9,214.6-42.5c38.8-81.3,4-243.4-10.1-253.9
			C285.1,116.8,265.2,119.7,254.8,133.9z"/>
	</g>
	<g class="st1">
		<defs>
			<rect id="SVGID_9_" x="-178" y="-62" width="450" height="450"/>
		</defs>
		<clipPath id="SVGID_10_">
			<use xlink:href="#SVGID_9_"  style="overflow:visible;"/>
		</clipPath>
		<path class="st6" d="M235.8,374.6c12.5-20.2,6.2-46.7-14-59.1c-20.2-12.5-46.7-6.2-59.1,14c-1.9,3-3.3,6.2-4.4,9.5
			c-22.2-13.6-42.1-8.1-54.1,7.7c2.5-7.4-0.3-15.8-7.2-20.1c-8-5-18.6-2.5-23.6,5.6c-1.4,2.3-2.2,4.8-2.4,7.3
			c-10.3-4.6-21.8-3.9-31.3,1.3c-1-6.9-5-13.4-11.4-17.4c-9.4-5.8-21-4.5-29,2.3c-1.3-2.8-3.4-5.2-6.2-6.9c-4.2-2.6-9.2-3-13.5-1.6
			c0.9-9-3.2-18.1-11.4-23.2c-4.8-3-10.2-4-15.4-3.4c3.4-11.9-1.4-25.1-12.4-31.9c-10.2-6.3-22.9-5.3-32,1.5
			c-1-7.1-5.1-13.7-11.7-17.8c-9.2-5.7-20.6-4.7-28.7,1.5c0.3-6.7-2.9-13.4-9.1-17.2c-0.7-0.4-1.4-0.8-2.1-1.1l0.1-0.1
			c8.8-14.3,4.4-33.1-9.9-41.9c-8.8-5.4-19.3-5.8-28.2-2c2.6-8.1,0.5-17-5.4-23.1c2.4-1.4,4.5-3.3,6-5.8c4.9-8,2.4-18.4-5.5-23.4
			c-8-4.9-18.4-2.4-23.4,5.5c-3.5,5.7-3.2,12.5,0,17.8c-5.2,1.6-9.8,4.9-12.8,9.8c-5.2,8.4-14.8,32.6-19.7,40.5
			c-9.1,14.7-4.5,33.9,10.2,43c4.4,2.7,9.2,4.2,14.1,4.6c1.7,3,4.1,5.6,7.2,7.5c5.5,3.4,11.9,3.9,17.5,1.9
			c0.8,5.5,3.9,10.5,8.9,13.6c5.2,3.2,11.3,3.6,16.7,1.7c0.3,5.4,3.1,10.6,8.1,13.7c3.1,1.9,6.6,2.7,9.9,2.5c0.7,7,4.5,13.6,11,17.6
			c7.2,4.4,15.9,4.5,22.9,0.9c1.6,2.3,3.6,4.3,6.2,5.9c4.7,2.9,10,3.6,15,2.6c1.2,4.9,4.2,9.3,8.8,12.1c4.8,2.9,10.4,3.6,15.8,2.1
			c6.6-1.8,5.7-1.5,6.8,4.2c1.2,6.5,2.9,11.9,8.9,15.6c7.7,4.7,16.6,0.9,23.4-4.2c-3.5,10.6-3.2,22.7,7.6,29.3
			c7.4,4.5,16.5,4,23.1-0.7c0.2,7.4,4.1,14.6,10.9,18.8c6.4,3.9,11.6,2.3,18.4,2.8c10.1,0.8,12.9,13.3,20.8,18.2
			c4.7,2.9,10.1,4,15.2,3.5c2.7,3.3,6.1,6.3,9.9,8.7c3.7,2.3,7.6,3.9,11.6,4.8c4.9,7.5,11.4,14,19.5,19c29.5,18.2,68.2,9,86.5-20.5
			c7.1-11.5,10-24.4,9.2-36.9C215.3,394.1,228.2,387,235.8,374.6z"/>
	</g>
	<g class="st1">
		<defs>
			<rect id="SVGID_11_" x="-178" y="-62" width="450" height="450"/>
		</defs>
		<clipPath id="SVGID_12_">
			<use xlink:href="#SVGID_11_"  style="overflow:visible;"/>
		</clipPath>
		<path class="st7" d="M256.7,249.6c-17.6,0-31.8,14.2-31.8,31.8c0,0.4,0,0.8,0,1.2c-1.9-0.7-4-1.2-6.1-1.2
			c-5.8,0-10.9,2.9-13.9,7.3c-2.7-10.5-12.2-18.2-23.5-18.2c-5.2,0-10,1.6-13.9,4.4c-6.1-14.1-20.2-24-36.7-24
			c-22.1,0-39.9,17.9-39.9,39.9c0,2,0.2,4,0.4,5.9c-4.7-6.5-12.3-10.7-21-10.7c-7.9,0-15,3.6-19.8,9.2
			c-3.2-14.8-16.3-25.9-32.1-25.9c-18.1,0-32.8,14.7-32.8,32.8c0,0.8,0,1.6,0.1,2.3c-3.7-3.8-8.9-6.1-14.6-6.1
			c-7.3,0-13.8,3.9-17.4,9.7c-4.9-8.8-14.4-14.8-25.2-14.8c-5.6,0-10.8,1.6-15.2,4.3c-2.5-24.4-23.3-43.5-48.5-43.5
			c-6.6,0-12.8,1.3-18.6,3.7c0-0.4,0.1-0.7,0.1-1.1c0-11.3-9.2-20.5-20.5-20.5s-20.5,9.2-20.5,20.5c0,4.9,1.7,9.4,4.6,12.9
			c-2.9,3.5-4.6,8-4.6,12.9c0,7.8-11.7,160.2,15.2,160.2c13.8,0,422.7-3.2,454.7-3.2c17.6,0,13.2-140.3,13.2-157.9
			C288.5,263.8,274.2,249.6,256.7,249.6z"/>
	</g>
	<g class="st1">
		<defs>
			<rect id="SVGID_13_" x="-178" y="-62" width="450" height="450"/>
		</defs>
		<clipPath id="SVGID_14_">
			<use xlink:href="#SVGID_13_"  style="overflow:visible;"/>
		</clipPath>
		<circle class="st8" cx="-66.5" cy="-4.3" r="21"/>
	</g>
	<g class="st1">
		<defs>
			<rect id="SVGID_15_" x="-178" y="-62" width="450" height="450"/>
		</defs>
		<clipPath id="SVGID_16_">
			<use xlink:href="#SVGID_15_"  style="overflow:visible;"/>
		</clipPath>
		<polygon class="st9" points="190.2,64.8 196.4,67.1 190.2,69.4 187.9,75.6 185.5,69.4 179.4,67.1 185.5,64.8 187.9,58.6 		"/>
	</g>
	<g class="st1">
		<defs>
			<rect id="SVGID_17_" x="-178" y="-62" width="450" height="450"/>
		</defs>
		<clipPath id="SVGID_18_">
			<use xlink:href="#SVGID_17_"  style="overflow:visible;"/>
		</clipPath>
		<polygon class="st10" points="-147.1,39.2 -141,41.5 -147.1,43.8 -149.5,50 -151.8,43.8 -158,41.5 -151.8,39.2 -149.5,33 		"/>
	</g>
	<g class="st1">
		<defs>
			<rect id="SVGID_19_" x="-178" y="-62" width="450" height="450"/>
		</defs>
		<clipPath id="SVGID_20_">
			<use xlink:href="#SVGID_19_"  style="overflow:visible;"/>
		</clipPath>
		<polygon class="st11" points="147.8,146.4 150.7,147 147.8,147.6 147.2,152.5 146.6,147.6 143.9,147 146.6,146.4 147.2,140.4 		
			"/>
	</g>
	<g class="st1">
		<defs>
			<rect id="SVGID_21_" x="-178" y="-62" width="450" height="450"/>
		</defs>
		<clipPath id="SVGID_22_">
			<use xlink:href="#SVGID_21_"  style="overflow:visible;"/>
		</clipPath>
		<polygon class="st12" points="126.8,-28.9 129.7,-28.3 126.8,-27.8 126.2,-22.9 125.6,-27.8 122.9,-28.3 125.6,-28.9 126.2,-35 		
			"/>
	</g>
	<g class="st1">
		<defs>
			<rect id="SVGID_23_" x="-178" y="-62" width="450" height="450"/>
		</defs>
		<clipPath id="SVGID_24_">
			<use xlink:href="#SVGID_23_"  style="overflow:visible;"/>
		</clipPath>
		<polygon class="st13" points="-65.7,275.5 -61.5,276.4 -65.7,277.3 -66.6,284.4 -67.4,277.3 -71.4,276.4 -67.4,275.5 -66.6,266.8 
					"/>
	</g>
	<g class="st1">
		<defs>
			<rect id="SVGID_25_" x="-178" y="-62" width="450" height="450"/>
		</defs>
		<clipPath id="SVGID_26_">
			<use xlink:href="#SVGID_25_"  style="overflow:visible;"/>
		</clipPath>
		<polygon class="st14" points="-66,85.3 -63.1,85.9 -66,86.5 -66.6,91.4 -67.2,86.5 -69.9,85.9 -67.2,85.3 -66.6,79.3 		"/>
	</g>
	<g class="st1">
		<defs>
			<rect id="SVGID_27_" x="-178" y="-62" width="450" height="450"/>
		</defs>
		<clipPath id="SVGID_28_">
			<use xlink:href="#SVGID_27_"  style="overflow:visible;"/>
		</clipPath>
		<polygon class="st15" points="1.7,-4.3 4.5,-3.8 1.7,-3.2 1.1,1.7 0.5,-3.2 -2.2,-3.8 0.5,-4.3 1.1,-10.4 		"/>
	</g>
	<g class="st1">
		<defs>
			<rect id="SVGID_29_" x="-178" y="-62" width="450" height="450"/>
		</defs>
		<clipPath id="SVGID_30_">
			<use xlink:href="#SVGID_29_"  style="overflow:visible;"/>
		</clipPath>
		<polygon class="st16" points="241.4,7 245.3,8.4 241.4,9.9 240,13.7 238.6,9.9 234.7,8.4 238.6,7 240,3.1 		"/>
	</g>
	<g class="st1">
		<defs>
			<rect id="SVGID_31_" x="-178" y="-62" width="450" height="450"/>
		</defs>
		<clipPath id="SVGID_32_">
			<use xlink:href="#SVGID_31_"  style="overflow:visible;"/>
		</clipPath>
		<polygon class="st17" points="-34.2,315.8 -30.6,317.1 -34.2,318.5 -35.6,322.2 -36.9,318.5 -40.6,317.1 -36.9,315.8 -35.6,312.1 
					"/>
	</g>
	<g class="st1">
		<defs>
			<rect id="SVGID_33_" x="-178" y="-62" width="450" height="450"/>
		</defs>
		<clipPath id="SVGID_34_">
			<use xlink:href="#SVGID_33_"  style="overflow:visible;"/>
		</clipPath>
		<polygon class="st18" points="-28.1,189.7 -23,191.6 -28.1,193.5 -30,198.6 -31.9,193.5 -37,191.6 -31.9,189.7 -30,184.7 		"/>
	</g>
	<g class="st1">
		<defs>
			<rect id="SVGID_35_" x="-178" y="-62" width="450" height="450"/>
		</defs>
		<clipPath id="SVGID_36_">
			<use xlink:href="#SVGID_35_"  style="overflow:visible;"/>
		</clipPath>
		<polygon class="st19" points="113.1,307 114.9,307.7 113.1,308.4 112.5,310.2 111.8,308.4 110,307.7 111.8,307 112.5,305.3 		"/>
	</g>
	<g class="st1">
		<defs>
			<rect id="SVGID_37_" x="-178" y="-62" width="450" height="450"/>
		</defs>
		<clipPath id="SVGID_38_">
			<use xlink:href="#SVGID_37_"  style="overflow:visible;"/>
		</clipPath>
		<polygon class="st20" points="-114.4,60.2 -112.6,60.8 -114.4,61.5 -115.1,63.3 -115.7,61.5 -117.5,60.8 -115.7,60.2 -115.1,58.4 
					"/>
	</g>
	<g class="st1">
		<defs>
			<rect id="SVGID_39_" x="-178" y="-62" width="450" height="450"/>
		</defs>
		<clipPath id="SVGID_40_">
			<use xlink:href="#SVGID_39_"  style="overflow:visible;"/>
		</clipPath>
		<polygon class="st21" points="-111.9,189.3 -110.1,190 -111.9,190.6 -112.6,192.4 -113.3,190.6 -115.1,190 -113.3,189.3 
			-112.6,187.5 		"/>
	</g>
	<g class="st1">
		<defs>
			<rect id="SVGID_41_" x="-178" y="-62" width="450" height="450"/>
		</defs>
		<clipPath id="SVGID_42_">
			<use xlink:href="#SVGID_41_"  style="overflow:visible;"/>
		</clipPath>
		<polygon class="st22" points="-15.8,266.1 -14,266.8 -15.8,267.4 -16.4,269.2 -17.1,267.4 -18.9,266.8 -17.1,266.1 -16.4,264.3 		
			"/>
	</g>
	<g class="st1">
		<defs>
			<rect id="SVGID_43_" x="-178" y="-62" width="450" height="450"/>
		</defs>
		<clipPath id="SVGID_44_">
			<use xlink:href="#SVGID_43_"  style="overflow:visible;"/>
		</clipPath>
		<polygon class="st23" points="115.6,219.9 117.4,220.6 115.6,221.2 114.9,223 114.2,221.2 112.5,220.6 114.2,219.9 114.9,218.1 		
			"/>
	</g>
	<g class="st1">
		<defs>
			<rect id="SVGID_45_" x="-178" y="-62" width="450" height="450"/>
		</defs>
		<clipPath id="SVGID_46_">
			<use xlink:href="#SVGID_45_"  style="overflow:visible;"/>
		</clipPath>
		<polygon class="st24" points="208.4,-26 210.2,-25.3 208.4,-24.6 207.8,-22.9 207.1,-24.6 205.3,-25.3 207.1,-26 207.8,-27.8 		
			"/>
	</g>
	<g class="st1">
		<defs>
			<rect id="SVGID_47_" x="-178" y="-62" width="450" height="450"/>
		</defs>
		<clipPath id="SVGID_48_">
			<use xlink:href="#SVGID_47_"  style="overflow:visible;"/>
		</clipPath>
		<polygon class="st25" points="166.5,231.7 169.7,232.9 166.5,234.1 165.3,237.4 164.1,234.1 160.9,232.9 164.1,231.7 165.3,228.5 
					"/>
	</g>
	<g class="st1">
		<defs>
			<rect id="SVGID_49_" x="-178" y="-62" width="450" height="450"/>
		</defs>
		<clipPath id="SVGID_50_">
			<use xlink:href="#SVGID_49_"  style="overflow:visible;"/>
		</clipPath>
		<path class="st26" d="M-63.3,146.4c0,1.2-1,2.1-2.1,2.1s-2.1-1-2.1-2.1s1-2.1,2.1-2.1S-63.3,145.2-63.3,146.4z"/>
	</g>
	<g class="st1">
		<defs>
			<rect id="SVGID_51_" x="-178" y="-62" width="450" height="450"/>
		</defs>
		<clipPath id="SVGID_52_">
			<use xlink:href="#SVGID_51_"  style="overflow:visible;"/>
		</clipPath>
		<path class="st27" d="M201.3,152.4c0,2.4-1.9,4.3-4.3,4.3s-4.3-1.9-4.3-4.3c0-2.4,1.9-4.3,4.3-4.3
			C199.3,148.1,201.3,150,201.3,152.4z"/>
	</g>
	<g class="st1">
		<defs>
			<rect id="SVGID_53_" x="-178" y="-62" width="450" height="450"/>
		</defs>
		<clipPath id="SVGID_54_">
			<use xlink:href="#SVGID_53_"  style="overflow:visible;"/>
		</clipPath>
		<path class="st28" d="M167.3,19c0,1.1-0.9,2-2,2s-2-0.9-2-2s0.9-2,2-2S167.3,17.9,167.3,19z"/>
	</g>
	<g class="st1">
		<defs>
			<rect id="SVGID_55_" x="-178" y="-62" width="450" height="450"/>
		</defs>
		<clipPath id="SVGID_56_">
			<use xlink:href="#SVGID_55_"  style="overflow:visible;"/>
		</clipPath>
		<path class="st29" d="M-139-22.9c0,1.1-0.9,2-2,2s-2-0.9-2-2s0.9-2,2-2S-139-24-139-22.9z"/>
	</g>
	<g class="st1">
		<defs>
			<rect id="SVGID_57_" x="-178" y="-62" width="450" height="450"/>
		</defs>
		<clipPath id="SVGID_58_">
			<use xlink:href="#SVGID_57_"  style="overflow:visible;"/>
		</clipPath>
		<path class="st30" d="M112,79.3c0,1.1-0.9,2-2,2s-2-0.9-2-2s0.9-2,2-2S112,78.2,112,79.3z"/>
	</g>
	<g class="st1">
		<defs>
			<rect id="SVGID_59_" x="-178" y="-62" width="450" height="450"/>
		</defs>
		<clipPath id="SVGID_60_">
			<use xlink:href="#SVGID_59_"  style="overflow:visible;"/>
		</clipPath>
		<circle class="st31" cx="-139" cy="122.8" r="4.3"/>
	</g>
	<g class="st1">
		<defs>
			<rect id="SVGID_61_" x="-178" y="-62" width="450" height="450"/>
		</defs>
		<clipPath id="SVGID_62_">
			<use xlink:href="#SVGID_61_"  style="overflow:visible;"/>
		</clipPath>
		
			<radialGradient id="SVGID_63_" cx="52.9687" cy="-13.3769" r="289.0335" gradientTransform="matrix(1 0 0 -1 0 328)" gradientUnits="userSpaceOnUse">
			<stop  offset="0" style="stop-color:#FFFFFF"/>
			<stop  offset="6.145435e-02" style="stop-color:#FFFFE0"/>
			<stop  offset="9.813840e-02" style="stop-color:#FFFFCC"/>
			<stop  offset="0.1744" style="stop-color:#F7FDD8"/>
			<stop  offset="0.3422" style="stop-color:#EAF8EC"/>
			<stop  offset="0.5099" style="stop-color:#E3F6F8"/>
			<stop  offset="0.6764" style="stop-color:#E0F5FC"/>
			<stop  offset="0.8227" style="stop-color:#E2F6FC"/>
			<stop  offset="0.8819" style="stop-color:#E9F8FB"/>
			<stop  offset="0.9163" style="stop-color:#F2FBFA"/>
			<stop  offset="1" style="stop-color:#F2FBFC"/>
		</radialGradient>
		<path class="st32" d="M308.4,282.6c0-23.7-19.2-43-43-43c-23.7,0-43,19.2-43,43c0,3.6,0.4,7,1.3,10.3c-26,0.1-40.1,15.2-42,34.9
			c-1.7-7.6-8.5-13.3-16.7-13.3c-9.5,0-17.1,7.7-17.1,17.1c0,2.7,0.6,5.2,1.7,7.5c-11.1,1.5-20.6,8.1-26,17.5
			c-4.5-5.4-11.3-8.8-18.9-8.8c-11,0-20.3,7.2-23.5,17.1c-2.5-1.7-5.6-2.7-8.9-2.7c-5,0-9.4,2.2-12.4,5.8
			c-3.9-8.1-12.2-13.8-21.9-13.8c-5.6,0-10.8,1.9-14.9,5.2c-3.4-11.9-14.3-20.6-27.3-20.6c-12,0-22.3,7.5-26.4,18
			c-4.6-5.5-11.6-9-19.3-9c-10.8,0-20,6.8-23.6,16.3c-3.3-5.9-9.5-9.9-16.7-9.9c-0.8,0-1.6,0.1-2.4,0.2c0-0.1,0-0.1,0-0.2
			c0-16.8-13.6-30.4-30.4-30.4c-10.4,0-19.5,5.2-25,13.1c-2-8.3-8.5-14.8-16.7-16.8c1.3-2.4,2.1-5.2,2.1-8.1c0-9.4-7.6-17-17-17
			c-9.4,0-17,7.6-17,17c0,6.6,3.8,12.4,9.4,15.2c-3.6,4-5.8,9.3-5.8,15.1c0,9.9,4.5,35.5,4.5,44.8c0,17.3,14,31.2,31.2,31.2
			c5.2,0,10.1-1.3,14.4-3.5c3,1.7,6.4,2.6,10,2.6c6.4,0,12.2-3,15.9-7.6c3.5,4.2,8.8,6.9,14.8,6.9c6.1,0,11.5-2.9,15-7.3
			c3.1,4.5,8.2,7.4,14.1,7.4c3.6,0,7-1.1,9.8-3.1c4.3,5.6,11,9.2,18.6,9.2c8.5,0,15.9-4.5,20-11.3c2.5,1.1,5.4,1.8,8.3,1.8
			c5.5,0,10.5-2.2,14.1-5.7c3.6,3.5,8.4,5.7,13.8,5.7c5.6,0,10.8-2.4,14.6-6.5c4.7-5,4.1-4.3,7.9,0c4.4,4.9,8.7,8.6,15.8,8.6
			c9,0,14.6-8,17.7-15.9c2.6,10.8,9.2,21,21.9,21c8.7,0,16.1-5.3,19.3-12.8c4.1,6.2,11.1,10.3,19.1,10.3c7.5,0,11.1-4.1,17.1-7.2
			c9.1-4.6,17.9,4.6,27.3,4.6c5.6,0,10.7-1.9,14.8-5.1c4.1,1.4,8.5,2.2,13,2.2c4.3,0,8.5-0.7,12.4-2c8.1,3.8,17.1,5.9,26.6,5.9
			c34.7,0,62.8-28.1,62.8-62.8c0-13.5-4.3-26-11.5-36.2C301.2,309.9,308.4,297.1,308.4,282.6z"/>
	</g>
	<g class="st1">
		<defs>
			<rect id="SVGID_64_" x="-178" y="-62" width="450" height="450"/>
		</defs>
		<clipPath id="SVGID_65_">
			<use xlink:href="#SVGID_64_"  style="overflow:visible;"/>
		</clipPath>
		<polygon class="st33" points="246.1,220.5 250.3,221.4 246.1,222.2 245.2,229.4 244.3,222.2 240.4,221.4 244.3,220.5 245.2,211.7 
					"/>
	</g>
	<g class="st1">
		<defs>
			<rect id="SVGID_66_" x="-178" y="-62" width="450" height="450"/>
		</defs>
		<clipPath id="SVGID_67_">
			<use xlink:href="#SVGID_66_"  style="overflow:visible;"/>
		</clipPath>
		<polygon class="st34" points="-148.7,305.2 -144.5,306.1 -148.7,306.9 -149.6,314.1 -150.4,306.9 -154.4,306.1 -150.4,305.2 
			-149.6,296.4 		"/>
	</g>
</g>
<g>
	<g>
		<path class="st35" d="M45.8,159.5l-1.7-7.8l-0.4-1.7c-22.5,6.6-20.6,29-19.7,34.8c0.1-5,1-12.6,5-18.2
			C32.2,162.2,37.4,159,45.8,159.5z"/>
		<path class="st35" d="M56.9,159.5l1.7-7.8L59,150c22.5,6.6,20.6,29,19.7,34.8c-0.1-5-1-12.6-5-18.2
			C70.5,162.2,65.3,159,56.9,159.5z"/>
		<g>
			<path class="st36" d="M39.2,128.9L39.2,128.9c-1.2-5.6-6.2-7.8-11.1-4.8c0,0-10,6.1-15.3,20.2C18.8,134.9,29.7,121.5,39.2,128.9z
				"/>
			<path class="st37" d="M39.2,128.9c-9.5-7.5-20.4,6-26.4,15.4c-3.5,9.4-5,22.3-0.2,39.4c1.5,5.1,3.5,10.6,6.2,16.5
				c3.6,0,6-4.6,5.3-10.3c0,0-0.2-2-0.2-5c-0.9-5.8-2.8-28.3,19.7-34.8l-0.3-1.3L39.2,128.9z"/>
			<path class="st36" d="M90.1,144.8c-5.3-14.5-15.5-20.7-15.5-20.7c-4.6-2.8-9.3-1.1-10.8,3.8C73.1,122.8,84.1,135.9,90.1,144.8z"
				/>
			<path class="st37" d="M63.8,127.9c-0.1,0.3-0.2,0.6-0.3,1l-4.3,19.8l-0.3,1.3c22.5,6.6,20.6,29,19.7,34.8c0.1,3-0.2,5-0.2,5
				c-0.6,5.7,1.8,10.3,5.3,10.3c2.7-5.9,4.7-11.4,6.2-16.5c4.8-16.8,3.4-29.5,0-38.9C84.1,135.9,73.1,122.8,63.8,127.9z"/>
		</g>
	</g>
	<g>
		
			<linearGradient id="SVGID_68_" gradientUnits="userSpaceOnUse" x1="51.65" y1="176.3443" x2="51.65" y2="-70.0092" gradientTransform="matrix(1 0 0 -1 0 328)">
			<stop  offset="0" style="stop-color:#420A0A"/>
			<stop  offset="3.022895e-02" style="stop-color:#5F0E0E"/>
			<stop  offset="9.013334e-02" style="stop-color:#911616"/>
			<stop  offset="0.1465" style="stop-color:#B91D1C"/>
			<stop  offset="0.1978" style="stop-color:#D62120"/>
			<stop  offset="0.2422" style="stop-color:#E82423"/>
			<stop  offset="0.2747" style="stop-color:#EE2524"/>
			<stop  offset="0.3499" style="stop-color:#F13E31"/>
			<stop  offset="0.5087" style="stop-color:#F87E52"/>
			<stop  offset="0.6617" style="stop-color:#FFC175"/>
			<stop  offset="0.6771" style="stop-color:#FFC77C"/>
			<stop  offset="0.7532" style="stop-color:#FFE29A"/>
			<stop  offset="0.8184" style="stop-color:#FFF3AC"/>
			<stop  offset="0.8647" style="stop-color:#FFF9B3"/>
		</linearGradient>
		<polygon class="st38" points="61.9,165.4 51.7,163 41.5,165.4 15.2,388 51.7,388 88.1,388 		"/>
		
			<linearGradient id="SVGID_69_" gradientUnits="userSpaceOnUse" x1="51.65" y1="169.5373" x2="51.65" y2="-71.7155" gradientTransform="matrix(1 0 0 -1 0 328)">
			<stop  offset="0.297" style="stop-color:#FF6633"/>
			<stop  offset="0.5212" style="stop-color:#FFFF99"/>
			<stop  offset="1" style="stop-color:#FFFFE6"/>
		</linearGradient>
		<polygon class="st39" points="61.5,388 41.8,388 48.1,166.7 55.3,166.7 		"/>
	</g>
	<path class="st40" d="M72.9,100c1.4-22.1,0.9-39-0.8-51.7c-5.6-4.4-12.7-7.1-20.5-7.1c-7.7,0-14.8,2.7-20.5,7.1
		C29.4,61,28.9,77.8,30.3,100c0.2,2.6,0.4,5.2,0.6,7.9h41.2C72.6,105.2,72.7,102.5,72.9,100z"/>
	<g>
		<path class="st41" d="M72.3,107.9H31.1c0.2,2.4,0.4,4.8,0.7,7.3h39.9C71.9,112.7,72.1,110.3,72.3,107.9z"/>
		<path class="st42" d="M31.7,115.2c0.1,0.6,0.1,1.2,0.2,1.8c8.8,4.4,22.3,5.9,39.5,0.4c0.1-0.8,0.1-1.5,0.2-2.2H31.7z"/>
	</g>
	<path class="st43" d="M31.9,117c0.6,6,1.3,12.4,2.2,19.2l35.1,0.6c0.9-6.8,1.6-13.2,2.2-19.3L31.9,117z"/>
	<path class="st40" d="M34.1,136.2c1.3,10.3,3,21.4,5.1,33.4c0.1,0.7,0.2,1.4,0.4,2.2h12.1h12.1c0.1-0.7,0.2-1.4,0.4-2.1
		c2-11.8,3.7-22.8,5-33C53.1,129.7,40.8,133,34.1,136.2z"/>
	<g>
		<path class="st37" d="M69.9,35.7c-1.3-5.3-2.7-9.6-4.3-13c-4.2-2-8.9-3.1-13.9-3.1s-9.7,1.1-13.9,3.1c-1.6,3.5-3.1,7.7-4.3,13
			c-0.9,3.7-1.7,7.9-2.3,12.6c5.6-4.4,12.7-7.1,20.5-7.1c7.7,0,14.8,2.7,20.5,7.1C71.5,43.5,70.8,39.4,69.9,35.7z"/>
		<path class="st43" d="M51.7,8.3c0,0-7.6,0.5-13.9,14.3c4.2-2,8.9-3.1,13.9-3.1s9.7,1.1,13.9,3.1C59.3,8.8,51.7,8.3,51.7,8.3z"/>
	</g>
	<path class="st44" d="M50.3,10.4c-2.9,0-9.7,7.9-13.9,23c-8.4,29.8-5.2,68.9-1.3,98.3c0.9,7.2,5.7,37.4,5.7,37.4h8
		C48.7,169.1,59.4,10.4,50.3,10.4z"/>
	<path class="st37" d="M53.7,196.1c0,2.3-0.2,4.1-2,4.1l0,0c-1.5,0-2-1.8-2-4.1l-4.2-71c0-2.3,3.9-4.1,6.2-4.1l0,0
		c2.3,0,6.2,1.8,6.2,4.1L53.7,196.1z"/>
	<g>
		<path class="st42" d="M58.8,94.8c0,3.8-3,6.8-6.8,6.8s-6.8-3-6.8-6.8s3-6.8,6.8-6.8S58.8,91,58.8,94.8z"/>
		<path class="st37" d="M58.5,94.2c0,3.8-3,6.8-6.8,6.8s-6.8-3-6.8-6.8s3-6.8,6.8-6.8S58.5,90.4,58.5,94.2z"/>
		<path class="st45" d="M56.6,94.2c0,2.7-2.2,4.9-4.9,4.9s-4.9-2.2-4.9-4.9s2.2-4.9,4.9-4.9C54.4,89.3,56.6,91.5,56.6,94.2z"/>
		<g class="st46">
			<path class="st47" d="M55.3,90.9c-0.9-1-2.2-1.6-3.6-1.6c-2.7,0-4.9,2.2-4.9,4.9c0,0.5,0.1,1,0.2,1.4
				C47.6,93.9,49.5,90.5,55.3,90.9z"/>
		</g>
		<path class="st48" d="M50.2,94.5c0,0.4-0.4,0.8-0.8,0.8c-0.4,0-0.8-0.4-0.8-0.8c0-0.4,0.4-0.8,0.8-0.8S50.2,94,50.2,94.5z"/>
	</g>
	<g>
		<path class="st42" d="M67.6,66c0,8.4-6.8,15.2-15.2,15.2S37.2,74.4,37.2,66S44,50.8,52.4,50.8S67.6,57.6,67.6,66z"/>
		<path class="st37" d="M66.9,64.7c0,8.4-6.8,15.2-15.2,15.2s-15.2-6.8-15.2-15.2s6.8-15.2,15.2-15.2C60.1,49.5,66.9,56.3,66.9,64.7
			z"/>
		<path class="st45" d="M62.6,64.7c0,6-4.9,10.9-10.9,10.9s-10.9-4.9-10.9-10.9c0-6,4.9-10.9,10.9-10.9
			C57.7,53.7,62.6,58.6,62.6,64.7z"/>
		<g class="st46">
			<path class="st47" d="M59.8,57.4c-2-2.2-4.9-3.7-8.1-3.7c-6,0-10.9,4.9-10.9,10.9c0,1.1,0.2,2.2,0.5,3.2
				C42.6,64,46.8,56.4,59.8,57.4z"/>
		</g>
		<path class="st48" d="M50.6,60.8c0,1.2-0.9,2.1-2.1,2.1c-1.2,0-2.1-0.9-2.1-2.1s0.9-2.1,2.1-2.1C49.7,58.7,50.6,59.7,50.6,60.8z"
			/>
		<path class="st48" d="M47.4,65.8c0,0.7-0.6,1.3-1.3,1.3s-1.3-0.6-1.3-1.3s0.6-1.3,1.3-1.3C46.8,64.5,47.4,65.1,47.4,65.8z"/>
	</g>
	<g>
		<path class="st49" d="M52.7,38.4c0,0.5-0.4,0.9-0.9,0.9s-0.9-0.4-0.9-0.9s0.4-0.9,0.9-0.9C52.2,37.5,52.7,37.9,52.7,38.4z"/>
		<path class="st43" d="M52.5,38.4c0,0.4-0.3,0.8-0.8,0.8c-0.4,0-0.8-0.3-0.8-0.8c0-0.4,0.3-0.8,0.8-0.8
			C52.1,37.6,52.5,38,52.5,38.4z"/>
	</g>
	<g>
		<path class="st49" d="M58.2,39c0,0.5-0.4,0.9-1,0.9c-0.5,0-0.9-0.4-0.9-0.9s0.4-0.9,0.9-0.9C57.8,38,58.2,38.5,58.2,39z"/>
		<path class="st43" d="M58,39c0,0.4-0.3,0.8-0.8,0.8c-0.4,0-0.8-0.3-0.8-0.8c0-0.4,0.3-0.8,0.8-0.8S58,38.6,58,39z"/>
	</g>
	<g>
		<path class="st49" d="M63.5,40.2c0,0.5-0.4,0.9-0.9,0.9s-1-0.4-1-0.9s0.4-0.9,1-0.9C63.1,39.2,63.5,39.6,63.5,40.2z"/>
		<path class="st43" d="M63.3,40.2c0,0.4-0.3,0.8-0.8,0.8c-0.4,0-0.8-0.3-0.8-0.8s0.3-0.8,0.8-0.8C63,39.4,63.3,39.7,63.3,40.2z"/>
	</g>
	<g>
		<path class="st49" d="M68.5,42.3c0,0.5-0.4,0.9-0.9,0.9s-0.9-0.4-0.9-0.9s0.4-0.9,0.9-0.9C68.1,41.3,68.5,41.7,68.5,42.3z"/>
		<path class="st43" d="M68.3,42.3c0,0.4-0.3,0.8-0.8,0.8c-0.4,0-0.8-0.3-0.8-0.8c0-0.4,0.3-0.8,0.8-0.8S68.3,41.8,68.3,42.3z"/>
	</g>
	<g>
		<path class="st49" d="M44.9,39c0,0.5,0.4,0.9,0.9,0.9s0.9-0.4,0.9-0.9s-0.4-0.9-0.9-0.9C45.3,38,44.9,38.5,44.9,39z"/>
		<path class="st43" d="M45.1,39c0,0.4,0.3,0.8,0.8,0.8c0.4,0,0.8-0.3,0.8-0.8c0-0.4-0.3-0.8-0.8-0.8C45.4,38.2,45.1,38.6,45.1,39z"
			/>
	</g>
	<g>
		<path class="st49" d="M39.6,40.2c0,0.5,0.4,0.9,0.9,0.9s0.9-0.4,0.9-0.9s-0.4-0.9-0.9-0.9C40,39.2,39.6,39.6,39.6,40.2z"/>
		<path class="st43" d="M39.8,40.2c0,0.4,0.3,0.8,0.8,0.8c0.4,0,0.8-0.3,0.8-0.8s-0.3-0.8-0.8-0.8C40.1,39.4,39.8,39.7,39.8,40.2z"
			/>
	</g>
	<g>
		<path class="st49" d="M34.6,42.3c0,0.5,0.4,0.9,0.9,0.9s0.9-0.4,0.9-0.9s-0.4-0.9-0.9-0.9C35.1,41.3,34.6,41.7,34.6,42.3z"/>
		<path class="st43" d="M34.8,42.3c0,0.4,0.3,0.8,0.8,0.8c0.4,0,0.8-0.3,0.8-0.8c0-0.4-0.3-0.8-0.8-0.8
			C35.2,41.5,34.8,41.8,34.8,42.3z"/>
	</g>
	<g>
		<path class="st49" d="M35,109.7c0,0.5-0.4,0.9-0.9,0.9s-0.9-0.4-0.9-0.9s0.4-0.9,0.9-0.9S35,109.2,35,109.7z"/>
		<path class="st43" d="M34.8,109.7c0,0.4-0.3,0.8-0.8,0.8c-0.4,0-0.8-0.3-0.8-0.8c0-0.4,0.3-0.8,0.8-0.8
			C34.5,109,34.8,109.3,34.8,109.7z"/>
	</g>
	<g>
		<path class="st49" d="M38.9,109.7c0,0.5-0.4,0.9-0.9,0.9s-0.9-0.4-0.9-0.9s0.4-0.9,0.9-0.9S38.9,109.2,38.9,109.7z"/>
		<path class="st43" d="M38.8,109.7c0,0.4-0.3,0.8-0.8,0.8c-0.4,0-0.8-0.3-0.8-0.8c0-0.4,0.3-0.8,0.8-0.8
			C38.4,109,38.8,109.3,38.8,109.7z"/>
	</g>
	<g>
		<path class="st49" d="M42.8,109.7c0,0.5-0.4,0.9-0.9,0.9s-0.9-0.4-0.9-0.9s0.4-0.9,0.9-0.9C42.4,108.8,42.8,109.2,42.8,109.7z"/>
		<path class="st43" d="M42.7,109.7c0,0.4-0.3,0.8-0.8,0.8c-0.4,0-0.8-0.3-0.8-0.8c0-0.4,0.3-0.8,0.8-0.8
			C42.3,109,42.7,109.3,42.7,109.7z"/>
	</g>
	<g>
		<path class="st49" d="M46.7,109.7c0,0.5-0.4,0.9-0.9,0.9s-0.9-0.4-0.9-0.9s0.4-0.9,0.9-0.9S46.7,109.2,46.7,109.7z"/>
		<path class="st43" d="M46.6,109.7c0,0.4-0.3,0.8-0.8,0.8c-0.4,0-0.8-0.3-0.8-0.8c0-0.4,0.3-0.8,0.8-0.8
			C46.2,109,46.6,109.3,46.6,109.7z"/>
	</g>
	<g>
		<path class="st49" d="M50.6,109.7c0,0.5-0.4,0.9-0.9,0.9s-0.9-0.4-0.9-0.9s0.4-0.9,0.9-0.9C50.2,108.8,50.6,109.2,50.6,109.7z"/>
		<path class="st43" d="M50.5,109.7c0,0.4-0.3,0.8-0.8,0.8c-0.4,0-0.8-0.3-0.8-0.8c0-0.4,0.3-0.8,0.8-0.8
			C50.1,109,50.5,109.3,50.5,109.7z"/>
	</g>
	<g>
		<path class="st49" d="M54.5,109.7c0,0.5-0.4,0.9-0.9,0.9s-0.9-0.4-0.9-0.9s0.4-0.9,0.9-0.9S54.5,109.2,54.5,109.7z"/>
		<path class="st43" d="M54.4,109.7c0,0.4-0.3,0.8-0.8,0.8c-0.4,0-0.8-0.3-0.8-0.8c0-0.4,0.3-0.8,0.8-0.8
			C54,109,54.4,109.3,54.4,109.7z"/>
	</g>
	<g>
		<path class="st49" d="M58.5,109.7c0,0.5-0.4,0.9-0.9,0.9s-0.9-0.4-0.9-0.9s0.4-0.9,0.9-0.9C58,108.8,58.5,109.2,58.5,109.7z"/>
		<path class="st43" d="M58.3,109.7c0,0.4-0.3,0.8-0.8,0.8c-0.4,0-0.8-0.3-0.8-0.8c0-0.4,0.3-0.8,0.8-0.8
			C57.9,109,58.3,109.3,58.3,109.7z"/>
	</g>
	<g>
		<path class="st49" d="M62.4,109.7c0,0.5-0.4,0.9-0.9,0.9s-0.9-0.4-0.9-0.9s0.4-0.9,0.9-0.9C61.9,108.8,62.4,109.2,62.4,109.7z"/>
		<path class="st43" d="M62.2,109.7c0,0.4-0.3,0.8-0.8,0.8c-0.4,0-0.8-0.3-0.8-0.8c0-0.4,0.3-0.8,0.8-0.8
			C61.8,109,62.2,109.3,62.2,109.7z"/>
	</g>
	<g>
		<path class="st49" d="M66.3,109.7c0,0.5-0.4,0.9-0.9,0.9s-0.9-0.4-0.9-0.9s0.4-0.9,0.9-0.9C65.8,108.8,66.3,109.2,66.3,109.7z"/>
		<path class="st43" d="M66.1,109.7c0,0.4-0.3,0.8-0.8,0.8c-0.4,0-0.8-0.3-0.8-0.8c0-0.4,0.3-0.8,0.8-0.8
			C65.7,109,66.1,109.3,66.1,109.7z"/>
	</g>
	<g>
		<path class="st49" d="M70.2,109.7c0,0.5-0.4,0.9-0.9,0.9s-0.9-0.4-0.9-0.9s0.4-0.9,0.9-0.9C69.7,108.8,70.2,109.2,70.2,109.7z"/>
		<path class="st43" d="M70,109.7c0,0.4-0.3,0.8-0.8,0.8c-0.4,0-0.8-0.3-0.8-0.8c0-0.4,0.3-0.8,0.8-0.8C69.6,109,70,109.3,70,109.7z
			"/>
	</g>
	<path class="st36" d="M56.1,125.4c0,1.4-2,16-4.4,16s-4.4-14.6-4.4-16s2-3.3,4.4-3.3C54.1,122,56.1,123.9,56.1,125.4z"/>
</g>
</svg>
