<?xml version="1.0" encoding="utf-8"?>
<!-- Generator: Adobe Illustrator 22.0.0, SVG Export Plug-In . SVG Version: 6.00 Build 0)  -->
<svg version="1.1" id="Layer_1" xmlns="http://www.w3.org/2000/svg" xmlns:xlink="http://www.w3.org/1999/xlink" x="0px" y="0px"
	 viewBox="0 0 85.2 380.5" style="enable-background:new 0 0 85.2 380.5;" xml:space="preserve">
<style type="text/css">
	.st0{display:none;}
	.st1{display:inline;}
	.st2{clip-path:url(#SVGID_2_);fill:url(#SVGID_3_);}
	.st3{clip-path:url(#SVGID_5_);}
	.st4{opacity:0.15;fill:#FFFFFF;enable-background:new    ;}
	.st5{clip-path:url(#SVGID_7_);fill:url(#SVGID_8_);}
	.st6{clip-path:url(#SVGID_10_);fill:#A0E0EF;}
	.st7{clip-path:url(#SVGID_12_);fill:#BAEAF2;}
	.st8{clip-path:url(#SVGID_14_);fill:#FFDF6E;}
	.st9{clip-path:url(#SVGID_16_);fill:#FEFEC9;}
	.st10{clip-path:url(#SVGID_18_);fill:#FEFEC9;}
	.st11{clip-path:url(#SVGID_20_);fill:#FEFEC9;}
	.st12{clip-path:url(#SVGID_22_);fill:#FEFEC9;}
	.st13{clip-path:url(#SVGID_24_);fill:#FEFEC9;}
	.st14{clip-path:url(#SVGID_26_);fill:#FEFEC9;}
	.st15{clip-path:url(#SVGID_28_);fill:#FEFEC9;}
	.st16{clip-path:url(#SVGID_30_);fill:#FEFEC9;}
	.st17{clip-path:url(#SVGID_32_);fill:#FEFEC9;}
	.st18{clip-path:url(#SVGID_34_);fill:#FEFEC9;}
	.st19{clip-path:url(#SVGID_36_);fill:#FEFEC9;}
	.st20{clip-path:url(#SVGID_38_);fill:#FEFEC9;}
	.st21{clip-path:url(#SVGID_40_);fill:#FEFEC9;}
	.st22{clip-path:url(#SVGID_42_);fill:#FEFEC9;}
	.st23{clip-path:url(#SVGID_44_);fill:#FEFEC9;}
	.st24{clip-path:url(#SVGID_46_);fill:#FEFEC9;}
	.st25{clip-path:url(#SVGID_48_);fill:#FEFEC9;}
	.st26{clip-path:url(#SVGID_50_);fill:#FEFEC9;}
	.st27{clip-path:url(#SVGID_52_);fill:#FEFEC9;}
	.st28{clip-path:url(#SVGID_54_);fill:#FEFEC9;}
	.st29{clip-path:url(#SVGID_56_);fill:#FEFEC9;}
	.st30{clip-path:url(#SVGID_58_);fill:#FEFEC9;}
	.st31{clip-path:url(#SVGID_60_);fill:#FEFEC9;}
	.st32{clip-path:url(#SVGID_62_);fill:url(#SVGID_63_);}
	.st33{clip-path:url(#SVGID_65_);fill:#FEFEC9;}
	.st34{clip-path:url(#SVGID_67_);fill:#FEFEC9;}
	.st35{fill:#591F2A;}
	.st36{fill:#EB4764;}
	.st37{fill:#BE2843;}
	.st38{fill:url(#SVGID_68_);}
	.st39{fill:url(#SVGID_69_);}
	.st40{fill:#F8EBC4;}
	.st41{fill:#8C1E31;}
	.st42{fill:#541823;}
	.st43{fill:#FFB261;}
	.st44{opacity:0.25;fill:#FFFCA0;enable-background:new    ;}
	.st45{fill:#A1E0FF;}
	.st46{opacity:0.65;}
	.st47{fill:#66CCFF;}
	.st48{fill:#FFFFFF;}
	.st49{fill:#CC8B96;}
</style>
<g class="st0">
	<g class="st1">
		<g>
			<defs>
				<rect id="SVGID_1_" x="-186.7" y="-69.5" width="450" height="450"/>
			</defs>
			<clipPath id="SVGID_2_">
				<use xlink:href="#SVGID_1_"  style="overflow:visible;"/>
			</clipPath>
			
				<linearGradient id="SVGID_3_" gradientUnits="userSpaceOnUse" x1="-151.8709" y1="382.6662" x2="239.6094" y2="870.1409" gradientTransform="matrix(1 0 0 1 0 -464)">
				<stop  offset="0.2484" style="stop-color:#00A2A9"/>
				<stop  offset="0.5144" style="stop-color:#00858A"/>
				<stop  offset="0.8007" style="stop-color:#028489"/>
				<stop  offset="0.9037" style="stop-color:#097F85"/>
				<stop  offset="0.9769" style="stop-color:#14787D"/>
				<stop  offset="1" style="stop-color:#1A747A"/>
			</linearGradient>
			<rect x="-186.7" y="-69.5" class="st2" width="450" height="450"/>
		</g>
	</g>
	<g class="st1">
		<g>
			<defs>
				<rect id="SVGID_4_" x="-186.7" y="-69.5" width="450" height="450"/>
			</defs>
			<clipPath id="SVGID_5_">
				<use xlink:href="#SVGID_4_"  style="overflow:visible;"/>
			</clipPath>
			<g class="st3">
				<circle class="st4" cx="-39" cy="-8.6" r="252.2"/>
				<circle class="st4" cx="-72.8" cy="-55.3" r="252.2"/>
				<ellipse class="st4" cx="-100.8" cy="-97.8" rx="252.2" ry="252.2"/>
			</g>
		</g>
	</g>
	<g class="st1">
		<g>
			<defs>
				<rect id="SVGID_6_" x="-186.7" y="-69.5" width="450" height="450"/>
			</defs>
			<clipPath id="SVGID_7_">
				<use xlink:href="#SVGID_6_"  style="overflow:visible;"/>
			</clipPath>
			
				<linearGradient id="SVGID_8_" gradientUnits="userSpaceOnUse" x1="159.5082" y1="707.5909" x2="297.6303" y2="826.6301" gradientTransform="matrix(1 0 0 1 0 -464)">
				<stop  offset="0" style="stop-color:#7CE1EE"/>
				<stop  offset="0.2999" style="stop-color:#A6E0EE"/>
				<stop  offset="0.4734" style="stop-color:#BADFEE"/>
				<stop  offset="0.8424" style="stop-color:#D4EFFA"/>
			</linearGradient>
			<path class="st5" d="M246.1,126.4c-10.4,14.1-7.5,34,6.6,44.5c0.3,0.2,0.6,0.4,0.9,0.7c-1.7,1.1-3.3,2.5-4.6,4.2
				c-3.4,4.6-4.1,10.5-2.4,15.6c-10-4-21.9-1-28.6,8.1c-3.1,4.2-4.6,9-4.8,13.8c-15-3.5-31.4,2-41.1,15.2
				c-13.1,17.7-9.4,42.7,8.3,55.9c1.6,1.2,3.3,2.3,5,3.2c-8-0.1-15.9,3.5-21.1,10.5c-4.7,6.4-6.1,14.2-4.4,21.3
				c-13.8-6.2-30.5-2.2-39.9,10.4c-10.8,14.6-7.7,35.1,6.9,45.9c0.6,0.5,1.3,0.9,1.9,1.3c-5.3,0.7-10.2,3.5-13.6,8.1
				c-4.4,5.9-5.1,13.4-2.6,19.7c-10-1.3-20.4,2.8-26.8,11.5c-3.3,4.5,185.3,18.9,214.6-42.5c38.8-81.3,4-243.4-10.1-253.9
				C276.4,109.3,256.5,112.2,246.1,126.4z"/>
		</g>
	</g>
	<g class="st1">
		<g>
			<defs>
				<rect id="SVGID_9_" x="-186.7" y="-69.5" width="450" height="450"/>
			</defs>
			<clipPath id="SVGID_10_">
				<use xlink:href="#SVGID_9_"  style="overflow:visible;"/>
			</clipPath>
			<path class="st6" d="M227.1,367.1c12.5-20.2,6.2-46.7-14-59.1c-20.2-12.5-46.7-6.2-59.1,14c-1.9,3-3.3,6.2-4.4,9.5
				c-22.2-13.6-42.1-8.1-54.1,7.7c2.5-7.4-0.3-15.8-7.2-20.1c-8-5-18.6-2.5-23.6,5.6c-1.4,2.3-2.2,4.8-2.4,7.3
				c-10.3-4.6-21.8-3.9-31.3,1.3c-1-6.9-5-13.4-11.4-17.4c-9.4-5.8-21-4.5-29,2.3c-1.3-2.8-3.4-5.2-6.2-6.9c-4.2-2.6-9.2-3-13.5-1.6
				c0.9-9-3.2-18.1-11.4-23.2c-4.8-3-10.2-4-15.4-3.4c3.4-11.9-1.4-25.1-12.4-31.9c-10.2-6.3-22.9-5.3-32,1.5
				c-1-7.1-5.1-13.7-11.7-17.8c-9.2-5.7-20.6-4.7-28.7,1.5c0.3-6.7-2.9-13.4-9.1-17.2c-0.7-0.4-1.4-0.8-2.1-1.1l0.1-0.1
				c8.8-14.3,4.4-33.1-9.9-41.9c-8.8-5.4-19.3-5.8-28.2-2c2.6-8.1,0.5-17-5.4-23.1c2.4-1.4,4.5-3.3,6-5.8c4.9-8,2.4-18.4-5.5-23.4
				c-8-4.9-18.4-2.4-23.4,5.5c-3.5,5.7-3.2,12.5,0,17.8c-5.2,1.6-9.8,4.9-12.8,9.8c-5.2,8.4-14.8,32.6-19.7,40.5
				c-9.1,14.7-4.5,33.9,10.2,43c4.4,2.7,9.2,4.2,14.1,4.6c1.7,3,4.1,5.6,7.2,7.5c5.5,3.4,11.9,3.9,17.5,1.9
				c0.8,5.5,3.9,10.5,8.9,13.6c5.2,3.2,11.3,3.6,16.7,1.7c0.3,5.4,3.1,10.6,8.1,13.7c3.1,1.9,6.6,2.7,9.9,2.5
				c0.7,7,4.5,13.6,11,17.6c7.2,4.4,15.9,4.5,22.9,0.9c1.6,2.3,3.6,4.3,6.2,5.9c4.7,2.9,10,3.6,15,2.6c1.2,4.9,4.2,9.3,8.8,12.1
				c4.8,2.9,10.4,3.6,15.8,2.1c6.6-1.8,5.7-1.5,6.8,4.2c1.2,6.5,2.9,11.9,8.9,15.6c7.7,4.7,16.6,0.9,23.4-4.2
				c-3.5,10.6-3.2,22.7,7.6,29.3c7.4,4.5,16.5,4,23.1-0.7c0.2,7.4,4.1,14.6,10.9,18.8c6.4,3.9,11.6,2.3,18.4,2.8
				c10.1,0.8,12.9,13.3,20.8,18.2c4.7,2.9,10.1,4,15.2,3.5c2.7,3.3,6.1,6.3,9.9,8.7c3.7,2.3,7.6,3.9,11.6,4.8
				c4.9,7.5,11.4,14,19.5,19c29.5,18.2,68.2,9,86.5-20.5c7.1-11.5,10-24.4,9.2-36.9C206.6,386.6,219.5,379.5,227.1,367.1z"/>
		</g>
	</g>
	<g class="st1">
		<g>
			<defs>
				<rect id="SVGID_11_" x="-186.7" y="-69.5" width="450" height="450"/>
			</defs>
			<clipPath id="SVGID_12_">
				<use xlink:href="#SVGID_11_"  style="overflow:visible;"/>
			</clipPath>
			<path class="st7" d="M248,242.1c-17.6,0-31.8,14.2-31.8,31.8c0,0.4,0,0.8,0,1.2c-1.9-0.7-4-1.2-6.1-1.2c-5.8,0-10.9,2.9-13.9,7.3
				c-2.7-10.5-12.2-18.2-23.5-18.2c-5.2,0-10,1.6-13.9,4.4c-6.1-14.1-20.2-24-36.7-24c-22.1,0-39.9,17.9-39.9,39.9
				c0,2,0.2,4,0.4,5.9c-4.7-6.5-12.3-10.7-21-10.7c-7.9,0-15,3.6-19.8,9.2c-3.2-14.8-16.3-25.9-32.1-25.9
				c-18.1,0-32.8,14.7-32.8,32.8c0,0.8,0,1.6,0.1,2.3c-3.7-3.8-8.9-6.1-14.6-6.1c-7.3,0-13.8,3.9-17.4,9.7
				c-4.9-8.8-14.4-14.8-25.2-14.8c-5.6,0-10.8,1.6-15.2,4.3c-2.5-24.4-23.3-43.5-48.5-43.5c-6.6,0-12.8,1.3-18.6,3.7
				c0-0.4,0.1-0.7,0.1-1.1c0-11.3-9.2-20.5-20.5-20.5s-20.5,9.2-20.5,20.5c0,4.9,1.7,9.4,4.6,12.9c-2.9,3.5-4.6,8-4.6,12.9
				c0,7.8-11.7,160.2,15.2,160.2c13.8,0,422.7-3.2,454.7-3.2c17.6,0,13.2-140.3,13.2-157.9C279.8,256.3,265.5,242.1,248,242.1z"/>
		</g>
	</g>
	<g class="st1">
		<g>
			<defs>
				<rect id="SVGID_13_" x="-186.7" y="-69.5" width="450" height="450"/>
			</defs>
			<clipPath id="SVGID_14_">
				<use xlink:href="#SVGID_13_"  style="overflow:visible;"/>
			</clipPath>
			<circle class="st8" cx="-75.2" cy="-11.8" r="21"/>
		</g>
	</g>
	<g class="st1">
		<g>
			<defs>
				<rect id="SVGID_15_" x="-186.7" y="-69.5" width="450" height="450"/>
			</defs>
			<clipPath id="SVGID_16_">
				<use xlink:href="#SVGID_15_"  style="overflow:visible;"/>
			</clipPath>
			<polygon class="st9" points="181.5,57.3 187.7,59.6 181.5,61.9 179.2,68.1 176.8,61.9 170.7,59.6 176.8,57.3 179.2,51.1 			"/>
		</g>
	</g>
	<g class="st1">
		<g>
			<defs>
				<rect id="SVGID_17_" x="-186.7" y="-69.5" width="450" height="450"/>
			</defs>
			<clipPath id="SVGID_18_">
				<use xlink:href="#SVGID_17_"  style="overflow:visible;"/>
			</clipPath>
			<polygon class="st10" points="-155.8,31.7 -149.7,34 -155.8,36.3 -158.2,42.5 -160.5,36.3 -166.7,34 -160.5,31.7 -158.2,25.5 			
				"/>
		</g>
	</g>
	<g class="st1">
		<g>
			<defs>
				<rect id="SVGID_19_" x="-186.7" y="-69.5" width="450" height="450"/>
			</defs>
			<clipPath id="SVGID_20_">
				<use xlink:href="#SVGID_19_"  style="overflow:visible;"/>
			</clipPath>
			<polygon class="st11" points="139.1,138.9 142,139.5 139.1,140.1 138.5,145 137.9,140.1 135.2,139.5 137.9,138.9 138.5,132.9 			
				"/>
		</g>
	</g>
	<g class="st1">
		<g>
			<defs>
				<rect id="SVGID_21_" x="-186.7" y="-69.5" width="450" height="450"/>
			</defs>
			<clipPath id="SVGID_22_">
				<use xlink:href="#SVGID_21_"  style="overflow:visible;"/>
			</clipPath>
			<polygon class="st12" points="118.1,-36.4 121,-35.8 118.1,-35.3 117.5,-30.4 116.9,-35.3 114.2,-35.8 116.9,-36.4 117.5,-42.5 
							"/>
		</g>
	</g>
	<g class="st1">
		<g>
			<defs>
				<rect id="SVGID_23_" x="-186.7" y="-69.5" width="450" height="450"/>
			</defs>
			<clipPath id="SVGID_24_">
				<use xlink:href="#SVGID_23_"  style="overflow:visible;"/>
			</clipPath>
			<polygon class="st13" points="-74.4,268 -70.2,268.9 -74.4,269.8 -75.3,276.9 -76.1,269.8 -80.1,268.9 -76.1,268 -75.3,259.3 			
				"/>
		</g>
	</g>
	<g class="st1">
		<g>
			<defs>
				<rect id="SVGID_25_" x="-186.7" y="-69.5" width="450" height="450"/>
			</defs>
			<clipPath id="SVGID_26_">
				<use xlink:href="#SVGID_25_"  style="overflow:visible;"/>
			</clipPath>
			<polygon class="st14" points="-74.7,77.8 -71.8,78.4 -74.7,79 -75.3,83.9 -75.9,79 -78.6,78.4 -75.9,77.8 -75.3,71.8 			"/>
		</g>
	</g>
	<g class="st1">
		<g>
			<defs>
				<rect id="SVGID_27_" x="-186.7" y="-69.5" width="450" height="450"/>
			</defs>
			<clipPath id="SVGID_28_">
				<use xlink:href="#SVGID_27_"  style="overflow:visible;"/>
			</clipPath>
			<polygon class="st15" points="-7,-11.8 -4.2,-11.3 -7,-10.7 -7.6,-5.8 -8.2,-10.7 -10.9,-11.3 -8.2,-11.8 -7.6,-17.9 			"/>
		</g>
	</g>
	<g class="st1">
		<g>
			<defs>
				<rect id="SVGID_29_" x="-186.7" y="-69.5" width="450" height="450"/>
			</defs>
			<clipPath id="SVGID_30_">
				<use xlink:href="#SVGID_29_"  style="overflow:visible;"/>
			</clipPath>
			<polygon class="st16" points="232.7,-0.5 236.6,0.9 232.7,2.4 231.3,6.2 229.9,2.4 226,0.9 229.9,-0.5 231.3,-4.4 			"/>
		</g>
	</g>
	<g class="st1">
		<g>
			<defs>
				<rect id="SVGID_31_" x="-186.7" y="-69.5" width="450" height="450"/>
			</defs>
			<clipPath id="SVGID_32_">
				<use xlink:href="#SVGID_31_"  style="overflow:visible;"/>
			</clipPath>
			<polygon class="st17" points="-42.9,308.3 -39.3,309.6 -42.9,311 -44.3,314.7 -45.6,311 -49.3,309.6 -45.6,308.3 -44.3,304.6 			
				"/>
		</g>
	</g>
	<g class="st1">
		<g>
			<defs>
				<rect id="SVGID_33_" x="-186.7" y="-69.5" width="450" height="450"/>
			</defs>
			<clipPath id="SVGID_34_">
				<use xlink:href="#SVGID_33_"  style="overflow:visible;"/>
			</clipPath>
			<polygon class="st18" points="-36.8,182.2 -31.7,184.1 -36.8,186 -38.7,191.1 -40.6,186 -45.7,184.1 -40.6,182.2 -38.7,177.2 			
				"/>
		</g>
	</g>
	<g class="st1">
		<g>
			<defs>
				<rect id="SVGID_35_" x="-186.7" y="-69.5" width="450" height="450"/>
			</defs>
			<clipPath id="SVGID_36_">
				<use xlink:href="#SVGID_35_"  style="overflow:visible;"/>
			</clipPath>
			<polygon class="st19" points="104.4,299.5 106.2,300.2 104.4,300.9 103.8,302.7 103.1,300.9 101.3,300.2 103.1,299.5 
				103.8,297.8 			"/>
		</g>
	</g>
	<g class="st1">
		<g>
			<defs>
				<rect id="SVGID_37_" x="-186.7" y="-69.5" width="450" height="450"/>
			</defs>
			<clipPath id="SVGID_38_">
				<use xlink:href="#SVGID_37_"  style="overflow:visible;"/>
			</clipPath>
			<polygon class="st20" points="-123.1,52.7 -121.3,53.3 -123.1,54 -123.8,55.8 -124.4,54 -126.2,53.3 -124.4,52.7 -123.8,50.9 			
				"/>
		</g>
	</g>
	<g class="st1">
		<g>
			<defs>
				<rect id="SVGID_39_" x="-186.7" y="-69.5" width="450" height="450"/>
			</defs>
			<clipPath id="SVGID_40_">
				<use xlink:href="#SVGID_39_"  style="overflow:visible;"/>
			</clipPath>
			<polygon class="st21" points="-120.6,181.8 -118.8,182.5 -120.6,183.1 -121.3,184.9 -122,183.1 -123.8,182.5 -122,181.8 
				-121.3,180 			"/>
		</g>
	</g>
	<g class="st1">
		<g>
			<defs>
				<rect id="SVGID_41_" x="-186.7" y="-69.5" width="450" height="450"/>
			</defs>
			<clipPath id="SVGID_42_">
				<use xlink:href="#SVGID_41_"  style="overflow:visible;"/>
			</clipPath>
			<polygon class="st22" points="-24.5,258.6 -22.7,259.3 -24.5,259.9 -25.1,261.7 -25.8,259.9 -27.6,259.3 -25.8,258.6 
				-25.1,256.8 			"/>
		</g>
	</g>
	<g class="st1">
		<g>
			<defs>
				<rect id="SVGID_43_" x="-186.7" y="-69.5" width="450" height="450"/>
			</defs>
			<clipPath id="SVGID_44_">
				<use xlink:href="#SVGID_43_"  style="overflow:visible;"/>
			</clipPath>
			<polygon class="st23" points="106.9,212.4 108.7,213.1 106.9,213.7 106.2,215.5 105.5,213.7 103.8,213.1 105.5,212.4 
				106.2,210.6 			"/>
		</g>
	</g>
	<g class="st1">
		<g>
			<defs>
				<rect id="SVGID_45_" x="-186.7" y="-69.5" width="450" height="450"/>
			</defs>
			<clipPath id="SVGID_46_">
				<use xlink:href="#SVGID_45_"  style="overflow:visible;"/>
			</clipPath>
			<polygon class="st24" points="199.7,-33.5 201.5,-32.8 199.7,-32.1 199.1,-30.4 198.4,-32.1 196.6,-32.8 198.4,-33.5 
				199.1,-35.3 			"/>
		</g>
	</g>
	<g class="st1">
		<g>
			<defs>
				<rect id="SVGID_47_" x="-186.7" y="-69.5" width="450" height="450"/>
			</defs>
			<clipPath id="SVGID_48_">
				<use xlink:href="#SVGID_47_"  style="overflow:visible;"/>
			</clipPath>
			<polygon class="st25" points="157.8,224.2 161,225.4 157.8,226.6 156.6,229.9 155.4,226.6 152.2,225.4 155.4,224.2 156.6,221 			
				"/>
		</g>
	</g>
	<g class="st1">
		<g>
			<defs>
				<rect id="SVGID_49_" x="-186.7" y="-69.5" width="450" height="450"/>
			</defs>
			<clipPath id="SVGID_50_">
				<use xlink:href="#SVGID_49_"  style="overflow:visible;"/>
			</clipPath>
			<path class="st26" d="M-72,138.9c0,1.2-1,2.1-2.1,2.1s-2.1-1-2.1-2.1s1-2.1,2.1-2.1S-72,137.7-72,138.9z"/>
		</g>
	</g>
	<g class="st1">
		<g>
			<defs>
				<rect id="SVGID_51_" x="-186.7" y="-69.5" width="450" height="450"/>
			</defs>
			<clipPath id="SVGID_52_">
				<use xlink:href="#SVGID_51_"  style="overflow:visible;"/>
			</clipPath>
			<path class="st27" d="M192.6,144.9c0,2.4-1.9,4.3-4.3,4.3s-4.3-1.9-4.3-4.3c0-2.4,1.9-4.3,4.3-4.3
				C190.6,140.6,192.6,142.5,192.6,144.9z"/>
		</g>
	</g>
	<g class="st1">
		<g>
			<defs>
				<rect id="SVGID_53_" x="-186.7" y="-69.5" width="450" height="450"/>
			</defs>
			<clipPath id="SVGID_54_">
				<use xlink:href="#SVGID_53_"  style="overflow:visible;"/>
			</clipPath>
			<path class="st28" d="M158.6,11.5c0,1.1-0.9,2-2,2s-2-0.9-2-2s0.9-2,2-2S158.6,10.4,158.6,11.5z"/>
		</g>
	</g>
	<g class="st1">
		<g>
			<defs>
				<rect id="SVGID_55_" x="-186.7" y="-69.5" width="450" height="450"/>
			</defs>
			<clipPath id="SVGID_56_">
				<use xlink:href="#SVGID_55_"  style="overflow:visible;"/>
			</clipPath>
			<path class="st29" d="M-147.7-30.4c0,1.1-0.9,2-2,2s-2-0.9-2-2s0.9-2,2-2S-147.7-31.5-147.7-30.4z"/>
		</g>
	</g>
	<g class="st1">
		<g>
			<defs>
				<rect id="SVGID_57_" x="-186.7" y="-69.5" width="450" height="450"/>
			</defs>
			<clipPath id="SVGID_58_">
				<use xlink:href="#SVGID_57_"  style="overflow:visible;"/>
			</clipPath>
			<path class="st30" d="M103.3,71.8c0,1.1-0.9,2-2,2s-2-0.9-2-2s0.9-2,2-2S103.3,70.7,103.3,71.8z"/>
		</g>
	</g>
	<g class="st1">
		<g>
			<defs>
				<rect id="SVGID_59_" x="-186.7" y="-69.5" width="450" height="450"/>
			</defs>
			<clipPath id="SVGID_60_">
				<use xlink:href="#SVGID_59_"  style="overflow:visible;"/>
			</clipPath>
			<circle class="st31" cx="-147.7" cy="115.3" r="4.3"/>
		</g>
	</g>
	<g class="st1">
		<g>
			<defs>
				<rect id="SVGID_61_" x="-186.7" y="-69.5" width="450" height="450"/>
			</defs>
			<clipPath id="SVGID_62_">
				<use xlink:href="#SVGID_61_"  style="overflow:visible;"/>
			</clipPath>
			
				<radialGradient id="SVGID_63_" cx="44.2604" cy="797.8352" r="289.0335" gradientTransform="matrix(1 0 0 1 0 -464)" gradientUnits="userSpaceOnUse">
				<stop  offset="0" style="stop-color:#FFFFFF"/>
				<stop  offset="6.145435e-02" style="stop-color:#FFFFE0"/>
				<stop  offset="9.813840e-02" style="stop-color:#FFFFCC"/>
				<stop  offset="0.1744" style="stop-color:#F7FDD8"/>
				<stop  offset="0.3422" style="stop-color:#EAF8EC"/>
				<stop  offset="0.5099" style="stop-color:#E3F6F8"/>
				<stop  offset="0.6764" style="stop-color:#E0F5FC"/>
				<stop  offset="0.8227" style="stop-color:#E2F6FC"/>
				<stop  offset="0.8819" style="stop-color:#E9F8FB"/>
				<stop  offset="0.9163" style="stop-color:#F2FBFA"/>
				<stop  offset="1" style="stop-color:#F2FBFC"/>
			</radialGradient>
			<path class="st32" d="M299.7,275.1c0-23.7-19.2-43-43-43c-23.7,0-43,19.2-43,43c0,3.6,0.4,7,1.3,10.3c-26,0.1-40.1,15.2-42,34.9
				c-1.7-7.6-8.5-13.3-16.7-13.3c-9.5,0-17.1,7.7-17.1,17.1c0,2.7,0.6,5.2,1.7,7.5c-11.1,1.5-20.6,8.1-26,17.5
				c-4.5-5.4-11.3-8.8-18.9-8.8c-11,0-20.3,7.2-23.5,17.1c-2.5-1.7-5.6-2.7-8.9-2.7c-5,0-9.4,2.2-12.4,5.8
				c-3.9-8.1-12.2-13.8-21.9-13.8c-5.6,0-10.8,1.9-14.9,5.2C11,340,0.1,331.3-12.9,331.3c-12,0-22.3,7.5-26.4,18
				c-4.6-5.5-11.6-9-19.3-9c-10.8,0-20,6.8-23.6,16.3c-3.3-5.9-9.5-9.9-16.7-9.9c-0.8,0-1.6,0.1-2.4,0.2c0-0.1,0-0.1,0-0.2
				c0-16.8-13.6-30.4-30.4-30.4c-10.4,0-19.5,5.2-25,13.1c-2-8.3-8.5-14.8-16.7-16.8c1.3-2.4,2.1-5.2,2.1-8.1c0-9.4-7.6-17-17-17
				s-17,7.6-17,17c0,6.6,3.8,12.4,9.4,15.2c-3.6,4-5.8,9.3-5.8,15.1c0,9.9,4.5,35.5,4.5,44.8c0,17.3,14,31.2,31.2,31.2
				c5.2,0,10.1-1.3,14.4-3.5c3,1.7,6.4,2.6,10,2.6c6.4,0,12.2-3,15.9-7.6c3.5,4.2,8.8,6.9,14.8,6.9c6.1,0,11.5-2.9,15-7.3
				c3.1,4.5,8.2,7.4,14.1,7.4c3.6,0,7-1.1,9.8-3.1c4.3,5.6,11,9.2,18.6,9.2c8.5,0,15.9-4.5,20-11.3c2.5,1.1,5.4,1.8,8.3,1.8
				c5.5,0,10.5-2.2,14.1-5.7c3.6,3.5,8.4,5.7,13.8,5.7c5.6,0,10.8-2.4,14.6-6.5c4.7-5,4.1-4.3,7.9,0c4.4,4.9,8.7,8.6,15.8,8.6
				c9,0,14.6-8,17.7-15.9c2.6,10.8,9.2,21,21.9,21c8.7,0,16.1-5.3,19.3-12.8c4.1,6.2,11.1,10.3,19.1,10.3c7.5,0,11.1-4.1,17.1-7.2
				c9.1-4.6,17.9,4.6,27.3,4.6c5.6,0,10.7-1.9,14.8-5.1c4.1,1.4,8.5,2.2,13,2.2c4.3,0,8.5-0.7,12.4-2c8.1,3.8,17.1,5.9,26.6,5.9
				c34.7,0,62.8-28.1,62.8-62.8c0-13.5-4.3-26-11.5-36.2C292.5,302.4,299.7,289.6,299.7,275.1z"/>
		</g>
	</g>
	<g class="st1">
		<g>
			<defs>
				<rect id="SVGID_64_" x="-186.7" y="-69.5" width="450" height="450"/>
			</defs>
			<clipPath id="SVGID_65_">
				<use xlink:href="#SVGID_64_"  style="overflow:visible;"/>
			</clipPath>
			<polygon class="st33" points="237.4,213 241.6,213.9 237.4,214.7 236.5,221.9 235.6,214.7 231.7,213.9 235.6,213 236.5,204.2 			
				"/>
		</g>
	</g>
	<g class="st1">
		<g>
			<defs>
				<rect id="SVGID_66_" x="-186.7" y="-69.5" width="450" height="450"/>
			</defs>
			<clipPath id="SVGID_67_">
				<use xlink:href="#SVGID_66_"  style="overflow:visible;"/>
			</clipPath>
			<polygon class="st34" points="-157.4,297.7 -153.2,298.6 -157.4,299.4 -158.3,306.6 -159.1,299.4 -163.1,298.6 -159.1,297.7 
				-158.3,288.9 			"/>
		</g>
	</g>
</g>
<g>
	<g>
		<path class="st35" d="M37.1,152l-1.7-7.8l-0.4-1.7c-22.5,6.6-20.6,29-19.7,34.8c0.1-5,1-12.6,5-18.2
			C23.5,154.7,28.7,151.5,37.1,152z"/>
		<path class="st35" d="M48.2,152l1.7-7.8l0.4-1.7c22.5,6.6,20.6,29,19.7,34.8c-0.1-5-1-12.6-5-18.2C61.8,154.7,56.6,151.5,48.2,152
			z"/>
		<g>
			<path class="st36" d="M30.5,121.4L30.5,121.4c-1.2-5.6-6.2-7.8-11.1-4.8c0,0-10,6.1-15.3,20.2C10.1,127.4,21,114,30.5,121.4z"/>
			<path class="st37" d="M30.5,121.4c-9.5-7.5-20.4,6-26.4,15.4c-3.5,9.4-5,22.3-0.2,39.4c1.5,5.1,3.5,10.6,6.2,16.5
				c3.6,0,6-4.6,5.3-10.3c0,0-0.2-2-0.2-5c-0.9-5.8-2.8-28.3,19.7-34.8l-0.3-1.3L30.5,121.4z"/>
			<path class="st36" d="M81.4,137.3c-5.3-14.5-15.5-20.7-15.5-20.7c-4.6-2.8-9.3-1.1-10.8,3.8C64.4,115.3,75.4,128.4,81.4,137.3z"
				/>
			<path class="st37" d="M55.1,120.4c-0.1,0.3-0.2,0.6-0.3,1l-4.3,19.8l-0.3,1.3c22.5,6.6,20.6,29,19.7,34.8c0.1,3-0.2,5-0.2,5
				c-0.6,5.7,1.8,10.3,5.3,10.3c2.7-5.9,4.7-11.4,6.2-16.5c4.8-16.8,3.4-29.5,0-38.9C75.4,128.4,64.4,115.3,55.1,120.4z"/>
		</g>
	</g>
	<g>
		
			<linearGradient id="SVGID_68_" gradientUnits="userSpaceOnUse" x1="42.9417" y1="608.114" x2="42.9417" y2="854.4675" gradientTransform="matrix(1 0 0 1 0 -464)">
			<stop  offset="0" style="stop-color:#420A0A"/>
			<stop  offset="3.022895e-02" style="stop-color:#5F0E0E"/>
			<stop  offset="9.013334e-02" style="stop-color:#911616"/>
			<stop  offset="0.1465" style="stop-color:#B91D1C"/>
			<stop  offset="0.1978" style="stop-color:#D62120"/>
			<stop  offset="0.2422" style="stop-color:#E82423"/>
			<stop  offset="0.2747" style="stop-color:#EE2524"/>
			<stop  offset="0.3499" style="stop-color:#F13E31"/>
			<stop  offset="0.5087" style="stop-color:#F87E52"/>
			<stop  offset="0.6617" style="stop-color:#FFC175"/>
			<stop  offset="0.6771" style="stop-color:#FFC77C"/>
			<stop  offset="0.7532" style="stop-color:#FFE29A"/>
			<stop  offset="0.8184" style="stop-color:#FFF3AC"/>
			<stop  offset="0.8647" style="stop-color:#FFF9B3"/>
		</linearGradient>
		<polygon class="st38" points="53.2,157.9 43,155.5 32.8,157.9 6.5,380.5 43,380.5 79.4,380.5 		"/>
		
			<linearGradient id="SVGID_69_" gradientUnits="userSpaceOnUse" x1="42.9417" y1="614.921" x2="42.9417" y2="856.1738" gradientTransform="matrix(1 0 0 1 0 -464)">
			<stop  offset="0.297" style="stop-color:#FF6633"/>
			<stop  offset="0.5212" style="stop-color:#FFFF99"/>
			<stop  offset="1" style="stop-color:#FFFFE6"/>
		</linearGradient>
		<polygon class="st39" points="52.8,380.5 33.1,380.5 39.4,159.2 46.6,159.2 		"/>
	</g>
	<path class="st40" d="M64.2,92.5c1.4-22.1,0.9-39-0.8-51.7c-5.6-4.4-12.7-7.1-20.5-7.1c-7.7,0-14.8,2.7-20.5,7.1
		c-1.7,12.7-2.2,29.5-0.8,51.7c0.2,2.6,0.4,5.2,0.6,7.9h41.2C63.9,97.7,64,95,64.2,92.5z"/>
	<g>
		<path class="st41" d="M63.6,100.4H22.4c0.2,2.4,0.4,4.8,0.7,7.3H63C63.2,105.2,63.4,102.8,63.6,100.4z"/>
		<path class="st42" d="M23,107.7c0.1,0.6,0.1,1.2,0.2,1.8c8.8,4.4,22.3,5.9,39.5,0.4c0.1-0.8,0.1-1.5,0.2-2.2
			C62.9,107.7,23,107.7,23,107.7z"/>
	</g>
	<path class="st43" d="M23.2,109.5c0.6,6,1.3,12.4,2.2,19.2l35.1,0.6c0.9-6.8,1.6-13.2,2.2-19.3L23.2,109.5z"/>
	<path class="st40" d="M25.4,128.7c1.3,10.3,3,21.4,5.1,33.4c0.1,0.7,0.2,1.4,0.4,2.2H43h12.1c0.1-0.7,0.2-1.4,0.4-2.1
		c2-11.8,3.7-22.8,5-33C44.4,122.2,32.1,125.5,25.4,128.7z"/>
	<g>
		<path class="st37" d="M61.2,28.2c-1.3-5.3-2.7-9.6-4.3-13c-4.2-2-8.9-3.1-13.9-3.1s-9.7,1.1-13.9,3.1c-1.6,3.5-3.1,7.7-4.3,13
			c-0.9,3.7-1.7,7.9-2.3,12.6c5.6-4.4,12.7-7.1,20.5-7.1c7.7,0,14.8,2.7,20.5,7.1C62.8,36,62.1,31.9,61.2,28.2z"/>
		<path class="st43" d="M43,0.8c0,0-7.6,0.5-13.9,14.3C33.3,13.1,38,12,43,12s9.7,1.1,13.9,3.1C50.6,1.3,43,0.8,43,0.8z"/>
	</g>
	<path class="st44" d="M41.6,2.9c-2.9,0-9.7,7.9-13.9,23c-8.4,29.8-5.2,68.9-1.3,98.3c0.9,7.2,5.7,37.4,5.7,37.4h8
		C40,161.6,50.7,2.9,41.6,2.9z"/>
	<path class="st37" d="M45,188.6c0,2.3-0.2,4.1-2,4.1l0,0c-1.5,0-2-1.8-2-4.1l-4.2-71c0-2.3,3.9-4.1,6.2-4.1l0,0
		c2.3,0,6.2,1.8,6.2,4.1L45,188.6z"/>
	<g>
		<path class="st42" d="M50.1,87.3c0,3.8-3,6.8-6.8,6.8s-6.8-3-6.8-6.8s3-6.8,6.8-6.8S50.1,83.5,50.1,87.3z"/>
		<path class="st37" d="M49.8,86.7c0,3.8-3,6.8-6.8,6.8s-6.8-3-6.8-6.8s3-6.8,6.8-6.8S49.8,82.9,49.8,86.7z"/>
		<path class="st45" d="M47.9,86.7c0,2.7-2.2,4.9-4.9,4.9s-4.9-2.2-4.9-4.9s2.2-4.9,4.9-4.9C45.7,81.8,47.9,84,47.9,86.7z"/>
		<g class="st46">
			<path class="st47" d="M46.6,83.4c-0.9-1-2.2-1.6-3.6-1.6c-2.7,0-4.9,2.2-4.9,4.9c0,0.5,0.1,1,0.2,1.4
				C38.9,86.4,40.8,83,46.6,83.4z"/>
		</g>
		<path class="st48" d="M41.5,87c0,0.4-0.4,0.8-0.8,0.8c-0.4,0-0.8-0.4-0.8-0.8s0.4-0.8,0.8-0.8S41.5,86.5,41.5,87z"/>
	</g>
	<g>
		<path class="st42" d="M58.9,58.5c0,8.4-6.8,15.2-15.2,15.2s-15.2-6.8-15.2-15.2s6.8-15.2,15.2-15.2S58.9,50.1,58.9,58.5z"/>
		<path class="st37" d="M58.2,57.2c0,8.4-6.8,15.2-15.2,15.2s-15.2-6.8-15.2-15.2S34.6,42,43,42C51.4,42,58.2,48.8,58.2,57.2z"/>
		<path class="st45" d="M53.9,57.2c0,6-4.9,10.9-10.9,10.9s-10.9-4.9-10.9-10.9S37,46.3,43,46.3C49,46.2,53.9,51.1,53.9,57.2z"/>
		<g class="st46">
			<path class="st47" d="M51.1,49.9c-2-2.2-4.9-3.7-8.1-3.7c-6,0-10.9,4.9-10.9,10.9c0,1.1,0.2,2.2,0.5,3.2
				C33.9,56.5,38.1,48.9,51.1,49.9z"/>
		</g>
		<path class="st48" d="M41.9,53.3c0,1.2-0.9,2.1-2.1,2.1c-1.2,0-2.1-0.9-2.1-2.1s0.9-2.1,2.1-2.1C41,51.2,41.9,52.2,41.9,53.3z"/>
		<path class="st48" d="M38.7,58.3c0,0.7-0.6,1.3-1.3,1.3s-1.3-0.6-1.3-1.3s0.6-1.3,1.3-1.3C38.1,57,38.7,57.6,38.7,58.3z"/>
	</g>
	<g>
		<path class="st49" d="M44,30.9c0,0.5-0.4,0.9-0.9,0.9s-0.9-0.4-0.9-0.9s0.4-0.9,0.9-0.9C43.5,30,44,30.4,44,30.9z"/>
		<path class="st43" d="M43.8,30.9c0,0.4-0.3,0.8-0.8,0.8c-0.4,0-0.8-0.3-0.8-0.8c0-0.4,0.3-0.8,0.8-0.8
			C43.4,30.1,43.8,30.5,43.8,30.9z"/>
	</g>
	<g>
		<path class="st49" d="M49.5,31.5c0,0.5-0.4,0.9-1,0.9c-0.5,0-0.9-0.4-0.9-0.9s0.4-0.9,0.9-0.9C49.1,30.5,49.5,31,49.5,31.5z"/>
		<path class="st43" d="M49.3,31.5c0,0.4-0.3,0.8-0.8,0.8c-0.4,0-0.8-0.3-0.8-0.8c0-0.4,0.3-0.8,0.8-0.8S49.3,31.1,49.3,31.5z"/>
	</g>
	<g>
		<path class="st49" d="M54.8,32.7c0,0.5-0.4,0.9-0.9,0.9s-1-0.4-1-0.9s0.4-0.9,1-0.9C54.4,31.7,54.8,32.1,54.8,32.7z"/>
		<path class="st43" d="M54.6,32.7c0,0.4-0.3,0.8-0.8,0.8c-0.4,0-0.8-0.3-0.8-0.8s0.3-0.8,0.8-0.8S54.6,32.2,54.6,32.7z"/>
	</g>
	<g>
		<path class="st49" d="M59.8,34.8c0,0.5-0.4,0.9-0.9,0.9S58,35.3,58,34.8s0.4-0.9,0.9-0.9C59.4,33.8,59.8,34.2,59.8,34.8z"/>
		<path class="st43" d="M59.6,34.8c0,0.4-0.3,0.8-0.8,0.8c-0.4,0-0.8-0.3-0.8-0.8c0-0.4,0.3-0.8,0.8-0.8S59.6,34.3,59.6,34.8z"/>
	</g>
	<g>
		<path class="st49" d="M36.2,31.5c0,0.5,0.4,0.9,0.9,0.9S38,32,38,31.5s-0.4-0.9-0.9-0.9C36.6,30.5,36.2,31,36.2,31.5z"/>
		<path class="st43" d="M36.4,31.5c0,0.4,0.3,0.8,0.8,0.8c0.4,0,0.8-0.3,0.8-0.8c0-0.4-0.3-0.8-0.8-0.8
			C36.7,30.7,36.4,31.1,36.4,31.5z"/>
	</g>
	<g>
		<path class="st49" d="M30.9,32.7c0,0.5,0.4,0.9,0.9,0.9c0.5,0,0.9-0.4,0.9-0.9s-0.4-0.9-0.9-0.9C31.3,31.7,30.9,32.1,30.9,32.7z"
			/>
		<path class="st43" d="M31.1,32.7c0,0.4,0.3,0.8,0.8,0.8c0.4,0,0.8-0.3,0.8-0.8s-0.3-0.8-0.8-0.8C31.4,31.9,31.1,32.2,31.1,32.7z"
			/>
	</g>
	<g>
		<path class="st49" d="M25.9,34.8c0,0.5,0.4,0.9,0.9,0.9s0.9-0.4,0.9-0.9s-0.4-0.9-0.9-0.9C26.4,33.8,25.9,34.2,25.9,34.8z"/>
		<path class="st43" d="M26.1,34.8c0,0.4,0.3,0.8,0.8,0.8c0.4,0,0.8-0.3,0.8-0.8c0-0.4-0.3-0.8-0.8-0.8C26.5,34,26.1,34.3,26.1,34.8
			z"/>
	</g>
	<g>
		<path class="st49" d="M26.3,102.2c0,0.5-0.4,0.9-0.9,0.9s-0.9-0.4-0.9-0.9s0.4-0.9,0.9-0.9S26.3,101.7,26.3,102.2z"/>
		<path class="st43" d="M26.1,102.2c0,0.4-0.3,0.8-0.8,0.8c-0.4,0-0.8-0.3-0.8-0.8c0-0.4,0.3-0.8,0.8-0.8
			C25.8,101.5,26.1,101.8,26.1,102.2z"/>
	</g>
	<g>
		<path class="st49" d="M30.2,102.2c0,0.5-0.4,0.9-0.9,0.9s-0.9-0.4-0.9-0.9s0.4-0.9,0.9-0.9S30.2,101.7,30.2,102.2z"/>
		<path class="st43" d="M30.1,102.2c0,0.4-0.3,0.8-0.8,0.8c-0.4,0-0.8-0.3-0.8-0.8c0-0.4,0.3-0.8,0.8-0.8
			C29.7,101.5,30.1,101.8,30.1,102.2z"/>
	</g>
	<g>
		<path class="st49" d="M34.1,102.2c0,0.5-0.4,0.9-0.9,0.9s-0.9-0.4-0.9-0.9s0.4-0.9,0.9-0.9C33.7,101.3,34.1,101.7,34.1,102.2z"/>
		<path class="st43" d="M34,102.2c0,0.4-0.3,0.8-0.8,0.8c-0.4,0-0.8-0.3-0.8-0.8c0-0.4,0.3-0.8,0.8-0.8
			C33.6,101.5,34,101.8,34,102.2z"/>
	</g>
	<g>
		<path class="st49" d="M38,102.2c0,0.5-0.4,0.9-0.9,0.9s-0.9-0.4-0.9-0.9s0.4-0.9,0.9-0.9S38,101.7,38,102.2z"/>
		<path class="st43" d="M37.9,102.2c0,0.4-0.3,0.8-0.8,0.8c-0.4,0-0.8-0.3-0.8-0.8c0-0.4,0.3-0.8,0.8-0.8
			C37.5,101.5,37.9,101.8,37.9,102.2z"/>
	</g>
	<g>
		<path class="st49" d="M41.9,102.2c0,0.5-0.4,0.9-0.9,0.9s-0.9-0.4-0.9-0.9s0.4-0.9,0.9-0.9C41.5,101.3,41.9,101.7,41.9,102.2z"/>
		<path class="st43" d="M41.8,102.2c0,0.4-0.3,0.8-0.8,0.8c-0.4,0-0.8-0.3-0.8-0.8c0-0.4,0.3-0.8,0.8-0.8
			C41.4,101.5,41.8,101.8,41.8,102.2z"/>
	</g>
	<g>
		<path class="st49" d="M45.8,102.2c0,0.5-0.4,0.9-0.9,0.9s-0.9-0.4-0.9-0.9s0.4-0.9,0.9-0.9S45.8,101.7,45.8,102.2z"/>
		<path class="st43" d="M45.7,102.2c0,0.4-0.3,0.8-0.8,0.8c-0.4,0-0.8-0.3-0.8-0.8c0-0.4,0.3-0.8,0.8-0.8
			C45.3,101.5,45.7,101.8,45.7,102.2z"/>
	</g>
	<g>
		<path class="st49" d="M49.8,102.2c0,0.5-0.4,0.9-0.9,0.9s-0.9-0.4-0.9-0.9s0.4-0.9,0.9-0.9C49.3,101.3,49.8,101.7,49.8,102.2z"/>
		<path class="st43" d="M49.6,102.2c0,0.4-0.3,0.8-0.8,0.8c-0.4,0-0.8-0.3-0.8-0.8c0-0.4,0.3-0.8,0.8-0.8
			C49.2,101.5,49.6,101.8,49.6,102.2z"/>
	</g>
	<g>
		<path class="st49" d="M53.7,102.2c0,0.5-0.4,0.9-0.9,0.9s-0.9-0.4-0.9-0.9s0.4-0.9,0.9-0.9C53.2,101.3,53.7,101.7,53.7,102.2z"/>
		<path class="st43" d="M53.5,102.2c0,0.4-0.3,0.8-0.8,0.8c-0.4,0-0.8-0.3-0.8-0.8c0-0.4,0.3-0.8,0.8-0.8
			C53.1,101.5,53.5,101.8,53.5,102.2z"/>
	</g>
	<g>
		<path class="st49" d="M57.6,102.2c0,0.5-0.4,0.9-0.9,0.9s-0.9-0.4-0.9-0.9s0.4-0.9,0.9-0.9C57.1,101.3,57.6,101.7,57.6,102.2z"/>
		<path class="st43" d="M57.4,102.2c0,0.4-0.3,0.8-0.8,0.8c-0.4,0-0.8-0.3-0.8-0.8c0-0.4,0.3-0.8,0.8-0.8
			C57,101.5,57.4,101.8,57.4,102.2z"/>
	</g>
	<g>
		<path class="st49" d="M61.5,102.2c0,0.5-0.4,0.9-0.9,0.9s-0.9-0.4-0.9-0.9s0.4-0.9,0.9-0.9C61,101.3,61.5,101.7,61.5,102.2z"/>
		<path class="st43" d="M61.3,102.2c0,0.4-0.3,0.8-0.8,0.8c-0.4,0-0.8-0.3-0.8-0.8c0-0.4,0.3-0.8,0.8-0.8
			C60.9,101.5,61.3,101.8,61.3,102.2z"/>
	</g>
	<path class="st36" d="M47.4,117.9c0,1.4-2,16-4.4,16s-4.4-14.6-4.4-16s2-3.3,4.4-3.3C45.4,114.5,47.4,116.4,47.4,117.9z"/>
</g>
</svg>
