<?xml version="1.0" encoding="utf-8"?>
<!-- Generator: Adobe Illustrator 22.0.0, SVG Export Plug-In . SVG Version: 6.00 Build 0)  -->
<svg version="1.1" id="Layer_1" xmlns="http://www.w3.org/2000/svg" xmlns:xlink="http://www.w3.org/1999/xlink" x="0px" y="0px"
	 viewBox="0 0 87.3 381.3" style="enable-background:new 0 0 87.3 381.3;" xml:space="preserve">
<style type="text/css">
	.st0{display:none;}
	.st1{display:inline;}
	.st2{clip-path:url(#SVGID_2_);fill:url(#SVGID_3_);}
	.st3{clip-path:url(#SVGID_5_);}
	.st4{opacity:0.15;fill:#FFFFFF;enable-background:new    ;}
	.st5{clip-path:url(#SVGID_7_);fill:url(#SVGID_8_);}
	.st6{clip-path:url(#SVGID_10_);fill:#A0E0EF;}
	.st7{clip-path:url(#SVGID_12_);fill:#BAEAF2;}
	.st8{clip-path:url(#SVGID_14_);fill:#FFDF6E;}
	.st9{clip-path:url(#SVGID_16_);fill:#FEFEC9;}
	.st10{clip-path:url(#SVGID_18_);fill:#FEFEC9;}
	.st11{clip-path:url(#SVGID_20_);fill:#FEFEC9;}
	.st12{clip-path:url(#SVGID_22_);fill:#FEFEC9;}
	.st13{clip-path:url(#SVGID_24_);fill:#FEFEC9;}
	.st14{clip-path:url(#SVGID_26_);fill:#FEFEC9;}
	.st15{clip-path:url(#SVGID_28_);fill:#FEFEC9;}
	.st16{clip-path:url(#SVGID_30_);fill:#FEFEC9;}
	.st17{clip-path:url(#SVGID_32_);fill:#FEFEC9;}
	.st18{clip-path:url(#SVGID_34_);fill:#FEFEC9;}
	.st19{clip-path:url(#SVGID_36_);fill:#FEFEC9;}
	.st20{clip-path:url(#SVGID_38_);fill:#FEFEC9;}
	.st21{clip-path:url(#SVGID_40_);fill:#FEFEC9;}
	.st22{clip-path:url(#SVGID_42_);fill:#FEFEC9;}
	.st23{clip-path:url(#SVGID_44_);fill:#FEFEC9;}
	.st24{clip-path:url(#SVGID_46_);fill:#FEFEC9;}
	.st25{clip-path:url(#SVGID_48_);fill:#FEFEC9;}
	.st26{clip-path:url(#SVGID_50_);fill:#FEFEC9;}
	.st27{clip-path:url(#SVGID_52_);fill:#FEFEC9;}
	.st28{clip-path:url(#SVGID_54_);fill:#FEFEC9;}
	.st29{clip-path:url(#SVGID_56_);fill:#FEFEC9;}
	.st30{clip-path:url(#SVGID_58_);fill:#FEFEC9;}
	.st31{clip-path:url(#SVGID_60_);fill:#FEFEC9;}
	.st32{clip-path:url(#SVGID_62_);fill:url(#SVGID_63_);}
	.st33{clip-path:url(#SVGID_65_);fill:#FEFEC9;}
	.st34{clip-path:url(#SVGID_67_);fill:#FEFEC9;}
	.st35{fill:#591F2A;}
	.st36{fill:#EB4764;}
	.st37{fill:#BE2843;}
	.st38{fill:url(#SVGID_68_);}
	.st39{fill:url(#SVGID_69_);}
	.st40{fill:#F8EBC4;}
	.st41{fill:#8C1E31;}
	.st42{fill:#541823;}
	.st43{fill:#FFB261;}
	.st44{display:none;opacity:0.25;fill:#FFFCA0;enable-background:new    ;}
	.st45{fill:#A1E0FF;}
	.st46{opacity:0.65;}
	.st47{fill:#66CCFF;}
	.st48{fill:#FFFFFF;}
	.st49{fill:#CC8B96;}
</style>
<g class="st0">
	<g class="st1">
		<g>
			<defs>
				<rect id="SVGID_1_" x="-185.7" y="-68.7" width="450" height="450"/>
			</defs>
			<clipPath id="SVGID_2_">
				<use xlink:href="#SVGID_1_"  style="overflow:visible;"/>
			</clipPath>
			
				<linearGradient id="SVGID_3_" gradientUnits="userSpaceOnUse" x1="-150.8293" y1="383.5412" x2="240.6511" y2="871.0159" gradientTransform="matrix(1 0 0 1 0 -464)">
				<stop  offset="0.2484" style="stop-color:#00A2A9"/>
				<stop  offset="0.5144" style="stop-color:#00858A"/>
				<stop  offset="0.8007" style="stop-color:#028489"/>
				<stop  offset="0.9037" style="stop-color:#097F85"/>
				<stop  offset="0.9769" style="stop-color:#14787D"/>
				<stop  offset="1" style="stop-color:#1A747A"/>
			</linearGradient>
			<rect x="-185.7" y="-68.7" class="st2" width="450" height="450"/>
		</g>
	</g>
	<g class="st1">
		<g>
			<defs>
				<rect id="SVGID_4_" x="-185.7" y="-68.7" width="450" height="450"/>
			</defs>
			<clipPath id="SVGID_5_">
				<use xlink:href="#SVGID_4_"  style="overflow:visible;"/>
			</clipPath>
			<g class="st3">
				<circle class="st4" cx="-38" cy="-7.8" r="252.2"/>
				<circle class="st4" cx="-71.8" cy="-54.5" r="252.2"/>
				<ellipse class="st4" cx="-99.8" cy="-97" rx="252.2" ry="252.2"/>
			</g>
		</g>
	</g>
	<g class="st1">
		<g>
			<defs>
				<rect id="SVGID_6_" x="-185.7" y="-68.7" width="450" height="450"/>
			</defs>
			<clipPath id="SVGID_7_">
				<use xlink:href="#SVGID_6_"  style="overflow:visible;"/>
			</clipPath>
			
				<linearGradient id="SVGID_8_" gradientUnits="userSpaceOnUse" x1="160.5499" y1="708.4659" x2="298.6719" y2="827.5051" gradientTransform="matrix(1 0 0 1 0 -464)">
				<stop  offset="0" style="stop-color:#7CE1EE"/>
				<stop  offset="0.2999" style="stop-color:#A6E0EE"/>
				<stop  offset="0.4734" style="stop-color:#BADFEE"/>
				<stop  offset="0.8424" style="stop-color:#D4EFFA"/>
			</linearGradient>
			<path class="st5" d="M247.1,127.2c-10.4,14.1-7.5,34,6.6,44.5c0.3,0.2,0.6,0.4,0.9,0.7c-1.7,1.1-3.3,2.5-4.6,4.2
				c-3.4,4.6-4.1,10.5-2.4,15.6c-10-4-21.9-1-28.6,8.1c-3.1,4.2-4.6,9-4.8,13.8c-15-3.5-31.4,2-41.1,15.2
				c-13.1,17.7-9.4,42.7,8.3,55.9c1.6,1.2,3.3,2.3,5,3.2c-8-0.1-15.9,3.5-21.1,10.5c-4.7,6.4-6.1,14.2-4.4,21.3
				c-13.8-6.2-30.5-2.2-39.9,10.4c-10.8,14.6-7.7,35.1,6.9,45.9c0.6,0.5,1.3,0.9,1.9,1.3c-5.3,0.7-10.2,3.5-13.6,8.1
				c-4.4,5.9-5.1,13.4-2.6,19.7c-10-1.3-20.4,2.8-26.8,11.5c-3.3,4.5,185.3,18.9,214.6-42.5c38.8-81.3,4-243.4-10.1-253.9
				C277.4,110.1,257.5,113,247.1,127.2z"/>
		</g>
	</g>
	<g class="st1">
		<g>
			<defs>
				<rect id="SVGID_9_" x="-185.7" y="-68.7" width="450" height="450"/>
			</defs>
			<clipPath id="SVGID_10_">
				<use xlink:href="#SVGID_9_"  style="overflow:visible;"/>
			</clipPath>
			<path class="st6" d="M228.1,367.9c12.5-20.2,6.2-46.7-14-59.1c-20.2-12.5-46.7-6.2-59.1,14c-1.9,3-3.3,6.2-4.4,9.5
				c-22.2-13.6-42.1-8.1-54.1,7.7c2.5-7.4-0.3-15.8-7.2-20.1c-8-5-18.6-2.5-23.6,5.6c-1.4,2.3-2.2,4.8-2.4,7.3
				c-10.3-4.6-21.8-3.9-31.3,1.3c-1-6.9-5-13.4-11.4-17.4c-9.4-5.8-21-4.5-29,2.3c-1.3-2.8-3.4-5.2-6.2-6.9c-4.2-2.6-9.2-3-13.5-1.6
				c0.9-9-3.2-18.1-11.4-23.2c-4.8-3-10.2-4-15.4-3.4c3.4-11.9-1.4-25.1-12.4-31.9c-10.2-6.3-22.9-5.3-32,1.5
				c-1-7.1-5.1-13.7-11.7-17.8c-9.2-5.7-20.6-4.7-28.7,1.5c0.3-6.7-2.9-13.4-9.1-17.2c-0.7-0.4-1.4-0.8-2.1-1.1l0.1-0.1
				c8.8-14.3,4.4-33.1-9.9-41.9c-8.8-5.4-19.3-5.8-28.2-2c2.6-8.1,0.5-17-5.4-23.1c2.4-1.4,4.5-3.3,6-5.8c4.9-8,2.4-18.4-5.5-23.4
				c-8-4.9-18.4-2.4-23.4,5.5c-3.5,5.7-3.2,12.5,0,17.8c-5.2,1.6-9.8,4.9-12.8,9.8c-5.2,8.4-14.8,32.6-19.7,40.5
				c-9.1,14.7-4.5,33.9,10.2,43c4.4,2.7,9.2,4.2,14.1,4.6c1.7,3,4.1,5.6,7.2,7.5c5.5,3.4,11.9,3.9,17.5,1.9
				c0.8,5.5,3.9,10.5,8.9,13.6c5.2,3.2,11.3,3.6,16.7,1.7c0.3,5.4,3.1,10.6,8.1,13.7c3.1,1.9,6.6,2.7,9.9,2.5
				c0.7,7,4.5,13.6,11,17.6c7.2,4.4,15.9,4.5,22.9,0.9c1.6,2.3,3.6,4.3,6.2,5.9c4.7,2.9,10,3.6,15,2.6c1.2,4.9,4.2,9.3,8.8,12.1
				c4.8,2.9,10.4,3.6,15.8,2.1c6.6-1.8,5.7-1.5,6.8,4.2c1.2,6.5,2.9,11.9,8.9,15.6c7.7,4.7,16.6,0.9,23.4-4.2
				c-3.5,10.6-3.2,22.7,7.6,29.3c7.4,4.5,16.5,4,23.1-0.7c0.2,7.4,4.1,14.6,10.9,18.8c6.4,3.9,11.6,2.3,18.4,2.8
				c10.1,0.8,12.9,13.3,20.8,18.2c4.7,2.9,10.1,4,15.2,3.5c2.7,3.3,6.1,6.3,9.9,8.7c3.7,2.3,7.6,3.9,11.6,4.8
				c4.9,7.5,11.4,14,19.5,19c29.5,18.2,68.2,9,86.5-20.5c7.1-11.5,10-24.4,9.2-36.9C207.6,387.4,220.5,380.3,228.1,367.9z"/>
		</g>
	</g>
	<g class="st1">
		<g>
			<defs>
				<rect id="SVGID_11_" x="-185.7" y="-68.7" width="450" height="450"/>
			</defs>
			<clipPath id="SVGID_12_">
				<use xlink:href="#SVGID_11_"  style="overflow:visible;"/>
			</clipPath>
			<path class="st7" d="M249,242.9c-17.6,0-31.8,14.2-31.8,31.8c0,0.4,0,0.8,0,1.2c-1.9-0.7-4-1.2-6.1-1.2c-5.8,0-10.9,2.9-13.9,7.3
				c-2.7-10.5-12.2-18.2-23.5-18.2c-5.2,0-10,1.6-13.9,4.4c-6.1-14.1-20.2-24-36.7-24c-22.1,0-39.9,17.9-39.9,39.9
				c0,2,0.2,4,0.4,5.9c-4.7-6.5-12.3-10.7-21-10.7c-7.9,0-15,3.6-19.8,9.2c-3.2-14.8-16.3-25.9-32.1-25.9
				c-18.1,0-32.8,14.7-32.8,32.8c0,0.8,0,1.6,0.1,2.3c-3.7-3.8-8.9-6.1-14.6-6.1c-7.3,0-13.8,3.9-17.4,9.7
				c-4.9-8.8-14.4-14.8-25.2-14.8c-5.6,0-10.8,1.6-15.2,4.3c-2.5-24.4-23.3-43.5-48.5-43.5c-6.6,0-12.8,1.3-18.6,3.7
				c0-0.4,0.1-0.7,0.1-1.1c0-11.3-9.2-20.5-20.5-20.5s-20.5,9.2-20.5,20.5c0,4.9,1.7,9.4,4.6,12.9c-2.9,3.5-4.6,8-4.6,12.9
				c0,7.8-11.7,160.2,15.2,160.2c13.8,0,422.7-3.2,454.7-3.2c17.6,0,13.2-140.3,13.2-157.9C280.8,257.1,266.5,242.9,249,242.9z"/>
		</g>
	</g>
	<g class="st1">
		<g>
			<defs>
				<rect id="SVGID_13_" x="-185.7" y="-68.7" width="450" height="450"/>
			</defs>
			<clipPath id="SVGID_14_">
				<use xlink:href="#SVGID_13_"  style="overflow:visible;"/>
			</clipPath>
			<circle class="st8" cx="-74.2" cy="-11" r="21"/>
		</g>
	</g>
	<g class="st1">
		<g>
			<defs>
				<rect id="SVGID_15_" x="-185.7" y="-68.7" width="450" height="450"/>
			</defs>
			<clipPath id="SVGID_16_">
				<use xlink:href="#SVGID_15_"  style="overflow:visible;"/>
			</clipPath>
			<polygon class="st9" points="182.5,58.1 188.7,60.4 182.5,62.7 180.2,68.9 177.8,62.7 171.7,60.4 177.8,58.1 180.2,51.9 			"/>
		</g>
	</g>
	<g class="st1">
		<g>
			<defs>
				<rect id="SVGID_17_" x="-185.7" y="-68.7" width="450" height="450"/>
			</defs>
			<clipPath id="SVGID_18_">
				<use xlink:href="#SVGID_17_"  style="overflow:visible;"/>
			</clipPath>
			<polygon class="st10" points="-154.8,32.5 -148.7,34.8 -154.8,37.1 -157.2,43.3 -159.5,37.1 -165.7,34.8 -159.5,32.5 
				-157.2,26.3 			"/>
		</g>
	</g>
	<g class="st1">
		<g>
			<defs>
				<rect id="SVGID_19_" x="-185.7" y="-68.7" width="450" height="450"/>
			</defs>
			<clipPath id="SVGID_20_">
				<use xlink:href="#SVGID_19_"  style="overflow:visible;"/>
			</clipPath>
			<polygon class="st11" points="140.1,139.7 143,140.3 140.1,140.9 139.5,145.8 138.9,140.9 136.2,140.3 138.9,139.7 139.5,133.7 
							"/>
		</g>
	</g>
	<g class="st1">
		<g>
			<defs>
				<rect id="SVGID_21_" x="-185.7" y="-68.7" width="450" height="450"/>
			</defs>
			<clipPath id="SVGID_22_">
				<use xlink:href="#SVGID_21_"  style="overflow:visible;"/>
			</clipPath>
			<polygon class="st12" points="119.1,-35.6 122,-35 119.1,-34.5 118.5,-29.6 117.9,-34.5 115.2,-35 117.9,-35.6 118.5,-41.7 			
				"/>
		</g>
	</g>
	<g class="st1">
		<g>
			<defs>
				<rect id="SVGID_23_" x="-185.7" y="-68.7" width="450" height="450"/>
			</defs>
			<clipPath id="SVGID_24_">
				<use xlink:href="#SVGID_23_"  style="overflow:visible;"/>
			</clipPath>
			<polygon class="st13" points="-73.4,268.8 -69.2,269.7 -73.4,270.6 -74.3,277.7 -75.1,270.6 -79.1,269.7 -75.1,268.8 
				-74.3,260.1 			"/>
		</g>
	</g>
	<g class="st1">
		<g>
			<defs>
				<rect id="SVGID_25_" x="-185.7" y="-68.7" width="450" height="450"/>
			</defs>
			<clipPath id="SVGID_26_">
				<use xlink:href="#SVGID_25_"  style="overflow:visible;"/>
			</clipPath>
			<polygon class="st14" points="-73.7,78.6 -70.8,79.2 -73.7,79.8 -74.3,84.7 -74.9,79.8 -77.6,79.2 -74.9,78.6 -74.3,72.6 			"/>
		</g>
	</g>
	<g class="st1">
		<g>
			<defs>
				<rect id="SVGID_27_" x="-185.7" y="-68.7" width="450" height="450"/>
			</defs>
			<clipPath id="SVGID_28_">
				<use xlink:href="#SVGID_27_"  style="overflow:visible;"/>
			</clipPath>
			<polygon class="st15" points="-6,-11 -3.2,-10.5 -6,-9.9 -6.6,-5 -7.2,-9.9 -9.9,-10.5 -7.2,-11 -6.6,-17.1 			"/>
		</g>
	</g>
	<g class="st1">
		<g>
			<defs>
				<rect id="SVGID_29_" x="-185.7" y="-68.7" width="450" height="450"/>
			</defs>
			<clipPath id="SVGID_30_">
				<use xlink:href="#SVGID_29_"  style="overflow:visible;"/>
			</clipPath>
			<polygon class="st16" points="233.7,0.3 237.6,1.7 233.7,3.2 232.3,7 230.9,3.2 227,1.7 230.9,0.3 232.3,-3.6 			"/>
		</g>
	</g>
	<g class="st1">
		<g>
			<defs>
				<rect id="SVGID_31_" x="-185.7" y="-68.7" width="450" height="450"/>
			</defs>
			<clipPath id="SVGID_32_">
				<use xlink:href="#SVGID_31_"  style="overflow:visible;"/>
			</clipPath>
			<polygon class="st17" points="-41.9,309.1 -38.3,310.4 -41.9,311.8 -43.3,315.5 -44.6,311.8 -48.3,310.4 -44.6,309.1 
				-43.3,305.4 			"/>
		</g>
	</g>
	<g class="st1">
		<g>
			<defs>
				<rect id="SVGID_33_" x="-185.7" y="-68.7" width="450" height="450"/>
			</defs>
			<clipPath id="SVGID_34_">
				<use xlink:href="#SVGID_33_"  style="overflow:visible;"/>
			</clipPath>
			<polygon class="st18" points="-35.8,183 -30.7,184.9 -35.8,186.8 -37.7,191.9 -39.6,186.8 -44.7,184.9 -39.6,183 -37.7,178 			
				"/>
		</g>
	</g>
	<g class="st1">
		<g>
			<defs>
				<rect id="SVGID_35_" x="-185.7" y="-68.7" width="450" height="450"/>
			</defs>
			<clipPath id="SVGID_36_">
				<use xlink:href="#SVGID_35_"  style="overflow:visible;"/>
			</clipPath>
			<polygon class="st19" points="105.4,300.3 107.2,301 105.4,301.7 104.8,303.5 104.1,301.7 102.3,301 104.1,300.3 104.8,298.6 			
				"/>
		</g>
	</g>
	<g class="st1">
		<g>
			<defs>
				<rect id="SVGID_37_" x="-185.7" y="-68.7" width="450" height="450"/>
			</defs>
			<clipPath id="SVGID_38_">
				<use xlink:href="#SVGID_37_"  style="overflow:visible;"/>
			</clipPath>
			<polygon class="st20" points="-122.1,53.5 -120.3,54.1 -122.1,54.8 -122.8,56.6 -123.4,54.8 -125.2,54.1 -123.4,53.5 
				-122.8,51.7 			"/>
		</g>
	</g>
	<g class="st1">
		<g>
			<defs>
				<rect id="SVGID_39_" x="-185.7" y="-68.7" width="450" height="450"/>
			</defs>
			<clipPath id="SVGID_40_">
				<use xlink:href="#SVGID_39_"  style="overflow:visible;"/>
			</clipPath>
			<polygon class="st21" points="-119.6,182.6 -117.8,183.3 -119.6,183.9 -120.3,185.7 -121,183.9 -122.8,183.3 -121,182.6 
				-120.3,180.8 			"/>
		</g>
	</g>
	<g class="st1">
		<g>
			<defs>
				<rect id="SVGID_41_" x="-185.7" y="-68.7" width="450" height="450"/>
			</defs>
			<clipPath id="SVGID_42_">
				<use xlink:href="#SVGID_41_"  style="overflow:visible;"/>
			</clipPath>
			<polygon class="st22" points="-23.5,259.4 -21.7,260.1 -23.5,260.7 -24.1,262.5 -24.8,260.7 -26.6,260.1 -24.8,259.4 
				-24.1,257.6 			"/>
		</g>
	</g>
	<g class="st1">
		<g>
			<defs>
				<rect id="SVGID_43_" x="-185.7" y="-68.7" width="450" height="450"/>
			</defs>
			<clipPath id="SVGID_44_">
				<use xlink:href="#SVGID_43_"  style="overflow:visible;"/>
			</clipPath>
			<polygon class="st23" points="107.9,213.2 109.7,213.9 107.9,214.5 107.2,216.3 106.5,214.5 104.8,213.9 106.5,213.2 
				107.2,211.4 			"/>
		</g>
	</g>
	<g class="st1">
		<g>
			<defs>
				<rect id="SVGID_45_" x="-185.7" y="-68.7" width="450" height="450"/>
			</defs>
			<clipPath id="SVGID_46_">
				<use xlink:href="#SVGID_45_"  style="overflow:visible;"/>
			</clipPath>
			<polygon class="st24" points="200.7,-32.7 202.5,-32 200.7,-31.3 200.1,-29.6 199.4,-31.3 197.6,-32 199.4,-32.7 200.1,-34.5 			
				"/>
		</g>
	</g>
	<g class="st1">
		<g>
			<defs>
				<rect id="SVGID_47_" x="-185.7" y="-68.7" width="450" height="450"/>
			</defs>
			<clipPath id="SVGID_48_">
				<use xlink:href="#SVGID_47_"  style="overflow:visible;"/>
			</clipPath>
			<polygon class="st25" points="158.8,225 162,226.2 158.8,227.4 157.6,230.7 156.4,227.4 153.2,226.2 156.4,225 157.6,221.8 			
				"/>
		</g>
	</g>
	<g class="st1">
		<g>
			<defs>
				<rect id="SVGID_49_" x="-185.7" y="-68.7" width="450" height="450"/>
			</defs>
			<clipPath id="SVGID_50_">
				<use xlink:href="#SVGID_49_"  style="overflow:visible;"/>
			</clipPath>
			<path class="st26" d="M-71,139.7c0,1.2-1,2.1-2.1,2.1s-2.1-1-2.1-2.1s1-2.1,2.1-2.1S-71,138.5-71,139.7z"/>
		</g>
	</g>
	<g class="st1">
		<g>
			<defs>
				<rect id="SVGID_51_" x="-185.7" y="-68.7" width="450" height="450"/>
			</defs>
			<clipPath id="SVGID_52_">
				<use xlink:href="#SVGID_51_"  style="overflow:visible;"/>
			</clipPath>
			<path class="st27" d="M193.6,145.7c0,2.4-1.9,4.3-4.3,4.3s-4.3-1.9-4.3-4.3c0-2.4,1.9-4.3,4.3-4.3
				C191.6,141.4,193.6,143.3,193.6,145.7z"/>
		</g>
	</g>
	<g class="st1">
		<g>
			<defs>
				<rect id="SVGID_53_" x="-185.7" y="-68.7" width="450" height="450"/>
			</defs>
			<clipPath id="SVGID_54_">
				<use xlink:href="#SVGID_53_"  style="overflow:visible;"/>
			</clipPath>
			<path class="st28" d="M159.6,12.3c0,1.1-0.9,2-2,2s-2-0.9-2-2s0.9-2,2-2S159.6,11.2,159.6,12.3z"/>
		</g>
	</g>
	<g class="st1">
		<g>
			<defs>
				<rect id="SVGID_55_" x="-185.7" y="-68.7" width="450" height="450"/>
			</defs>
			<clipPath id="SVGID_56_">
				<use xlink:href="#SVGID_55_"  style="overflow:visible;"/>
			</clipPath>
			<path class="st29" d="M-146.7-29.6c0,1.1-0.9,2-2,2s-2-0.9-2-2s0.9-2,2-2S-146.7-30.7-146.7-29.6z"/>
		</g>
	</g>
	<g class="st1">
		<g>
			<defs>
				<rect id="SVGID_57_" x="-185.7" y="-68.7" width="450" height="450"/>
			</defs>
			<clipPath id="SVGID_58_">
				<use xlink:href="#SVGID_57_"  style="overflow:visible;"/>
			</clipPath>
			<path class="st30" d="M104.3,72.6c0,1.1-0.9,2-2,2s-2-0.9-2-2s0.9-2,2-2S104.3,71.5,104.3,72.6z"/>
		</g>
	</g>
	<g class="st1">
		<g>
			<defs>
				<rect id="SVGID_59_" x="-185.7" y="-68.7" width="450" height="450"/>
			</defs>
			<clipPath id="SVGID_60_">
				<use xlink:href="#SVGID_59_"  style="overflow:visible;"/>
			</clipPath>
			<circle class="st31" cx="-146.7" cy="116.1" r="4.3"/>
		</g>
	</g>
	<g class="st1">
		<g>
			<defs>
				<rect id="SVGID_61_" x="-185.7" y="-68.7" width="450" height="450"/>
			</defs>
			<clipPath id="SVGID_62_">
				<use xlink:href="#SVGID_61_"  style="overflow:visible;"/>
			</clipPath>
			
				<radialGradient id="SVGID_63_" cx="45.302" cy="798.7102" r="289.0335" gradientTransform="matrix(1 0 0 1 0 -464)" gradientUnits="userSpaceOnUse">
				<stop  offset="0" style="stop-color:#FFFFFF"/>
				<stop  offset="6.145435e-02" style="stop-color:#FFFFE0"/>
				<stop  offset="9.813840e-02" style="stop-color:#FFFFCC"/>
				<stop  offset="0.1744" style="stop-color:#F7FDD8"/>
				<stop  offset="0.3422" style="stop-color:#EAF8EC"/>
				<stop  offset="0.5099" style="stop-color:#E3F6F8"/>
				<stop  offset="0.6764" style="stop-color:#E0F5FC"/>
				<stop  offset="0.8227" style="stop-color:#E2F6FC"/>
				<stop  offset="0.8819" style="stop-color:#E9F8FB"/>
				<stop  offset="0.9163" style="stop-color:#F2FBFA"/>
				<stop  offset="1" style="stop-color:#F2FBFC"/>
			</radialGradient>
			<path class="st32" d="M300.7,275.9c0-23.7-19.2-43-43-43c-23.7,0-43,19.2-43,43c0,3.6,0.4,7,1.3,10.3c-26,0.1-40.1,15.2-42,34.9
				c-1.7-7.6-8.5-13.3-16.7-13.3c-9.5,0-17.1,7.7-17.1,17.1c0,2.7,0.6,5.2,1.7,7.5c-11.1,1.5-20.6,8.1-26,17.5
				c-4.5-5.4-11.3-8.8-18.9-8.8c-11,0-20.3,7.2-23.5,17.1c-2.5-1.7-5.6-2.7-8.9-2.7c-5,0-9.4,2.2-12.4,5.8
				c-3.9-8.1-12.2-13.8-21.9-13.8c-5.6,0-10.8,1.9-14.9,5.2c-3.4-11.9-14.3-20.6-27.3-20.6c-12,0-22.3,7.5-26.4,18
				c-4.6-5.5-11.6-9-19.3-9c-10.8,0-20,6.8-23.6,16.3c-3.3-5.9-9.5-9.9-16.7-9.9c-0.8,0-1.6,0.1-2.4,0.2c0-0.1,0-0.1,0-0.2
				c0-16.8-13.6-30.4-30.4-30.4c-10.4,0-19.5,5.2-25,13.1c-2-8.3-8.5-14.8-16.7-16.8c1.3-2.4,2.1-5.2,2.1-8.1c0-9.4-7.6-17-17-17
				s-17,7.6-17,17c0,6.6,3.8,12.4,9.4,15.2c-3.6,4-5.8,9.3-5.8,15.1c0,9.9,4.5,35.5,4.5,44.8c0,17.3,14,31.2,31.2,31.2
				c5.2,0,10.1-1.3,14.4-3.5c3,1.7,6.4,2.6,10,2.6c6.4,0,12.2-3,15.9-7.6c3.5,4.2,8.8,6.9,14.8,6.9c6.1,0,11.5-2.9,15-7.3
				c3.1,4.5,8.2,7.4,14.1,7.4c3.6,0,7-1.1,9.8-3.1c4.3,5.6,11,9.2,18.6,9.2c8.5,0,15.9-4.5,20-11.3c2.5,1.1,5.4,1.8,8.3,1.8
				c5.5,0,10.5-2.2,14.1-5.7c3.6,3.5,8.4,5.7,13.8,5.7c5.6,0,10.8-2.4,14.6-6.5c4.7-5,4.1-4.3,7.9,0c4.4,4.9,8.7,8.6,15.8,8.6
				c9,0,14.6-8,17.7-15.9c2.6,10.8,9.2,21,21.9,21c8.7,0,16.1-5.3,19.3-12.8c4.1,6.2,11.1,10.3,19.1,10.3c7.5,0,11.1-4.1,17.1-7.2
				c9.1-4.6,17.9,4.6,27.3,4.6c5.6,0,10.7-1.9,14.8-5.1c4.1,1.4,8.5,2.2,13,2.2c4.3,0,8.5-0.7,12.4-2c8.1,3.8,17.1,5.9,26.6,5.9
				c34.7,0,62.8-28.1,62.8-62.8c0-13.5-4.3-26-11.5-36.2C293.5,303.2,300.7,290.4,300.7,275.9z"/>
		</g>
	</g>
	<g class="st1">
		<g>
			<defs>
				<rect id="SVGID_64_" x="-185.7" y="-68.7" width="450" height="450"/>
			</defs>
			<clipPath id="SVGID_65_">
				<use xlink:href="#SVGID_64_"  style="overflow:visible;"/>
			</clipPath>
			<polygon class="st33" points="238.4,213.8 242.6,214.7 238.4,215.5 237.5,222.7 236.6,215.5 232.7,214.7 236.6,213.8 237.5,205 
							"/>
		</g>
	</g>
	<g class="st1">
		<g>
			<defs>
				<rect id="SVGID_66_" x="-185.7" y="-68.7" width="450" height="450"/>
			</defs>
			<clipPath id="SVGID_67_">
				<use xlink:href="#SVGID_66_"  style="overflow:visible;"/>
			</clipPath>
			<polygon class="st34" points="-156.4,298.5 -152.2,299.4 -156.4,300.2 -157.3,307.4 -158.1,300.2 -162.1,299.4 -158.1,298.5 
				-157.3,289.7 			"/>
		</g>
	</g>
</g>
<g>
	<g>
		<path class="st35" d="M38.1,152.8l-1.7-7.8l-0.4-1.7c-22.5,6.6-20.6,29-19.7,34.8c0.1-5,1-12.6,5-18.2
			C24.5,155.5,29.7,152.3,38.1,152.8z"/>
		<path class="st35" d="M49.2,152.8l1.7-7.8l0.4-1.7c22.5,6.6,20.6,29,19.7,34.8c-0.1-5-1-12.6-5-18.2
			C62.8,155.5,57.6,152.3,49.2,152.8z"/>
		<g>
			<path class="st36" d="M31.5,122.2L31.5,122.2c-1.2-5.6-6.2-7.8-11.1-4.8c0,0-10,6.1-15.3,20.2C11.1,128.2,22,114.8,31.5,122.2z"
				/>
			<path class="st37" d="M31.5,122.2c-9.5-7.5-20.4,6-26.4,15.4c-3.5,9.4-5,22.3-0.2,39.4c1.5,5.1,3.5,10.6,6.2,16.5
				c3.6,0,6-4.6,5.3-10.3c0,0-0.2-2-0.2-5c-0.9-5.8-2.8-28.3,19.7-34.8l-0.3-1.3L31.5,122.2z"/>
			<path class="st36" d="M82.4,138.1c-5.3-14.5-15.5-20.7-15.5-20.7c-4.6-2.8-9.3-1.1-10.8,3.8C65.4,116.1,76.4,129.2,82.4,138.1z"
				/>
			<path class="st37" d="M56.1,121.2c-0.1,0.3-0.2,0.6-0.3,1L51.5,142l-0.3,1.3c22.5,6.6,20.6,29,19.7,34.8c0.1,3-0.2,5-0.2,5
				c-0.6,5.7,1.8,10.3,5.3,10.3c2.7-5.9,4.7-11.4,6.2-16.5c4.8-16.8,3.4-29.5,0-38.9C76.4,129.2,65.4,116.1,56.1,121.2z"/>
		</g>
	</g>
	<g>
		
			<linearGradient id="SVGID_68_" gradientUnits="userSpaceOnUse" x1="43.9833" y1="608.989" x2="43.9833" y2="855.3425" gradientTransform="matrix(1 0 0 1 0 -464)">
			<stop  offset="0" style="stop-color:#420A0A"/>
			<stop  offset="3.022895e-02" style="stop-color:#5F0E0E"/>
			<stop  offset="9.013334e-02" style="stop-color:#911616"/>
			<stop  offset="0.1465" style="stop-color:#B91D1C"/>
			<stop  offset="0.1978" style="stop-color:#D62120"/>
			<stop  offset="0.2422" style="stop-color:#E82423"/>
			<stop  offset="0.2747" style="stop-color:#EE2524"/>
			<stop  offset="0.3499" style="stop-color:#F13E31"/>
			<stop  offset="0.5087" style="stop-color:#F87E52"/>
			<stop  offset="0.6617" style="stop-color:#FFC175"/>
			<stop  offset="0.6771" style="stop-color:#FFC77C"/>
			<stop  offset="0.7532" style="stop-color:#FFE29A"/>
			<stop  offset="0.8184" style="stop-color:#FFF3AC"/>
			<stop  offset="0.8647" style="stop-color:#FFF9B3"/>
		</linearGradient>
		<polygon class="st38" points="54.2,158.7 44,156.3 33.8,158.7 7.5,381.3 44,381.3 80.4,381.3 		"/>
		
			<linearGradient id="SVGID_69_" gradientUnits="userSpaceOnUse" x1="43.9833" y1="615.796" x2="43.9833" y2="857.0488" gradientTransform="matrix(1 0 0 1 0 -464)">
			<stop  offset="0.297" style="stop-color:#FF6633"/>
			<stop  offset="0.5212" style="stop-color:#FFFF99"/>
			<stop  offset="1" style="stop-color:#FFFFE6"/>
		</linearGradient>
		<polygon class="st39" points="53.8,381.3 34.1,381.3 40.4,160 47.6,160 		"/>
	</g>
	<path class="st40" d="M65.2,93.3c1.4-22.1,0.9-39-0.8-51.7c-5.6-4.4-12.7-7.1-20.5-7.1c-7.7,0-14.8,2.7-20.5,7.1
		c-1.7,12.7-2.2,29.5-0.8,51.7c0.2,2.6,0.4,5.2,0.6,7.9h41.2C64.9,98.5,65,95.8,65.2,93.3z"/>
	<g>
		<path class="st41" d="M64.6,101.2H23.4c0.2,2.4,0.4,4.8,0.7,7.3H64C64.2,106,64.4,103.6,64.6,101.2z"/>
		<path class="st42" d="M24,108.5c0.1,0.6,0.1,1.2,0.2,1.8c8.8,4.4,22.3,5.9,39.5,0.4c0.1-0.8,0.1-1.5,0.2-2.2
			C63.9,108.5,24,108.5,24,108.5z"/>
	</g>
	<path class="st43" d="M24.2,110.3c0.6,6,1.3,12.4,2.2,19.2l35.1,0.6c0.9-6.8,1.6-13.2,2.2-19.3L24.2,110.3z"/>
	<path class="st40" d="M26.4,129.5c1.3,10.3,3,21.4,5.1,33.4c0.1,0.7,0.2,1.4,0.4,2.2H44h12.1c0.1-0.7,0.2-1.4,0.4-2.1
		c2-11.8,3.7-22.8,5-33C45.4,123,33.1,126.3,26.4,129.5z"/>
	<g>
		<path class="st37" d="M62.2,29c-1.3-5.3-2.7-9.6-4.3-13c-4.2-2-8.9-3.1-13.9-3.1S34.3,14,30.1,16c-1.6,3.5-3.1,7.7-4.3,13
			c-0.9,3.7-1.7,7.9-2.3,12.6c5.6-4.4,12.7-7.1,20.5-7.1c7.7,0,14.8,2.7,20.5,7.1C63.8,36.8,63.1,32.7,62.2,29z"/>
		<path class="st43" d="M44,1.6c0,0-7.6,0.5-13.9,14.3c4.2-2,8.9-3.1,13.9-3.1s9.7,1.1,13.9,3.1C51.6,2.1,44,1.6,44,1.6z"/>
	</g>
	<path class="st44" d="M42.6,3.7c-2.9,0-9.7,7.9-13.9,23c-8.4,29.8-5.2,68.9-1.3,98.3c0.9,7.2,5.7,37.4,5.7,37.4h8
		C41,162.4,51.7,3.7,42.6,3.7z"/>
	<path class="st37" d="M46,189.4c0,2.3-0.2,4.1-2,4.1l0,0c-1.5,0-2-1.8-2-4.1l-4.2-71c0-2.3,3.9-4.1,6.2-4.1l0,0
		c2.3,0,6.2,1.8,6.2,4.1L46,189.4z"/>
	<g>
		<path class="st42" d="M51.1,88.1c0,3.8-3,6.8-6.8,6.8s-6.8-3-6.8-6.8s3-6.8,6.8-6.8S51.1,84.3,51.1,88.1z"/>
		<path class="st37" d="M50.8,87.5c0,3.8-3,6.8-6.8,6.8s-6.8-3-6.8-6.8s3-6.8,6.8-6.8S50.8,83.7,50.8,87.5z"/>
		<path class="st45" d="M48.9,87.5c0,2.7-2.2,4.9-4.9,4.9s-4.9-2.2-4.9-4.9s2.2-4.9,4.9-4.9C46.7,82.6,48.9,84.8,48.9,87.5z"/>
		<g class="st46">
			<path class="st47" d="M47.6,84.2c-0.9-1-2.2-1.6-3.6-1.6c-2.7,0-4.9,2.2-4.9,4.9c0,0.5,0.1,1,0.2,1.4
				C39.9,87.2,41.8,83.8,47.6,84.2z"/>
		</g>
		<path class="st48" d="M42.5,87.8c0,0.4-0.4,0.8-0.8,0.8c-0.4,0-0.8-0.4-0.8-0.8s0.4-0.8,0.8-0.8S42.5,87.3,42.5,87.8z"/>
	</g>
	<g>
		<path class="st42" d="M59.9,59.3c0,8.4-6.8,15.2-15.2,15.2s-15.2-6.8-15.2-15.2s6.8-15.2,15.2-15.2S59.9,50.9,59.9,59.3z"/>
		<path class="st37" d="M59.2,58c0,8.4-6.8,15.2-15.2,15.2S28.8,66.4,28.8,58S35.6,42.8,44,42.8C52.4,42.8,59.2,49.6,59.2,58z"/>
		<path class="st45" d="M54.9,58c0,6-4.9,10.9-10.9,10.9S33.1,64,33.1,58S38,47.1,44,47.1C50,47,54.9,51.9,54.9,58z"/>
		<g class="st46">
			<path class="st47" d="M52.1,50.7c-2-2.2-4.9-3.7-8.1-3.7c-6,0-10.9,4.9-10.9,10.9c0,1.1,0.2,2.2,0.5,3.2
				C34.9,57.3,39.1,49.7,52.1,50.7z"/>
		</g>
		<path class="st48" d="M42.9,54.1c0,1.2-0.9,2.1-2.1,2.1c-1.2,0-2.1-0.9-2.1-2.1s0.9-2.1,2.1-2.1C42,52,42.9,53,42.9,54.1z"/>
		<path class="st48" d="M39.7,59.1c0,0.7-0.6,1.3-1.3,1.3s-1.3-0.6-1.3-1.3s0.6-1.3,1.3-1.3C39.1,57.8,39.7,58.4,39.7,59.1z"/>
	</g>
	<g>
		<path class="st49" d="M45,31.7c0,0.5-0.4,0.9-0.9,0.9s-0.9-0.4-0.9-0.9c0-0.5,0.4-0.9,0.9-0.9C44.5,30.8,45,31.2,45,31.7z"/>
		<path class="st43" d="M44.8,31.7c0,0.4-0.3,0.8-0.8,0.8c-0.4,0-0.8-0.3-0.8-0.8c0-0.4,0.3-0.8,0.8-0.8
			C44.4,30.9,44.8,31.3,44.8,31.7z"/>
	</g>
	<g>
		<path class="st49" d="M50.5,32.3c0,0.5-0.4,0.9-1,0.9c-0.5,0-0.9-0.4-0.9-0.9c0-0.5,0.4-0.9,0.9-0.9
			C50.1,31.3,50.5,31.8,50.5,32.3z"/>
		<path class="st43" d="M50.3,32.3c0,0.4-0.3,0.8-0.8,0.8c-0.4,0-0.8-0.3-0.8-0.8c0-0.4,0.3-0.8,0.8-0.8S50.3,31.9,50.3,32.3z"/>
	</g>
	<g>
		<path class="st49" d="M55.8,33.5c0,0.5-0.4,0.9-0.9,0.9s-1-0.4-1-0.9s0.4-0.9,1-0.9C55.4,32.5,55.8,32.9,55.8,33.5z"/>
		<path class="st43" d="M55.6,33.5c0,0.4-0.3,0.8-0.8,0.8c-0.4,0-0.8-0.3-0.8-0.8s0.3-0.8,0.8-0.8S55.6,33,55.6,33.5z"/>
	</g>
	<g>
		<path class="st49" d="M60.8,35.6c0,0.5-0.4,0.9-0.9,0.9S59,36.1,59,35.6s0.4-0.9,0.9-0.9C60.4,34.6,60.8,35,60.8,35.6z"/>
		<path class="st43" d="M60.6,35.6c0,0.4-0.3,0.8-0.8,0.8c-0.4,0-0.8-0.3-0.8-0.8c0-0.4,0.3-0.8,0.8-0.8S60.6,35.1,60.6,35.6z"/>
	</g>
	<g>
		<path class="st49" d="M37.2,32.3c0,0.5,0.4,0.9,0.9,0.9s0.9-0.4,0.9-0.9c0-0.5-0.4-0.9-0.9-0.9C37.6,31.3,37.2,31.8,37.2,32.3z"/>
		<path class="st43" d="M37.4,32.3c0,0.4,0.3,0.8,0.8,0.8c0.4,0,0.8-0.3,0.8-0.8c0-0.4-0.3-0.8-0.8-0.8
			C37.7,31.5,37.4,31.9,37.4,32.3z"/>
	</g>
	<g>
		<path class="st49" d="M31.9,33.5c0,0.5,0.4,0.9,0.9,0.9s0.9-0.4,0.9-0.9s-0.4-0.9-0.9-0.9C32.3,32.5,31.9,32.9,31.9,33.5z"/>
		<path class="st43" d="M32.1,33.5c0,0.4,0.3,0.8,0.8,0.8c0.4,0,0.8-0.3,0.8-0.8s-0.3-0.8-0.8-0.8S32.1,33,32.1,33.5z"/>
	</g>
	<g>
		<path class="st49" d="M26.9,35.6c0,0.5,0.4,0.9,0.9,0.9s0.9-0.4,0.9-0.9s-0.4-0.9-0.9-0.9C27.4,34.6,26.9,35,26.9,35.6z"/>
		<path class="st43" d="M27.1,35.6c0,0.4,0.3,0.8,0.8,0.8c0.4,0,0.8-0.3,0.8-0.8c0-0.4-0.3-0.8-0.8-0.8
			C27.5,34.8,27.1,35.1,27.1,35.6z"/>
	</g>
	<g>
		<path class="st49" d="M27.3,103c0,0.5-0.4,0.9-0.9,0.9s-0.9-0.4-0.9-0.9s0.4-0.9,0.9-0.9S27.3,102.5,27.3,103z"/>
		<path class="st43" d="M27.1,103c0,0.4-0.3,0.8-0.8,0.8c-0.4,0-0.8-0.3-0.8-0.8c0-0.4,0.3-0.8,0.8-0.8
			C26.8,102.3,27.1,102.6,27.1,103z"/>
	</g>
	<g>
		<path class="st49" d="M31.2,103c0,0.5-0.4,0.9-0.9,0.9s-0.9-0.4-0.9-0.9s0.4-0.9,0.9-0.9S31.2,102.5,31.2,103z"/>
		<path class="st43" d="M31.1,103c0,0.4-0.3,0.8-0.8,0.8c-0.4,0-0.8-0.3-0.8-0.8c0-0.4,0.3-0.8,0.8-0.8
			C30.7,102.3,31.1,102.6,31.1,103z"/>
	</g>
	<g>
		<path class="st49" d="M35.1,103c0,0.5-0.4,0.9-0.9,0.9s-0.9-0.4-0.9-0.9s0.4-0.9,0.9-0.9C34.7,102.1,35.1,102.5,35.1,103z"/>
		<path class="st43" d="M35,103c0,0.4-0.3,0.8-0.8,0.8c-0.4,0-0.8-0.3-0.8-0.8c0-0.4,0.3-0.8,0.8-0.8C34.6,102.3,35,102.6,35,103z"
			/>
	</g>
	<g>
		<path class="st49" d="M39,103c0,0.5-0.4,0.9-0.9,0.9s-0.9-0.4-0.9-0.9s0.4-0.9,0.9-0.9S39,102.5,39,103z"/>
		<path class="st43" d="M38.9,103c0,0.4-0.3,0.8-0.8,0.8c-0.4,0-0.8-0.3-0.8-0.8c0-0.4,0.3-0.8,0.8-0.8
			C38.5,102.3,38.9,102.6,38.9,103z"/>
	</g>
	<g>
		<path class="st49" d="M42.9,103c0,0.5-0.4,0.9-0.9,0.9s-0.9-0.4-0.9-0.9s0.4-0.9,0.9-0.9C42.5,102.1,42.9,102.5,42.9,103z"/>
		<path class="st43" d="M42.8,103c0,0.4-0.3,0.8-0.8,0.8c-0.4,0-0.8-0.3-0.8-0.8c0-0.4,0.3-0.8,0.8-0.8
			C42.4,102.3,42.8,102.6,42.8,103z"/>
	</g>
	<g>
		<path class="st49" d="M46.8,103c0,0.5-0.4,0.9-0.9,0.9S45,103.5,45,103s0.4-0.9,0.9-0.9S46.8,102.5,46.8,103z"/>
		<path class="st43" d="M46.7,103c0,0.4-0.3,0.8-0.8,0.8c-0.4,0-0.8-0.3-0.8-0.8c0-0.4,0.3-0.8,0.8-0.8
			C46.3,102.3,46.7,102.6,46.7,103z"/>
	</g>
	<g>
		<path class="st49" d="M50.8,103c0,0.5-0.4,0.9-0.9,0.9S49,103.5,49,103s0.4-0.9,0.9-0.9C50.3,102.1,50.8,102.5,50.8,103z"/>
		<path class="st43" d="M50.6,103c0,0.4-0.3,0.8-0.8,0.8c-0.4,0-0.8-0.3-0.8-0.8c0-0.4,0.3-0.8,0.8-0.8
			C50.2,102.3,50.6,102.6,50.6,103z"/>
	</g>
	<g>
		<path class="st49" d="M54.7,103c0,0.5-0.4,0.9-0.9,0.9s-0.9-0.4-0.9-0.9s0.4-0.9,0.9-0.9C54.2,102.1,54.7,102.5,54.7,103z"/>
		<path class="st43" d="M54.5,103c0,0.4-0.3,0.8-0.8,0.8c-0.4,0-0.8-0.3-0.8-0.8c0-0.4,0.3-0.8,0.8-0.8
			C54.1,102.3,54.5,102.6,54.5,103z"/>
	</g>
	<g>
		<path class="st49" d="M58.6,103c0,0.5-0.4,0.9-0.9,0.9s-0.9-0.4-0.9-0.9s0.4-0.9,0.9-0.9C58.1,102.1,58.6,102.5,58.6,103z"/>
		<path class="st43" d="M58.4,103c0,0.4-0.3,0.8-0.8,0.8c-0.4,0-0.8-0.3-0.8-0.8c0-0.4,0.3-0.8,0.8-0.8
			C58,102.3,58.4,102.6,58.4,103z"/>
	</g>
	<g>
		<path class="st49" d="M62.5,103c0,0.5-0.4,0.9-0.9,0.9s-0.9-0.4-0.9-0.9s0.4-0.9,0.9-0.9C62,102.1,62.5,102.5,62.5,103z"/>
		<path class="st43" d="M62.3,103c0,0.4-0.3,0.8-0.8,0.8c-0.4,0-0.8-0.3-0.8-0.8c0-0.4,0.3-0.8,0.8-0.8
			C61.9,102.3,62.3,102.6,62.3,103z"/>
	</g>
	<path class="st36" d="M48.4,118.7c0,1.4-2,16-4.4,16s-4.4-14.6-4.4-16s2-3.3,4.4-3.3C46.4,115.3,48.4,117.2,48.4,118.7z"/>
</g>
</svg>
